<svg xmlns="http://www.w3.org/2000/svg" width="34.301" height="14" viewBox="0 0 34.301 14">
  <path id="cegid-vector-logo" d="M-108.372,166.278a1.887,1.887,0,0,1-1.852-2.029,1.891,1.891,0,0,1,1.852-2.029,1.871,1.871,0,0,1,1.852,2.029,1.908,1.908,0,0,1-1.852,2.029m1.852-5.631v.772h-.28l-.034-.034a2.472,2.472,0,0,0-2.029-.909,3.5,3.5,0,0,0-3.253,3.779,3.533,3.533,0,0,0,3.356,3.779,2.266,2.266,0,0,0,1.921-.84l.034-.034h.28v1.469a1.181,1.181,0,0,1-1.189,1.189h-2.441V171.6h2.693a2.8,2.8,0,0,0,2.8-2.8v-8.158Zm-10.176,7.518a3.626,3.626,0,0,1-3.739-3.779,3.633,3.633,0,0,1,3.67-3.779,3.537,3.537,0,0,1,3.6,3.779v.417h-5.351v.1a1.635,1.635,0,0,0,1.784,1.641,1.712,1.712,0,0,0,1.641-.875l1.641.383a3.169,3.169,0,0,1-3.247,2.109m-.034-6.048a1.7,1.7,0,0,0-1.749,1.4v.1h3.5v-.109a1.74,1.74,0,0,0-1.749-1.395m13.64-1.155h1.852v6.992h-1.852Zm.943-1.189a1.08,1.08,0,0,1-1.12-1.086,1.08,1.08,0,0,1,1.12-1.086,1.1,1.1,0,0,1,1.12,1.086,1.083,1.083,0,0,1-1.12,1.086m5.454,8.426a3.557,3.557,0,0,1-3.356-3.779,3.524,3.524,0,0,1,3.253-3.779,2.486,2.486,0,0,1,2.029.909l.034.034h.28V157.7H-92.6v10.313h-1.852v-.7h-.314l-.034.034a2.167,2.167,0,0,1-1.892.846m.383-5.8a1.868,1.868,0,0,0-1.852,2.029,1.9,1.9,0,0,0,1.887,2.029,1.911,1.911,0,0,0,1.852-2.029A1.872,1.872,0,0,0-96.31,162.4m-26.954,5.734a3.544,3.544,0,0,1-3.636-3.7,3.667,3.667,0,0,1,3.813-3.779,4.784,4.784,0,0,1,2.132.492l-.595,1.5a3.3,3.3,0,0,0-1.326-.314,1.944,1.944,0,0,0-2.1,2.1,1.954,1.954,0,0,0,2.132,2.1,2.473,2.473,0,0,0,1.326-.383l.629,1.326a4.579,4.579,0,0,1-2.378.663" transform="translate(126.9 -157.6)" />
</svg>
