<svg xmlns="http://www.w3.org/2000/svg" width="35.708" height="25" viewBox="0 0 35.708 25">
  <g id="Salesforce" transform="translate(0.24 -0.552)">
    <path id="Tracé_3410" data-name="Tracé 3410" d="M14.619,3.274a6.259,6.259,0,0,1,4.527-1.942A6.322,6.322,0,0,1,24.656,4.6a7.61,7.61,0,0,1,3.11-.663,7.768,7.768,0,1,1-1.522,15.385,5.625,5.625,0,0,1-7.374,2.32,6.416,6.416,0,0,1-11.927-.289,5.917,5.917,0,0,1-1.226.128A5.992,5.992,0,0,1-.24,15.458a6.053,6.053,0,0,1,2.979-5.222A6.935,6.935,0,0,1,14.62,3.281" fill-rule="evenodd"/>
    <path id="Tracé_3411" data-name="Tracé 3411" d="M39.346,79.983c-.022.059.008.071.015.081a2.256,2.256,0,0,0,.2.123,2.181,2.181,0,0,0,1.068.249c.732,0,1.187-.39,1.187-1.017v-.012c0-.58-.514-.791-.995-.942l-.063-.02c-.363-.118-.677-.22-.677-.459v-.012c0-.2.184-.356.467-.356a2.116,2.116,0,0,1,.93.237s.071.046.1-.023c.014-.037.136-.365.15-.4a.068.068,0,0,0-.036-.082,2.074,2.074,0,0,0-1.05-.282h-.073a1.024,1.024,0,0,0-1.139.985v.012c0,.611.517.811,1,.949l.078.024c.352.108.656.2.656.449V79.5c0,.227-.2.4-.516.4a1.729,1.729,0,0,1-.943-.272c-.052-.03-.081-.052-.121-.076a.059.059,0,0,0-.1.033l-.144.4m10.72,0c-.022.059.008.071.015.081a2.219,2.219,0,0,0,.2.123,2.181,2.181,0,0,0,1.068.249c.732,0,1.187-.39,1.187-1.017v-.012c0-.58-.513-.791-.995-.942l-.063-.02c-.363-.118-.677-.22-.677-.459v-.012c0-.2.184-.356.467-.356a2.12,2.12,0,0,1,.93.237s.071.046.1-.023c.014-.037.136-.365.148-.4a.068.068,0,0,0-.035-.082,2.074,2.074,0,0,0-1.05-.282H51.29a1.024,1.024,0,0,0-1.139.985v.012c0,.611.517.811,1,.949l.078.024c.353.108.656.2.656.449V79.5c0,.227-.2.4-.516.4a1.726,1.726,0,0,1-.943-.272c-.052-.03-.082-.051-.121-.076a.062.062,0,0,0-.1.033l-.144.4m7.322-1.228a1.519,1.519,0,0,1-.2.832.753.753,0,0,1-1.189,0,1.882,1.882,0,0,1,0-1.66.651.651,0,0,1,.593-.287.659.659,0,0,1,.6.287,1.492,1.492,0,0,1,.2.828M58,78.1a1.477,1.477,0,0,0-.278-.531,1.332,1.332,0,0,0-.47-.357,1.706,1.706,0,0,0-1.312,0,1.349,1.349,0,0,0-.47.357,1.483,1.483,0,0,0-.278.531,2.445,2.445,0,0,0,0,1.315,1.473,1.473,0,0,0,.278.531,1.322,1.322,0,0,0,.47.354,1.738,1.738,0,0,0,1.311,0,1.318,1.318,0,0,0,.47-.354A1.481,1.481,0,0,0,58,79.412,2.449,2.449,0,0,0,58,78.1m5.025,1.68a.058.058,0,0,0-.078-.037,1.4,1.4,0,0,1-.285.081,2.177,2.177,0,0,1-.335.024.93.93,0,0,1-.7-.262,1.165,1.165,0,0,1-.262-.836,1.3,1.3,0,0,1,.235-.806.8.8,0,0,1,.678-.3,2.052,2.052,0,0,1,.647.093s.048.021.071-.042c.054-.148.093-.255.151-.417a.055.055,0,0,0-.038-.072,2.381,2.381,0,0,0-.408-.1,3.078,3.078,0,0,0-.459-.031,1.664,1.664,0,0,0-.681.131,1.409,1.409,0,0,0-.492.357,1.516,1.516,0,0,0-.3.531,2.112,2.112,0,0,0-.1.659,1.762,1.762,0,0,0,.407,1.218,1.544,1.544,0,0,0,1.207.454,2.479,2.479,0,0,0,.866-.155.056.056,0,0,0,.025-.073l-.151-.415m1.069-1.365a1.191,1.191,0,0,1,.168-.488.659.659,0,0,1,.592-.3.642.642,0,0,1,.58.3,1.014,1.014,0,0,1,.136.488H64.085Zm2.06-.433a1.3,1.3,0,0,0-.265-.484,1.209,1.209,0,0,0-.394-.3,1.509,1.509,0,0,0-.593-.12,1.627,1.627,0,0,0-.684.133,1.363,1.363,0,0,0-.476.363,1.5,1.5,0,0,0-.281.538,2.326,2.326,0,0,0-.091.66,2.232,2.232,0,0,0,.094.661,1.33,1.33,0,0,0,.821.871,2.075,2.075,0,0,0,.752.122,2.146,2.146,0,0,0,1.042-.207c.023-.013.045-.035.018-.1l-.135-.379a.06.06,0,0,0-.078-.036,1.982,1.982,0,0,1-.85.154.847.847,0,0,1-.949-.933l2.073,0a.061.061,0,0,0,.06-.054,2.214,2.214,0,0,0-.062-.891Zm-18.632.433a1.193,1.193,0,0,1,.168-.488.659.659,0,0,1,.592-.3.642.642,0,0,1,.58.3,1.016,1.016,0,0,1,.136.488H47.513Zm2.06-.433a1.3,1.3,0,0,0-.265-.484,1.209,1.209,0,0,0-.394-.3,1.509,1.509,0,0,0-.593-.12,1.627,1.627,0,0,0-.684.133,1.363,1.363,0,0,0-.476.363,1.5,1.5,0,0,0-.281.538,2.331,2.331,0,0,0-.091.66,2.219,2.219,0,0,0,.094.661,1.324,1.324,0,0,0,.82.871,2.071,2.071,0,0,0,.752.122,2.146,2.146,0,0,0,1.042-.207c.023-.013.045-.035.017-.1l-.135-.379a.06.06,0,0,0-.078-.036,1.982,1.982,0,0,1-.85.154.847.847,0,0,1-.949-.933l2.073,0a.061.061,0,0,0,.06-.054,2.213,2.213,0,0,0-.062-.891Zm-6.534,1.784a.4.4,0,0,1-.119-.123.5.5,0,0,1-.062-.269.453.453,0,0,1,.185-.4.931.931,0,0,1,.6-.15,4.2,4.2,0,0,1,.562.048v.941h0a4.182,4.182,0,0,1-.559.074.929.929,0,0,1-.606-.121Zm.824-1.456c-.084-.006-.193-.009-.323-.009a1.954,1.954,0,0,0-.509.065,1.327,1.327,0,0,0-.432.2.966.966,0,0,0-.411.819,1.079,1.079,0,0,0,.095.472.858.858,0,0,0,.27.324,1.132,1.132,0,0,0,.421.182,2.477,2.477,0,0,0,.548.056,3.79,3.79,0,0,0,.629-.052q.262-.045.521-.1c.069-.016.146-.037.146-.037a.065.065,0,0,0,.047-.068V78.27a1.156,1.156,0,0,0-.329-.913,1.407,1.407,0,0,0-.95-.286,3.413,3.413,0,0,0-.555.051,1.993,1.993,0,0,0-.638.234.064.064,0,0,0-.019.082l.147.394a.052.052,0,0,0,.068.034.267.267,0,0,0,.034-.017,2.1,2.1,0,0,1,.9-.21.837.837,0,0,1,.512.134c.113.087.171.218.171.493v.088c-.177-.026-.341-.041-.341-.041ZM60.533,77.24a.056.056,0,0,0-.031-.075,1.822,1.822,0,0,0-.346-.059,1.027,1.027,0,0,0-.534.086.918.918,0,0,0-.349.258V77.2a.06.06,0,0,0-.059-.063h-.53a.06.06,0,0,0-.059.063v3.083a.063.063,0,0,0,.063.063h.543a.063.063,0,0,0,.063-.063V78.734a1.815,1.815,0,0,1,.068-.543.779.779,0,0,1,.181-.3.628.628,0,0,1,.256-.154,1.008,1.008,0,0,1,.278-.039,1.163,1.163,0,0,1,.227.028c.04,0,.062-.02.076-.056.036-.095.136-.378.156-.434" transform="translate(-34.385 -66.474)" fill="#fffffe" fill-rule="evenodd"/>
    <path id="Tracé_3412" data-name="Tracé 3412" d="M96.554,67.082a1.742,1.742,0,0,0-.2-.049,1.6,1.6,0,0,0-.281-.022,1.185,1.185,0,0,0-.877.315,1.71,1.71,0,0,0-.416.939l-.025.14h-.47a.07.07,0,0,0-.069.06l-.077.43c-.005.041.012.067.067.067h.457l-.464,2.591a3.251,3.251,0,0,1-.124.51,1.047,1.047,0,0,1-.144.294.384.384,0,0,1-.189.146.767.767,0,0,1-.244.035.943.943,0,0,1-.166-.018.5.5,0,0,1-.112-.036.057.057,0,0,0-.075.033c-.017.044-.139.379-.154.421a.062.062,0,0,0,.032.083,1.547,1.547,0,0,0,.189.055,1.249,1.249,0,0,0,.3.029,1.513,1.513,0,0,0,.508-.079.951.951,0,0,0,.382-.267,1.372,1.372,0,0,0,.269-.463,3.951,3.951,0,0,0,.182-.7l.466-2.639H96a.07.07,0,0,0,.069-.06l.077-.43c.005-.041-.012-.067-.068-.067h-.662a2.809,2.809,0,0,1,.109-.467.6.6,0,0,1,.145-.221.429.429,0,0,1,.173-.108.719.719,0,0,1,.222-.032.864.864,0,0,1,.17.017c.064.014.089.021.106.026.067.021.076,0,.09-.032l.158-.435a.055.055,0,0,0-.038-.072m-9.247,4.477a.06.06,0,0,1-.059.063H86.7a.06.06,0,0,1-.059-.063V67.141a.06.06,0,0,1,.059-.062h.549a.06.06,0,0,1,.059.062v4.418" transform="translate(-75.479 -57.739)" fill="#fffffe" fill-rule="evenodd"/>
  </g>
</svg>
