<svg xmlns="http://www.w3.org/2000/svg" width="26.863" height="30.439" viewBox="0 0 26.863 30.439">
  <g id="Groupe_120" data-name="Groupe 120" transform="translate(-508 4049)">
    <path id="Tracé_3080" data-name="Tracé 3080" d="M54.716,37.428l7.7-1.915S59.1,13.084,59.078,12.93a.3.3,0,0,0-.267-.249c-.111-.009-2.278-.042-2.278-.042s-1.321-1.284-1.817-1.77Z" transform="translate(472.45 -4056.062)"/>
    <path id="Tracé_3081" data-name="Tracé 3081" d="M18.329,3.551l-.91.282a6.4,6.4,0,0,0-.436-1.072A3.069,3.069,0,0,0,14.25.876h0c-.079,0-.158.008-.237.014-.034-.041-.068-.08-.1-.119A2.391,2.391,0,0,0,12.006,0C10.532.044,9.063,1.11,7.873,3a11.9,11.9,0,0,0-1.656,4.3l-2.9.9c-.855.269-.882.3-.993,1.1C2.236,9.917,0,27.228,0,27.228l18.553,3.212V3.513a1.083,1.083,0,0,0-.225.038ZM14.044,4.879l-3.129.97a7.428,7.428,0,0,1,1.58-3.07A3.157,3.157,0,0,1,13.558,2a7.046,7.046,0,0,1,.486,2.874ZM12.035.984a1.5,1.5,0,0,1,.887.232,4.269,4.269,0,0,0-1.145.893A8.6,8.6,0,0,0,9.836,6.183l-2.57.8c.508-2.371,2.493-5.93,4.769-6ZM9.166,14.493c.1,1.58,4.252,1.925,4.485,5.626.183,2.912-1.543,4.9-4.03,5.061A6.035,6.035,0,0,1,4.993,23.6l.633-2.694A5.723,5.723,0,0,0,8.6,22.076a1.171,1.171,0,0,0,1.143-1.257c-.13-2.061-3.512-1.939-3.725-5.326-.18-2.85,1.69-5.738,5.815-6a5.075,5.075,0,0,1,2.4.306L13.3,13.333a5.353,5.353,0,0,0-2.3-.4c-1.83.116-1.85,1.271-1.831,1.56Zm5.858-9.917a8.068,8.068,0,0,0-.448-2.686c1.119.212,1.67,1.479,1.9,2.235Z" transform="translate(508 -4049)"/>
  </g>
</svg>
