<?xml version="1.0" encoding="utf-8"?>
<!-- Generator: Adobe Illustrator 27.5.0, SVG Export Plug-In . SVG Version: 6.00 Build 0)  -->
<svg version="1.1" id="レイヤー_1" xmlns="http://www.w3.org/2000/svg" xmlns:xlink="http://www.w3.org/1999/xlink" x="0px"
	 y="0px" viewBox="0 0 28 19.6" style="enable-background:new 0 0 28 19.6;" xml:space="preserve">
<style type="text/css">
	.st0{fill-rule:evenodd;clip-rule:evenodd;fill:#000;}
</style>
<g id="グループ_216" transform="translate(0 0)">
	<g>
	</g>
</g>
<g>
	<path class="st0" d="M7,9.4C6.9,9.4,6.8,9.6,6.8,9.7c0,0.1,0,0.1,0,0.2c0,0,0.1,0.1,0.1,0.1l0,0c0.1,0.1,0.3,0.1,0.5,0.1
		c0.1,0,0.3,0,0.4-0.1V9.3c-0.1,0-0.3,0-0.4,0C7.3,9.2,7.1,9.3,7,9.4z"/>
	<path class="st0" d="M18.1,8.6c-0.1-0.2-0.3-0.2-0.5-0.2c-0.2,0-0.4,0.1-0.5,0.2C17,8.7,17,9,17,9.2c0,0.2,0,0.5,0.2,0.7
		c0.1,0.2,0.3,0.2,0.5,0.2c0.2,0,0.4-0.1,0.5-0.2c0.1-0.2,0.2-0.4,0.2-0.7l0,0C18.2,9,18.2,8.7,18.1,8.6z"/>
	<path class="st0" d="M11.1,8.3c-0.2,0-0.4,0.1-0.5,0.2c-0.1,0.1-0.1,0.2-0.1,0.4l0,0h1.2c0-0.1,0-0.3-0.1-0.4
		C11.4,8.4,11.2,8.3,11.1,8.3z"/>
	<path class="st0" d="M22,2.7c-0.8,0-1.7,0.2-2.4,0.5c-0.9-1.6-2.5-2.6-4.3-2.6c-1.3,0-2.6,0.6-3.6,1.5c-1.5-2-4.2-2.7-6.5-1.7
		c-2.8,1.2-4,4.4-2.8,7.1C0.9,8.4,0,10,0,11.7c0,0.3,0,0.7,0.1,1c0.5,2.5,3,4.1,5.5,3.6c0.5,1.3,1.5,2.4,2.8,2.9
		c2.6,1.1,5.5-0.1,6.6-2.7c2.1,1,4.6,0.2,5.8-1.8c0.4,0.1,0.8,0.1,1.2,0.1c3.3,0,6-2.7,6-6C28,5.4,25.3,2.7,22,2.7z M6,9.7
		c0,0.5-0.4,0.8-0.9,0.8c-0.3,0-0.6-0.1-0.8-0.2c-0.1,0-0.1-0.1-0.2-0.1c0,0,0,0,0-0.1l0,0l0.1-0.3c0,0,0,0,0.1,0c0,0,0,0,0,0
		c0,0,0.1,0,0.1,0.1c0.2,0.1,0.5,0.2,0.7,0.2c0.2,0,0.4-0.1,0.4-0.3v0c0-0.2-0.2-0.3-0.5-0.4l-0.1,0C4.5,9.3,4.1,9.1,4.1,8.7v0
		c0-0.5,0.4-0.8,0.9-0.8h0.1c0.3,0,0.6,0.1,0.8,0.2c0,0,0,0,0,0.1L5.8,8.5c0,0.1-0.1,0-0.1,0C5.5,8.4,5.3,8.3,5,8.3
		c-0.2,0-0.4,0.1-0.4,0.3v0c0,0.2,0.2,0.3,0.5,0.4l0,0C5.6,9.1,6,9.3,6,9.7L6,9.7z M8.4,10.3C8.4,10.3,8.4,10.4,8.4,10.3
		c0,0.1-0.1,0.1-0.2,0.1c-0.1,0-0.2,0.1-0.4,0.1c-0.2,0-0.3,0-0.5,0c-0.1,0-0.3,0-0.4,0c-0.1,0-0.2-0.1-0.3-0.1
		c-0.1-0.1-0.2-0.2-0.2-0.3C6.3,10,6.3,9.8,6.3,9.7c0-0.3,0.1-0.5,0.3-0.6C6.7,9,6.8,8.9,6.9,8.9c0.1,0,0.3-0.1,0.4-0.1
		c0.1,0,0.2,0,0.3,0l0,0c0,0,0.1,0,0.3,0V8.8c0-0.2,0-0.3-0.1-0.4C7.6,8.4,7.5,8.3,7.3,8.3c-0.2,0-0.5,0.1-0.7,0.2c0,0,0,0,0,0
		c0,0,0,0-0.1,0c0,0,0,0,0,0L6.4,8.2c0,0,0,0,0-0.1C6.6,8,6.8,8,6.9,7.9c0.1,0,0.3,0,0.4,0c0.3,0,0.5,0.1,0.7,0.2
		c0.2,0.2,0.3,0.5,0.3,0.7L8.4,10.3z M9.4,6.9l0,3.5c0,0,0,0,0,0c0,0,0,0,0,0H9c0,0,0,0,0,0c0,0,0,0,0,0V6.9c0,0,0,0,0,0
		c0,0,0,0,0,0L9.4,6.9C9.4,6.9,9.4,6.9,9.4,6.9C9.4,6.9,9.4,6.9,9.4,6.9z M12.1,9.3C12.1,9.3,12.1,9.3,12.1,9.3l-1.7,0
		c0,0.4,0.2,0.7,0.6,0.7c0.1,0,0.1,0,0.2,0c0.2,0,0.5,0,0.7-0.1c0,0,0.1,0,0.1,0c0,0,0,0,0,0l0.1,0.3c0,0,0,0.1,0,0.1
		c-0.3,0.1-0.5,0.2-0.8,0.2c-0.2,0-0.4,0-0.6-0.1c-0.3-0.1-0.5-0.4-0.6-0.7C9.9,9.6,9.9,9.4,9.9,9.2c0-0.2,0-0.3,0.1-0.5
		c0-0.2,0.1-0.3,0.2-0.4c0.1-0.1,0.2-0.2,0.4-0.3c0.2-0.1,0.4-0.1,0.5-0.1c0.2,0,0.3,0,0.5,0.1c0.1,0.1,0.2,0.1,0.3,0.2
		C12,8.3,12,8.5,12.1,8.6l0,0C12.1,8.8,12.2,9.1,12.1,9.3z M13.5,10.5c-0.3,0-0.6-0.1-0.8-0.2c-0.1,0-0.1-0.1-0.2-0.1c0,0,0,0,0-0.1
		l0,0l0.1-0.3c0,0,0,0,0.1,0c0,0,0,0,0,0c0,0,0.1,0,0.1,0.1c0.2,0.1,0.5,0.2,0.7,0.2c0.2,0,0.4-0.1,0.4-0.3v0c0-0.2-0.2-0.3-0.5-0.4
		l-0.1,0c-0.4-0.1-0.8-0.3-0.8-0.7v0c0-0.5,0.4-0.8,0.9-0.8h0.1c0.3,0,0.6,0.1,0.8,0.2c0,0,0,0,0,0.1c0,0-0.1,0.3-0.1,0.3
		c0,0.1-0.1,0-0.1,0c-0.2-0.1-0.5-0.2-0.7-0.2c-0.2,0-0.4,0.1-0.4,0.3v0c0,0.2,0.2,0.3,0.5,0.4l0,0c0.4,0.1,0.8,0.3,0.8,0.7v0
		C14.4,10.2,14,10.5,13.5,10.5z M16.4,8l-0.1,0.3c0,0,0,0-0.1,0h-0.5l-0.4,2.1c0,0.2-0.1,0.4-0.1,0.5c0,0.1-0.1,0.3-0.2,0.4
		c-0.1,0.1-0.2,0.2-0.3,0.2c-0.1,0-0.3,0.1-0.4,0.1c-0.1,0-0.2,0-0.2,0c-0.1,0-0.1,0-0.1,0c0,0,0,0,0-0.1c0,0,0,0,0,0
		c0,0,0.1-0.3,0.1-0.3c0,0,0,0,0.1,0c0,0,0,0,0,0c0,0,0.1,0,0.1,0c0,0,0.1,0,0.1,0c0.1,0,0.1,0,0.2,0c0.1,0,0.1-0.1,0.1-0.1
		c0-0.1,0.1-0.1,0.1-0.2c0-0.1,0.1-0.3,0.1-0.4l0.4-2h-0.4c0,0-0.1,0-0.1-0.1L14.9,8c0,0,0,0,0.1,0h0.4l0-0.1c0-0.3,0.1-0.5,0.3-0.7
		c0.2-0.2,0.4-0.3,0.7-0.2c0.1,0,0.1,0,0.2,0c0.1,0,0.1,0,0.2,0l0,0c0,0,0,0,0,0.1c0,0,0,0,0,0l-0.1,0.3c0,0,0,0-0.1,0
		c-0.1,0-0.1,0-0.2,0c-0.1,0-0.1,0-0.2,0c-0.1,0-0.1,0-0.1,0.1c-0.1,0-0.1,0.1-0.1,0.2c0,0.1-0.1,0.2-0.1,0.4L16.4,8
		C16.4,7.9,16.4,8,16.4,8z M18.7,9.7c0,0.2-0.1,0.3-0.2,0.4c-0.1,0.1-0.2,0.2-0.4,0.3c-0.3,0.1-0.7,0.1-1,0
		c-0.1-0.1-0.3-0.2-0.4-0.3c-0.1-0.1-0.2-0.3-0.2-0.4c-0.1-0.3-0.1-0.7,0-1c0-0.2,0.1-0.3,0.2-0.4c0.1-0.1,0.2-0.2,0.4-0.3
		c0.3-0.1,0.7-0.1,1,0c0.1,0.1,0.3,0.2,0.4,0.3c0.1,0.1,0.2,0.3,0.2,0.4v0C18.8,9,18.8,9.4,18.7,9.7z M20.7,8L20.7,8L20.7,8
		c0,0-0.1,0.3-0.1,0.3c0,0,0,0-0.1,0c-0.1,0-0.1,0-0.2,0c-0.1,0-0.1,0-0.2,0c-0.1,0-0.1,0.1-0.2,0.1c-0.1,0.1-0.1,0.1-0.1,0.2
		c0,0.1-0.1,0.3-0.1,0.4v1.2c0,0,0,0,0,0c0,0,0,0,0,0h-0.4c0,0,0,0-0.1,0V8c0,0,0,0,0,0c0,0,0,0,0,0h0.4c0,0,0,0,0,0c0,0,0,0,0,0
		v0.2C19.8,8.1,19.9,8,20,8c0.1-0.1,0.3-0.1,0.4-0.1C20.5,7.9,20.6,7.9,20.7,8C20.7,8,20.7,8,20.7,8C20.7,8,20.7,8,20.7,8z
		 M22.7,10.4c-0.2,0.1-0.4,0.1-0.7,0.1c-0.4,0-0.7-0.1-0.9-0.4c-0.2-0.3-0.3-0.6-0.3-1c0-0.2,0-0.3,0.1-0.5c0-0.2,0.1-0.3,0.2-0.4
		c0.1-0.1,0.2-0.2,0.4-0.3c0.2-0.1,0.4-0.1,0.5-0.1c0.1,0,0.2,0,0.4,0c0.1,0,0.2,0,0.3,0.1c0,0,0,0,0,0.1c0,0,0,0,0,0
		c0,0.1-0.1,0.2-0.1,0.3c0,0-0.1,0-0.1,0c-0.2-0.1-0.3-0.1-0.5-0.1c-0.2,0-0.4,0.1-0.5,0.2c-0.1,0.2-0.2,0.4-0.2,0.6
		c0,0.2,0.1,0.5,0.2,0.7c0.1,0.1,0.3,0.2,0.5,0.2c0.1,0,0.2,0,0.3,0c0.1,0,0.2,0,0.2-0.1c0,0,0.1,0,0.1,0c0,0,0,0,0,0l0,0L22.7,10.4
		C22.8,10.4,22.7,10.4,22.7,10.4z M25.1,9.3C25.1,9.3,25.1,9.3,25.1,9.3l-1.7,0c0,0.4,0.2,0.7,0.6,0.7c0.1,0,0.1,0,0.2,0
		c0.2,0,0.5,0,0.7-0.1c0,0,0.1,0,0.1,0c0,0,0,0,0,0l0.1,0.3c0,0,0,0.1,0,0.1c-0.3,0.1-0.5,0.2-0.8,0.2c-0.2,0-0.4,0-0.6-0.1
		c-0.3-0.1-0.5-0.4-0.6-0.7c-0.1-0.2-0.1-0.3-0.1-0.5c0-0.2,0-0.3,0.1-0.5c0-0.2,0.1-0.3,0.2-0.4c0.1-0.1,0.2-0.2,0.4-0.3
		c0.2-0.1,0.4-0.1,0.5-0.1c0.2,0,0.3,0,0.5,0.1c0.1,0.1,0.2,0.1,0.3,0.2C25,8.3,25,8.5,25.1,8.6l0,0C25.1,8.8,25.2,9.1,25.1,9.3z"/>
	<path class="st0" d="M24.1,8.3c-0.2,0-0.4,0.1-0.5,0.2c-0.1,0.1-0.1,0.2-0.1,0.4h0h1.2c0-0.1,0-0.3-0.1-0.4
		C24.4,8.4,24.2,8.3,24.1,8.3z"/>
</g>
</svg>
