<svg xmlns="http://www.w3.org/2000/svg" width="79.504" height="32.298" viewBox="0 0 79.504 32.298">
  <g id="logo_heinz" transform="translate(-1.85 39.913)">
    <path id="path10" d="M38.571-39.85a85.565,85.565,0,0,0-27.351,5.09c-1.173.453-3.465,1.42-4.373,1.859a.721.721,0,0,0-.285.316c-.231.46-.169.768.651,3.382a17.525,17.525,0,0,1,.732,2.634,1.189,1.189,0,0,1-.576.741c-.122.055-.6.22-1.085.377-.936.3-3.451,1.269-3.905,1.509a.838.838,0,0,0-.522.926c.034.357,4.176,14.44,4.36,14.838a1.374,1.374,0,0,0,.325.4l.217.165H41.521c25.567,0,34.8-.021,34.91-.075a1.385,1.385,0,0,0,.658-.844c.495-1.523,4.217-14.276,4.251-14.55a.568.568,0,0,0-.149-.569,1.523,1.523,0,0,0-.386-.329c-.373-.192-2.963-1.187-3.831-1.475-.481-.151-.983-.329-1.132-.391a1.054,1.054,0,0,1-.6-.837c-.014-.226,1.275-4.775,1.451-5.124a1.064,1.064,0,0,0-.19-.988.641.641,0,0,0-.271-.2,7.856,7.856,0,0,1-.922-.384c-7.553-3.464-17.2-5.68-27.581-6.339-1.437-.089-5.322-.206-6.509-.192C40.721-39.9,39.527-39.877,38.571-39.85Zm11.282,7.278a.36.36,0,0,1,.081.322c-.353,1.489-.461,1.8-.766,2.14a4.631,4.631,0,0,1-1.8,1.056,9.96,9.96,0,0,1-.963.343c-.339.082-.414.089-.576,0-.4-.206-.427-.7-.1-1.749.3-.947.414-1.146.841-1.434a5.538,5.538,0,0,1,2.359-.823C49.447-32.8,49.7-32.757,49.853-32.571Zm-24.564.364a.535.535,0,0,1,.237.261c.027.1-.393,1.742-1.078,4.246-.617,2.25-1.125,4.123-1.125,4.164a6.575,6.575,0,0,0,1.722.075h1.722l.027-.158c.02-.082.407-1.523.861-3.2a24.576,24.576,0,0,1,1.125-3.684A3.847,3.847,0,0,1,30.1-32.091l.312-.185,1.756-.021c.963-.014,1.8-.007,1.858.021.081.027.047.1-.17.329-.712.741-1.4,2.257-2.156,4.72-.5,1.633-2.705,10.317-2.732,10.763a1.521,1.521,0,0,0,.427,1.3l.312.37-.156.158a5.912,5.912,0,0,1-2.6,1.118,9.592,9.592,0,0,1-2.17.144c-.244-.1-.386-.432-.38-.926s.054-.713,1.132-4.781c.427-1.612.773-2.957.773-3a6.862,6.862,0,0,0-1.715-.075H22.876l-.488,1.694c-.658,2.271-.983,2.95-1.858,3.9a17.1,17.1,0,0,1-5.478,3.114,6.532,6.532,0,0,1-2.61.453,3.583,3.583,0,0,1-2.237-.508c-1.458-.761-2.787-3.176-2.922-5.31-.061-.988.034-1.441.359-1.736a9.971,9.971,0,0,1,2.522-1.242c1.01-.336.956-.412.909,1.31a9.646,9.646,0,0,0,.075,2,6.55,6.55,0,0,0,1.376,3.272,3.063,3.063,0,0,0,2.414.713c.976-.151,2.129-1.612,3-3.794.122-.322.644-2.072,1.153-3.89s1.22-4.384,1.593-5.714.692-2.593.712-2.813c.081-.782-.149-.919-1.6-.967a3.843,3.843,0,0,0-2.305.4,3.243,3.243,0,0,0-1.675,2.085,4.849,4.849,0,0,0-.115,1.475,4.748,4.748,0,0,0,.712,2.813,3.881,3.881,0,0,1,.346.9,13.866,13.866,0,0,1-2.231.309,2.088,2.088,0,0,1-.82-.034c-.312-.13-.617-.809-.922-2.031a4.712,4.712,0,0,1,1.8-5.358c1.376-.926,2.97-1.166,7.939-1.187A10.9,10.9,0,0,1,25.289-32.208Zm34.992,5.042a1.279,1.279,0,0,1,1.146,1.317c0,.4-.129.912-1.288,5.063-1.248,4.486-1.322,4.864-.976,5.282a1.845,1.845,0,0,0,.441.35c.149.075.264.158.264.192,0,.4-3.383,1.722-4.407,1.722a.962.962,0,0,1-.895-.48c-.224-.446-.142-1.043.353-2.572.142-.453.522-1.79.847-2.977s.719-2.607.881-3.162a11.332,11.332,0,0,0,.339-1.413c.041-.35.027-.432-.1-.6a.433.433,0,0,0-.414-.185,3.589,3.589,0,0,0-2.387,1.667,14.238,14.238,0,0,0-1.037,3.032c-.915,3.1-.915,3.1-.956,4.185a3.908,3.908,0,0,1-.122,1.1,8.581,8.581,0,0,1-3.3,1.379.714.714,0,0,1-.888-.515,3.652,3.652,0,0,1,.237-2.449c.169-.528.732-2.353,1.248-4.047.895-2.97.929-3.108.936-3.7,0-.569-.014-.638-.2-.912-.149-.22-.183-.329-.136-.4a3.785,3.785,0,0,1,.739-.473,10.731,10.731,0,0,1,3.837-1.173c.332.089.414.563.224,1.338-.163.645-.163.645.793-.014a9.991,9.991,0,0,1,3.248-1.434A3.045,3.045,0,0,1,60.281-27.166Zm-19.14.439a1.887,1.887,0,0,1,1.037,1.406c.278,1.31-1.031,2.957-3.221,4.041a17.16,17.16,0,0,1-2.78,1.043,2.934,2.934,0,0,0-.685.247,2.771,2.771,0,0,0-.244.659,4.65,4.65,0,0,0-.156,1.427c-.007.974.054,1.173.475,1.646a1.743,1.743,0,0,0,1.512.6,3.948,3.948,0,0,0,2.142-.432,2.077,2.077,0,0,1,.739-.24c.136.137-.075.466-.759,1.159a5.828,5.828,0,0,1-4.014,2A4.454,4.454,0,0,1,33.1-13.35a2.78,2.78,0,0,1-1.878-1.626,4.15,4.15,0,0,1-.38-1.976,11.356,11.356,0,0,1,2.631-6.819A9.177,9.177,0,0,1,39.8-26.919,2.557,2.557,0,0,1,41.141-26.727Zm6.861-.1a.829.829,0,0,1,.176.309c.075.316-.237,1.557-1.315,5.214-1.288,4.384-1.37,4.685-1.37,5.186a.74.74,0,0,0,.2.638,1.678,1.678,0,0,0,.481.343c.264.11.271.123.169.24a10.556,10.556,0,0,1-2.061,1.063,8.333,8.333,0,0,1-2.258.59A1.188,1.188,0,0,1,41-13.754c-.292-.624-.217-1.139.5-3.313a47.631,47.631,0,0,0,2.054-7.086.958.958,0,0,0-.19-.734.736.736,0,0,1-.156-.384c.142-.377,2.2-1.255,3.675-1.571C47.562-26.994,47.84-26.987,48-26.823Zm24.022-.062c.2.11.244.185.2.35-.02.075-1.492,2.161-3.282,4.637-2.576,3.567-3.241,4.534-3.227,4.672l.02.178,3.18.021c2.061.007,3.268-.007,3.437-.055a2.116,2.116,0,0,0,1.017-.981,1.225,1.225,0,0,0,.264-.919,1.176,1.176,0,0,0-.434-1.1,1.454,1.454,0,0,0-1.159-.274l-.339.021.02-.24a1.906,1.906,0,0,1,.678-1.2c.271-.185.346-.206.847-.206A1.912,1.912,0,0,1,75.1-20.944a1.086,1.086,0,0,1,.129.72c-.136,1.029-1.241,3.06-2.861,5.275a10.129,10.129,0,0,1-.881,1.084l-.237.213H66.132a40.841,40.841,0,0,1-5.349-.1c-.129-.055-.237-.13-.237-.165a12.77,12.77,0,0,1,1.037-1.523c.658-.851,1.648-2.037,3.3-3.944,2.644-3.053,3.051-3.588,3.051-3.986V-23.6H63.651l-.359.377c-.325.343-.488.439-.59.343a13.717,13.717,0,0,1,.963-2.778,3.488,3.488,0,0,1,.9-1.029c.312-.24.705-.268,4.034-.268A27.838,27.838,0,0,1,72.024-26.884Z" fill="#09382f"/>
    <path id="path12" d="M37.7-25.279A6.92,6.92,0,0,0,36.07-22.4c-.434,1.139-.434,1.159-.007,1.111a6.98,6.98,0,0,0,.915-.22c.671-.206.617-.144,1.146-1.441.59-1.468.746-2.278.461-2.435A.913.913,0,0,0,37.7-25.279Z" fill="#09382f"/>
  </g>
</svg>
