<?xml version="1.0" encoding="utf-8"?>
<!-- Generator: Adobe Illustrator 27.1.1, SVG Export Plug-In . SVG Version: 6.00 Build 0)  -->
<svg version="1.1" id="Shopify_Secondary" xmlns="http://www.w3.org/2000/svg" xmlns:xlink="http://www.w3.org/1999/xlink" x="0px"
	 y="0px" viewBox="0 0 214 61" style="enable-background:new 0 0 214 61;" xml:space="preserve">
<path id="パス_3080" d="M37.8,59.8L52.9,56c0,0-6.5-44.2-6.6-44.5c0-0.3-0.3-0.5-0.5-0.5c-0.2,0-4.5-0.1-4.5-0.1s-2.6-2.5-3.6-3.5
	L37.8,59.8z"/>
<path id="パス_3081" d="M36.1,7l-1.8,0.6c-0.2-0.7-0.5-1.4-0.9-2.1c-1.3-2.4-3.1-3.7-5.4-3.7h0c-0.2,0-0.3,0-0.5,0
	c-0.1-0.1-0.1-0.2-0.2-0.2c-1-1-2.3-1.6-3.7-1.5c-2.9,0.1-5.8,2.2-8.1,5.9c-1.6,2.6-2.7,5.5-3.3,8.5l-5.7,1.8
	c-1.7,0.5-1.7,0.6-2,2.2C4.4,19.5,0,53.6,0,53.6L36.5,60v-53C36.4,6.9,36.3,7,36.1,7z M27.7,9.6l-6.2,1.9c0.5-2.2,1.6-4.3,3.1-6
	c0.6-0.6,1.3-1.2,2.1-1.5C27.4,5.7,27.7,7.7,27.7,9.6L27.7,9.6z M23.7,1.9c0.6,0,1.2,0.1,1.7,0.5c-0.8,0.5-1.6,1-2.3,1.8
	c-2,2.3-3.3,5.1-3.8,8c-1.8,0.5-3.5,1.1-5.1,1.6C15.3,9.1,19.2,2.1,23.7,1.9L23.7,1.9z M18.1,28.5c0.2,3.1,8.4,3.8,8.8,11.1
	c0.4,5.7-3,9.7-7.9,10c-3.3,0.3-6.7-0.8-9.1-3.1l1.2-5.3c0,0,3.3,2.5,5.9,2.3c1.3,0,2.3-1.1,2.3-2.4c0,0,0-0.1,0-0.1
	c-0.3-4.1-6.9-3.8-7.3-10.5c-0.4-5.6,3.3-11.3,11.5-11.8c1.6-0.2,3.2,0,4.7,0.6l-1.9,7c-1.4-0.6-3-0.9-4.5-0.8
	C18.1,25.7,18,28,18.1,28.5L18.1,28.5z M29.6,9c0-1.8-0.3-3.6-0.9-5.3c2.2,0.4,3.3,2.9,3.7,4.4C31.6,8.4,30.6,8.7,29.6,9z"/>
<path id="パス_3082" d="M74,33.8c-1.8-1-2.8-1.8-2.8-3c0-1.5,1.3-2.4,3.4-2.4c1.6,0,3.1,0.4,4.5,1l1.7-5.2c0,0-1.5-1.2-6.1-1.2
	c-6.3,0-10.7,3.6-10.7,8.7c0,2.9,2,5.1,4.8,6.7c2.2,1.3,3,2.2,3,3.5c0,1.4-1.1,2.5-3.2,2.5c-2.1-0.1-4.1-0.6-5.9-1.6L60.8,48
	c2.2,1.2,4.6,1.9,7.1,1.8c6.5,0,11.2-3.2,11.2-9C79.2,37.7,76.8,35.5,74,33.8L74,33.8z"/>
<path id="パス_3083" d="M100,23c-3,0-5.8,1.4-7.7,3.8l-0.1-0.1L95,12.2h-7.3l-7,37.1h7.3l2.4-12.7c0.9-4.8,3.4-7.7,5.7-7.7
	c1.6,0,2.3,1.1,2.3,2.7c0,1.1-0.1,2.2-0.3,3.2l-2.7,14.5h7.3l2.8-15c0.3-1.6,0.5-3.1,0.5-4.7C105.9,25.5,103.7,23,100,23L100,23z"/>
<path id="パス_3084" d="M122.3,23c-8.7,0-14.5,7.9-14.5,16.7c0,5.6,3.5,10.1,10,10.1c8.6,0,14.3-7.7,14.3-16.7
	C132.1,28,129.1,23,122.3,23z M118.7,44.2c-2.5,0-3.5-2.1-3.5-4.7c0-4.2,2.2-10.9,6.1-10.9c2.6,0,3.4,2.2,3.4,4.4
	C124.7,37.4,122.6,44.2,118.7,44.2z"/>
<path id="パス_3085" d="M150.7,23c-4.9,0-7.7,4.3-7.7,4.3h-0.1l0.4-3.9h-6.4c-0.3,2.6-0.9,6.6-1.5,9.6l-5,26.5h7.2l2-10.7h0.2
	c1.3,0.7,2.8,1,4.3,0.9c8.5,0,14.1-8.7,14.1-17.6C158.1,27.4,156,23,150.7,23L150.7,23z M143.7,44.4c-1.1,0-2.2-0.4-3-1.1l1.2-6.8
	c0.8-4.5,3.2-7.5,5.7-7.5c2.2,0,2.9,2,2.9,4C150.6,37.7,147.8,44.4,143.7,44.4z"/>
<path id="パス_3086" d="M168.5,12.6c-2.3,0-4.1,1.8-4.2,4.1c0,0,0,0,0,0.1c-0.2,1.8,1.2,3.5,3,3.6c0.1,0,0.2,0,0.4,0h0.1
	c2.3,0.1,4.2-1.7,4.3-3.9c0-0.1,0-0.2,0-0.3c0.1-1.9-1.4-3.5-3.3-3.6C168.7,12.6,168.6,12.6,168.5,12.6z"/>
<path id="パス_3087" d="M158.3,49.3h7.3l4.9-25.7h-7.3L158.3,49.3z"/>
<path id="パス_3088" d="M189,23.5h-5l0.3-1.2c0.4-2.5,1.9-4.7,4.3-4.7c0.8,0,1.6,0.1,2.3,0.4l1.4-5.7c-1.3-0.5-2.6-0.7-3.9-0.6
	c-2.6-0.1-5.1,0.8-7.1,2.4c-2.5,2.1-3.6,5.2-4.2,8.2l-0.2,1.2h-3.4l-1.1,5.5h3.4l-3.8,20.3h7.3L183,29h5L189,23.5z"/>
<path id="パス_3089" d="M206.4,23.6c0,0-4.5,11.4-6.6,17.7h-0.1c-0.1-2-1.8-17.7-1.8-17.7h-7.6l4.4,23.6c0.1,0.4,0.1,0.8-0.2,1.2
	c-0.9,1.7-2.3,3.2-3.9,4.4c-1.3,0.9-2.6,1.6-4.1,2l2,6.2c2.7-0.7,5.1-2.1,7.1-3.9c3.3-3.1,6.4-7.9,9.5-14.4l8.9-19L206.4,23.6
	L206.4,23.6z"/>
</svg>
