<svg xmlns="http://www.w3.org/2000/svg" width="136.452" height="35.787" viewBox="0 0 136.452 35.787">
  <g id="logo_fitbit" transform="translate(0 -0.324)">
    <path id="パス_3115" data-name="パス 3115" d="M63.682,31.339a3.382,3.382,0,1,0,3.382,3.382,3.382,3.382,0,0,0-3.382-3.382" transform="translate(-32.081 -16.501)" fill="#09382f" fill-rule="evenodd"/>
    <path id="パス_3116" data-name="パス 3116" d="M47.874,32.138a3.007,3.007,0,1,0,3.007,3.007,3.007,3.007,0,0,0-3.007-3.007" transform="translate(-23.87 -16.926)" fill="#09382f" fill-rule="evenodd"/>
    <path id="パス_3117" data-name="パス 3117" d="M47.874,15.829a3.007,3.007,0,1,0,3.007,3.007,3.007,3.007,0,0,0-3.007-3.007" transform="translate(-23.87 -8.249)" fill="#09382f" fill-rule="evenodd"/>
    <path id="パス_3118" data-name="パス 3118" d="M47.874,48.362a3.007,3.007,0,1,0,3.007,3.007,3.007,3.007,0,0,0-3.007-3.007" transform="translate(-23.87 -25.558)" fill="#09382f" fill-rule="evenodd"/>
    <path id="パス_3119" data-name="パス 3119" d="M32.067,32.934A2.632,2.632,0,1,0,34.7,35.567a2.632,2.632,0,0,0-2.633-2.633" transform="translate(-15.661 -17.35)" fill="#09382f" fill-rule="evenodd"/>
    <path id="パス_3120" data-name="パス 3120" d="M32.067,16.628A2.633,2.633,0,1,0,34.7,19.261a2.632,2.632,0,0,0-2.633-2.633" transform="translate(-15.661 -8.674)" fill="#09382f" fill-rule="evenodd"/>
    <path id="パス_3121" data-name="パス 3121" d="M32.067,49.241A2.632,2.632,0,1,0,34.7,51.872a2.632,2.632,0,0,0-2.633-2.631" transform="translate(-15.661 -26.025)" fill="#09382f" fill-rule="evenodd"/>
    <path id="パス_3122" data-name="パス 3122" d="M32.067,65.547A2.632,2.632,0,1,0,34.7,68.179a2.631,2.631,0,0,0-2.633-2.631" transform="translate(-15.661 -34.701)" fill="#09382f" fill-rule="evenodd"/>
    <path id="パス_3123" data-name="パス 3123" d="M32.067.324A2.632,2.632,0,1,0,34.7,2.956,2.631,2.631,0,0,0,32.067.324" transform="translate(-15.661)" fill="#09382f" fill-rule="evenodd"/>
    <path id="パス_3124" data-name="パス 3124" d="M16.26,33.734a2.257,2.257,0,1,0,2.257,2.257,2.257,2.257,0,0,0-2.257-2.257" transform="translate(-7.45 -17.775)" fill="#09382f" fill-rule="evenodd"/>
    <path id="パス_3125" data-name="パス 3125" d="M16.26,49.963a2.257,2.257,0,1,0,2.257,2.257,2.257,2.257,0,0,0-2.257-2.257" transform="translate(-7.45 -26.41)" fill="#09382f" fill-rule="evenodd"/>
    <path id="パス_3126" data-name="パス 3126" d="M16.26,17.5a2.257,2.257,0,1,0,2.257,2.257A2.258,2.258,0,0,0,16.26,17.5" transform="translate(-7.45 -9.139)" fill="#09382f" fill-rule="evenodd"/>
    <path id="パス_3127" data-name="パス 3127" d="M1.883,34.53a1.883,1.883,0,1,0,1.882,1.883A1.883,1.883,0,0,0,1.883,34.53" transform="translate(0 -18.199)" fill="#09382f" fill-rule="evenodd"/>
    <path id="パス_3128" data-name="パス 3128" d="M134.114,11.093a2.259,2.259,0,1,0,2.259,2.259,2.259,2.259,0,0,0-2.259-2.259" transform="translate(-70.151 -5.729)" fill="#09382f" fill-rule="evenodd"/>
    <path id="パス_3129" data-name="パス 3129" d="M236.377,11.093a2.259,2.259,0,1,0,2.26,2.259,2.259,2.259,0,0,0-2.26-2.259" transform="translate(-124.559 -5.729)" fill="#09382f" fill-rule="evenodd"/>
    <path id="パス_3130" data-name="パス 3130" d="M132.835,48.277h3.6V28.1h-3.6Z" transform="translate(-70.673 -14.779)" fill="#09382f" fill-rule="evenodd"/>
    <path id="パス_3131" data-name="パス 3131" d="M235.1,48.277h3.6V28.1h-3.6Z" transform="translate(-125.079 -14.779)" fill="#09382f" fill-rule="evenodd"/>
    <path id="パス_3132" data-name="パス 3132" d="M263.624,22.825v-3.6h-5.3V11.417h-3.6v7.808h-2.9v3.6h2.9V33.618A5.787,5.787,0,0,0,260.5,39.4h3.12V35.8h-2.836a2.392,2.392,0,0,1-2.462-2.536V22.825Z" transform="translate(-133.979 -5.902)" fill="#09382f" fill-rule="evenodd"/>
    <path id="パス_3133" data-name="パス 3133" d="M162.126,22.825v-3.6h-5.3V11.417h-3.6v7.808h-2.9v3.6h2.9V33.618a5.787,5.787,0,0,0,5.781,5.779h3.12V35.8h-2.838a2.392,2.392,0,0,1-2.462-2.536V22.825Z" transform="translate(-79.978 -5.902)" fill="#09382f" fill-rule="evenodd"/>
    <path id="パス_3134" data-name="パス 3134" d="M99.84,12.092v4.16h-2.9v3.6h2.9V36.425h3.6V19.852h5.8v-3.6h-5.8V12.093A2.513,2.513,0,0,1,105.9,9.43h3.337v-3.6H106.1a6.271,6.271,0,0,0-6.264,6.264" transform="translate(-51.575 -2.928)" fill="#09382f" fill-rule="evenodd"/>
    <path id="パス_3135" data-name="パス 3135" d="M194.677,33.119a6.75,6.75,0,1,1,6.539-6.747A6.648,6.648,0,0,1,194.677,33.119Zm.345-17.174a8.578,8.578,0,0,0-6.905,3.212V5.9h-3.679V36.463h3.679V33.588a8.581,8.581,0,0,0,6.905,3.21c5.7,0,9.875-4.47,9.875-10.426h0c0-5.955-4.179-10.423-9.875-10.426Z" transform="translate(-98.127 -2.966)" fill="#09382f" fill-rule="evenodd"/>
    <path id="パス_3136" data-name="パス 3136" d="M285.289,65.53h.45c.254,0,.389-.114.389-.314s-.134-.315-.389-.315h-.45Zm1.033,1.139-.579-.9h-.454v.9h-.246v-2h.7a.564.564,0,0,1,.635.55.51.51,0,0,1-.379.508l.6.945Zm.94-.96a1.541,1.541,0,1,0-1.544,1.555A1.51,1.51,0,0,0,287.261,65.709Zm-3.333,0a1.792,1.792,0,1,1,1.789,1.789A1.739,1.739,0,0,1,283.928,65.709Z" transform="translate(-151.059 -33.835)" fill="#09382f" fill-rule="evenodd"/>
  </g>
</svg>
