<svg xmlns="http://www.w3.org/2000/svg" width="142.533" height="18.472" viewBox="0 0 142.533 18.472">
  <g id="logo_sephora" transform="translate(0 -435.2)">
    <path id="パス_3113" data-name="パス 3113" d="M368.175,455.637c-.314-2.865-3.905-2.651-4.59-2.651h-1.44V458.9c.613.029,1.083.029,1.7.029C364.569,458.929,368.546,459.029,368.175,455.637ZM342.348,452.9c-4.091,0-6.4,3.022-6.4,6.713,0,3.72,2.309,6.713,6.4,6.713s6.4-3.022,6.4-6.713C348.748,455.893,346.41,452.9,342.348,452.9Zm-46.509.185H294.3V459.4h1.81c1.625,0,4.96-.157,4.775-3.35C300.771,452.786,296.552,453.085,295.839,453.085Zm91.107.584-2.765,8.652,5.687-.029-2.893-8.623" transform="translate(-252.353 -15.177)" fill="none"/>
    <path id="パス_3114" data-name="パス 3114" d="M70.326,442.626H61.375v-6.87H58.667V453.2h2.708v-8.267h8.951V453.2h2.68V435.756h-2.68M43.914,435.7c-.983-.029-2.979-.029-4.746-.029v17.517H41.9v-6.642c.684,0,2.1-.057,3.236-.086,1.6-.029,5.758-.827,5.73-5.63.043-5.416-5.958-5.131-6.956-5.131Zm-.143,8.523h-1.81v-6.314H43.5c.713,0,4.917-.314,5.046,2.95.171,3.207-3.15,3.364-4.775,3.364ZM18.658,435.67l.029,17.517H29.675v-2.281H21.423v-5.944h5.844c0-.5-.029-1.226,0-2.181H21.423v-4.775h8.253c-.029-1.383,0-2.338,0-2.338H18.658ZM2.68,439.946c0-2.865,3.791-2.979,6.029-1.14.77-2.209.827-2.366.827-2.366C3.007,433.3.029,437.452.029,440.1c0,6.343,8.994,4.989,7.7,9.45-.456,1.625-3.35,2.551-6.685.527A25.529,25.529,0,0,1,0,452.418c4.4,2.309,10.12,1.2,10.305-3.563.257-5.986-7.626-5.559-7.626-8.908Zm115.509.641c-.4-5.2-5.445-4.8-6.557-4.86-.926-.029-2.893-.057-4.59-.057v17.489h2.737V445.8c.926,0,1.226,0,2.623-.057l4.989,7.412h3.321l-5.516-7.868A4.29,4.29,0,0,0,118.188,440.588Zm-6.713,3.164c-.613,0-1.083,0-1.7-.029v-5.915h1.44c.684,0,4.276-.214,4.59,2.651.385,3.392-3.592,3.293-4.333,3.293Zm24.772-8.053h-3.164l-5.73,17.517h2.708c.855-3.164,1.14-4.062,1.14-4.062l7.084-.029c.827,2.338,1.44,4.119,1.44,4.119h2.808L136.247,435.7Zm-4.419,11.445,2.765-8.652h.029l2.893,8.623ZM90,435.2a9.236,9.236,0,1,0,9.208,9.236A8.916,8.916,0,0,0,90,435.2Zm0,15.949c-4.091,0-6.4-2.979-6.4-6.713,0-3.692,2.309-6.713,6.4-6.713,4.062,0,6.4,2.979,6.4,6.713C96.4,448.128,94.086,451.149,90,451.149Z" fill="#09382f"/>
  </g>
</svg>
