<svg xmlns="http://www.w3.org/2000/svg" width="152.83" height="41.271" viewBox="0 0 152.83 41.271">
  <g id="logo_nescafe_wordmark" transform="translate(-2 -88.5)">
    <path id="パス_3138" data-name="パス 3138" d="M2060.1,88.6a3.883,3.883,0,0,0-2.55,2.889c-.09.275-.262,1.006-.384,1.621a13.426,13.426,0,0,1-2.005,5.35,10.71,10.71,0,0,1-4.164,3.665l-.493.218,3.2-.019a17.819,17.819,0,0,0,3.812-.16,12.051,12.051,0,0,0,3.716-1.5,9.419,9.419,0,0,0,3.088-3.959c.634-1.48.89-2.691,1.333-6.214l.269-1.986-2.742.006A20,20,0,0,0,2060.1,88.6Z" transform="translate(-1917.26)" fill="#09382f" opacity="0.9" style="isolation: isolate"/>
    <path id="パス_3139" data-name="パス 3139" d="M3.73,229.966a8.319,8.319,0,0,0-1.557.314L2,230.35l.032,31.232,5.478.032.032-21.366,10.078,17.907c1.89,3.158,3.434,4.011,7.06,3.889a8.124,8.124,0,0,0,2.326-.308l.173-.07v-26.9l96.183-.179c3.21-.743,5.138-2.127,5.388-3.876l.045-.3H21.732L21.7,251.672l-5.029-8.905-5.542-9.687a8.146,8.146,0,0,0-2.242-2.326,6.1,6.1,0,0,0-1.941-.7,17.827,17.827,0,0,0-3.216-.09Zm54.162,7.957a13.607,13.607,0,0,0-3.133.468,7.691,7.691,0,0,0-3.363,2.044c-1.307,1.73-1.679,5.574-.782,8.021a4.758,4.758,0,0,0,.839,1.461,7.974,7.974,0,0,0,1.711,1.2,28.881,28.881,0,0,0,4.19,1.621,14.89,14.89,0,0,1,3.7,1.531,1.7,1.7,0,0,1,.384,1.441c-.064.993-.308,1.4-1.025,1.666a6.855,6.855,0,0,1-2.7.288,21.608,21.608,0,0,1-5.811-.8l-1.076-.25a13.55,13.55,0,0,0-.064,2.108v2.108l.295.141a16.192,16.192,0,0,0,6.157,1.128c3.607.128,7-.7,8.482-2.076,2.306-2.14,2.473-7.65.295-9.841-1.006-1.006-2.2-1.589-5.843-2.845a23.774,23.774,0,0,1-3.383-1.307,1.47,1.47,0,0,1-.942-1.627,2.453,2.453,0,0,1,.4-1.416,3.959,3.959,0,0,1,2.582-.641,21.9,21.9,0,0,1,6.906.967l.3.09v-4.222l-.461-.218a18.158,18.158,0,0,0-7.65-1.044Zm21.4.051a13.628,13.628,0,0,0-5.151,1.185A5.9,5.9,0,0,0,71,243.035a27.96,27.96,0,0,0-.026,13.858,6.568,6.568,0,0,0,1.916,3.133c1.288,1.089,3.069,1.7,5.734,1.986a27.458,27.458,0,0,0,4.613-.032,6.276,6.276,0,0,0,2.511-.762c.058-.1.948-4.171.923-4.2a5.928,5.928,0,0,0-.756.167,16.316,16.316,0,0,1-4.248.519c-2.441,0-3.671-.429-4.2-1.467-.545-1.083-.724-2.607-.724-6.221,0-5.036.384-6.573,1.787-7.22s4.779-.609,7.047.077c.288.09.545.16.564.16s.038-.935.038-2.076v-2.082l-.513-.192a12.719,12.719,0,0,0-2.435-.615,25.325,25.325,0,0,0-3.946-.1Zm-48.332,8.181.1,8.54a10.725,10.725,0,0,0,.967,3.831,3.492,3.492,0,0,0,.782,1.16c1.435,1.448,3.575,2.153,7.252,2.383a17.581,17.581,0,0,0,7.131-.852l.3-.128v-4.1l-.141.032-.878.205a18.161,18.161,0,0,1-7.131.218c-1.653-.461-2.23-1.6-2.23-4.465v-.846h8.905l-.032-4.389-8.873-.032v-4.869H47.423v-4.357H30.958Zm63.887-6.5c-2.326,4.69-4.312,11.045-6.189,19.861l-.423,2.037a22.732,22.732,0,0,0,2.723.064h2.723l.026-.147c.019-.077.09-.545.167-1.038.128-.871.487-2.832.551-3.062.032-.1.263-.109,3.985-.1l3.946.019.269,1.345.416,2.159.141.82,6.708-.026c0-.115-.75-3.3-1.166-4.94a104.47,104.47,0,0,0-5.7-17.112l-.468-1.019-7.124-.032Zm3.8,5.35a48.291,48.291,0,0,1,1.89,5.145c.275.878.9,3.075.9,3.171,0,.019-1.384.032-3.069.032H95.287l.192-.724c.6-2.23,1.506-5.061,2.306-7.169a8.2,8.2,0,0,1,.506-1.172A5.363,5.363,0,0,1,98.644,245Zm13.5,3.78.019,10.3.173.493a2.716,2.716,0,0,0,.762,1.249c.788.794,2.031,1.16,4.369,1.275l.878.038V252.133h9.418l-.032-4.389-9.386-.032v-4.869h10.315v-4.357H112.123Zm19.207-3.165c0,8.136.038,9.059.416,10.866a10.1,10.1,0,0,0,.807,2.294,5.968,5.968,0,0,0,3.613,2.6,16.775,16.775,0,0,0,4.51.7,17.235,17.235,0,0,0,6.753-.794l.493-.186v-4.107l-.141.032-.878.205a17.914,17.914,0,0,1-3.754.461c-2.691.077-3.985-.2-4.728-1.006-.6-.653-.8-1.4-.858-3.287l-.038-1.262h8.86v-4.421h-8.841v-4.869h10.315v-4.357H131.35ZM152.428,257a2,2,0,0,0-1.55,1.14,1.5,1.5,0,0,0-.205.91,1.886,1.886,0,0,0,.641,1.467,1.842,1.842,0,0,0,1.435.545,1.635,1.635,0,0,0,.9-.16,2.232,2.232,0,0,0,1.025-.993,1.656,1.656,0,0,0,.154-.891,1.52,1.52,0,0,0-.173-.9A2.162,2.162,0,0,0,152.428,257Zm1.025.577a1.646,1.646,0,0,1,.679,2.2,1.563,1.563,0,1,1-.679-2.2Zm-1.326.429c-.147.026-.147.045-.147,1.051v1.019h.448V259.3l.263.019c.295.019.34.07.442.48.07.269.07.275.346.275h.282l-.122-.4a1.353,1.353,0,0,0-.25-.506l-.128-.109.135-.038a.574.574,0,0,0,.256-.6c-.083-.3-.346-.429-.891-.442a4.734,4.734,0,0,0-.634.026Zm.884.4a.267.267,0,0,1,.122.224c0,.179-.167.288-.442.288-.192,0-.2-.006-.2-.288s.006-.288.2-.288A.917.917,0,0,1,153.011,258.411Z" transform="translate(0 -132.369)" fill="#09382f"/>
  </g>
</svg>
