<svg xmlns="http://www.w3.org/2000/svg" width="136.615" height="41.31" viewBox="0 0 136.615 41.31">
  <g id="logo_the_economist" transform="translate(-18.08 -30.822)">
    <path id="パス_3157" data-name="パス 3157" d="M80.5,31.377l.092,3.759-.876.046c-.069-2.3-.554-2.614-4.051-2.614h-.748V45.736c0,1.819.463,2.3,2.254,2.351l.045.629c-1.7-.022-2.982-.022-3.8-.022-.858,0-2.192,0-3.939.022l.045-.629c1.8-.05,2.26-.532,2.26-2.352V32.567h-.875c-3.592,0-4.077.315-4.123,2.615l-.871-.046L66,31.377c3.278.022,5.732.052,7.377.052,1.54,0,3.939-.03,7.122-.052m1.453,16.756c1.626,0,1.845-.315,1.869-2.593V34.557c-.024-2.283-.244-2.6-1.869-2.6l-.049-.582a28.408,28.408,0,0,0,4.711-.554V38.29a4.815,4.815,0,0,1,3.763-1.942c2.375,0,3.687,1.456,3.687,4.221v4.972c.024,2.278.243,2.593,1.865,2.593l.042.582c-1.4-.046-2.464-.1-3.168-.1-.684,0-1.679.051-3.012.1l.051-.582c1.283-.192,1.406-.43,1.43-2.593V41.9c0-3.056-.531-4.071-2.134-4.071a2.469,2.469,0,0,0-2.161,1.4,5.988,5.988,0,0,0-.341.919,1.446,1.446,0,0,0-.022.268v5.12c0,2.162.146,2.4,1.426,2.593l.052.582c-1.359-.046-2.358-.1-3.034-.1-.7,0-1.773.051-3.156.1l.049-.582M99.88,41.008A46.186,46.186,0,0,0,105,40.665c-.292-2.352-1.175-3.469-2.673-3.469-1.456,0-2.208,1.162-2.448,3.812m7.693,5.331c-1.506,1.869-2.983,2.648-4.884,2.648-3.369,0-5.649-2.475-5.649-6.094,0-3.9,2.353-6.546,5.748-6.546a4.38,4.38,0,0,1,4.034,2.111,5.839,5.839,0,0,1,.8,3.47h-7.67c.1,3.638,1.432,5.722,3.649,5.722a4.676,4.676,0,0,0,3.613-1.987l.362.676M18.159,71.133c1.969-.05,2.479-.587,2.479-2.606V55.9c0-2.016-.51-2.552-2.479-2.608l-.078-.651,4.127.052,6.526-.082,1.718.03.107,3.9-1.076.081c-.186-2.444-.642-2.713-4.472-2.713h-.595l-.268.023v7.268c.506,0,.917.028,1.16.028q.618.045,1.239.05c2.105,0,2.591-.452,2.613-2.451h.918C30,60.434,30,61.262,30,62.067c0,.648,0,1.556.027,2.765h-.864c-.106-1.928-.539-2.306-2.559-2.33l-1.457-.03-1.023.054v5.626c0,2.288.134,2.394,2.4,2.394,2.994,0,3.885-.673,4.149-3.236l1.077.057-.62,4.466-2.072.029-6.546-.053-4.427.024.079-.7m27.178-1.207c-1.533,1.587-2.753,2.206-4.526,2.206-3.549,0-5.824-2.769-5.824-6.943,0-4.356,2.4-7.083,6.28-7.083a13.659,13.659,0,0,1,3.648.62L44.96,61.9l-1.211.081c-.45-2.373-.922-2.938-2.483-2.938-2.016,0-3.065,1.754-3.065,5.221,0,4.046,1.259,6.33,3.55,6.33a4.2,4.2,0,0,0,3.185-1.641l.4.967m6.169-4.58c.267,3.8,1.533,5.868,3.6,5.868,1.936,0,3.1-2.013,3.1-5.354,0-3.977-1.593-6.732-3.8-6.732-1.962,0-2.962,1.651-2.962,5.012a8.626,8.626,0,0,0,.056,1.207m-3.294.3v-.408c0-4.54,2.446-7.131,6.6-7.131,3.858,0,6.6,2.861,6.6,7.024s-2.665,7-6.681,7c-3.833,0-6.388-2.582-6.523-6.487M64.595,71.19c1.755,0,2.022-.351,2.022-2.875v-6.2c0-2.452-.267-2.8-2.022-2.829l-.054-.617a24.709,24.709,0,0,0,4.929-.648l.138,2.382c1.533-1.682,2.717-2.3,4.312-2.3,2.614,0,4.09,1.7,4.09,4.69v5.52a5.645,5.645,0,0,0-.024.644c0,1.72.456,2.231,2.1,2.231l.053.643c-1.56-.051-2.745-.107-3.526-.107-.752,0-1.883.055-3.317.107l.047-.643c1.387-.217,1.546-.483,1.546-2.875l.029-1.649v-2.4c0-3.383-.62-4.468-2.323-4.468a2.759,2.759,0,0,0-2.477,1.514,3.767,3.767,0,0,0-.4,1.317v5.682c.026,2.392.162,2.658,1.586,2.875l.083.643c-1.507-.051-2.637-.107-3.391-.107-.784,0-1.933.055-3.454.107l.054-.643m21.147-5.843c.271,3.8,1.532,5.868,3.561,5.868,1.937,0,3.1-2.013,3.1-5.354,0-3.977-1.587-6.732-3.778-6.732-1.934,0-2.93,1.651-2.93,5.012a9.567,9.567,0,0,0,.051,1.207m-3.336.3v-.408c0-4.54,2.452-7.131,6.606-7.131,3.9,0,6.642,2.861,6.642,7.024s-2.663,7-6.723,7c-3.807,0-6.389-2.582-6.525-6.487M98.663,71.19c1.807,0,2.076-.351,2.076-2.875v-6.2c0-2.452-.269-2.8-2.076-2.829l-.054-.617a24.528,24.528,0,0,0,4.968-.648l.12,2.382c1.514-1.654,2.7-2.3,4.287-2.3a3.592,3.592,0,0,1,3.667,2.511c1.644-1.84,2.852-2.511,4.5-2.511,2.539,0,3.961,1.722,3.961,4.69v5.52c0,.211-.027.428-.027.644,0,1.72.487,2.231,2.1,2.231l.058.643c-1.563-.051-2.746-.107-3.5-.107-.729,0-1.837.055-3.314.107l.053-.643c1.424-.217,1.56-.483,1.586-2.875V64.27c0-3.331-.586-4.468-2.259-4.468a2.784,2.784,0,0,0-2.449,1.514A5.588,5.588,0,0,0,112,62.338a2.358,2.358,0,0,0-.056.295v5.682c0,2.392.162,2.658,1.586,2.875l.058.643c-1.427-.051-2.475-.107-3.187-.107s-1.749.055-3.149.107l.056-.643c1.426-.217,1.56-.483,1.583-2.875V64.27c0-3.331-.589-4.468-2.26-4.468a2.768,2.768,0,0,0-2.446,1.514,3.83,3.83,0,0,0-.39,1.317v5.682c.027,2.392.147,2.658,1.575,2.875l.054.643c-1.481-.051-2.568-.107-3.318-.107-.784,0-1.938.055-3.5.107l.054-.643M126.3,53.54a1.778,1.778,0,0,1,1.78-1.784,1.81,1.81,0,0,1,1.8,1.784,1.792,1.792,0,0,1-1.8,1.827,1.758,1.758,0,0,1-1.78-1.827m3.447,4.485v8.641l.025,1.649c0,2.524.247,2.874,2.073,2.874l.056.644c-1.671-.051-2.881-.106-3.714-.106-.806,0-1.986.055-3.615.106l.051-.644c1.777,0,2.03-.35,2.03-2.874l.025-1.649V63.842l-.025-1.722c0-2.453-.254-2.8-2.03-2.83l-.051-.618a33.133,33.133,0,0,0,5.174-.648m5.395,13.327-.106-2.747,1.37-.05c.62,2.071,1.025,2.472,2.452,2.472,1.235,0,2.045-.643,2.045-1.61,0-.918-.564-1.585-2.263-2.724-.859-.592-1.45-1-1.772-1.238a4.355,4.355,0,0,1-1.483-1.908,4.058,4.058,0,0,1,3.955-5.441,13.455,13.455,0,0,1,3.615.592l.058,2.671-1.368.056c-.3-1.758-.851-2.377-2.114-2.377-1.211,0-2.074.7-2.074,1.648s.434,1.5,1.832,2.392a25.264,25.264,0,0,1,2.887,2.178,3.641,3.641,0,0,1,1.187,2.656,4.335,4.335,0,0,1-4.559,4.21,11.607,11.607,0,0,1-3.662-.78m11.071-12.464c2.122-.163,2.925-1.074,3.534-3.874h1.21v3.631h3.393l-.379,1.478h-3.014v6.569c0,3.263.433,4.039,2.262,4.039a4.994,4.994,0,0,0,1.48-.239v.778a7.327,7.327,0,0,1-3.468.806,3.041,3.041,0,0,1-2.756-1.667,7.289,7.289,0,0,1-.537-3.449V60.124h-1.725V58.888" fill="#09382f" fill-rule="evenodd"/>
  </g>
</svg>
