<svg id="logo_kylie" xmlns="http://www.w3.org/2000/svg" width="92.195" height="42.491" viewBox="0 0 92.195 42.491">
  <path id="パス_3140" data-name="パス 3140" d="M13.927,0h6.984L12.4,14.262l8.509,17.533H13.727L6.462,15.52h-.08V31.795H0V0H6.382V13.59h.08Z" fill="#09382f"/>
  <path id="パス_3141" data-name="パス 3141" d="M19.876,20.805,11.929,0h6.944l4.535,13.423L28.265,0h6.5L26.258,20.805v10.99H19.876Z" transform="translate(8.822)" fill="#09382f"/>
  <path id="パス_3142" data-name="パス 3142" d="M26.927,31.795V0h6.382V26.51h9.512v5.285Z" transform="translate(19.913)" fill="#09382f"/>
  <path id="パス_3143" data-name="パス 3143" d="M44.222,0H37.84V31.795h6.382Z" transform="translate(27.983)" fill="#09382f"/>
  <path id="パス_3144" data-name="パス 3144" d="M43.263,31.795V0H59.88V4.908H49.6v7.844h9.472v4.866H49.6v9.312H60.2v4.866Z" transform="translate(31.994)" fill="#09382f"/>
  <path id="パス_3145" data-name="パス 3145" d="M28.946,20.545V25.7c0,.965-.722,1.594-1.967,1.594s-1.806-.545-1.806-1.762v-.545h1.365v.545c0,.5.121.8.522.8s.562-.21.562-.839v-4.95Z" transform="translate(18.616 15.193)" fill="#09382f"/>
  <path id="パス_3146" data-name="パス 3146" d="M13.392,20.545v2.81l1.565-2.81H16.4l-1.766,2.978L16.4,27.172H14.917l-1.525-3.356v3.356H12.067V20.545Z" transform="translate(8.924 15.193)" fill="#09382f"/>
  <path id="パス_3147" data-name="パス 3147" d="M16.05,20.545l.963,2.81,1-2.81h1.365L17.616,24.74v2.433H16.251V24.74l-1.646-4.195Z" transform="translate(10.801 15.193)" fill="#09382f"/>
  <path id="パス_3148" data-name="パス 3148" d="M18.993,20.545v5.537H20.96v1.091H17.628V20.545Z" transform="translate(13.036 15.193)" fill="#09382f"/>
  <path id="パス_3149" data-name="パス 3149" d="M21.237,20.545v6.628H19.913V20.545Z" transform="translate(14.726 15.193)" fill="#09382f"/>
  <path id="パス_3150" data-name="パス 3150" d="M24.472,20.545v1.007H22.344v1.636h1.967v1.049H22.344v1.929h2.208v1.049H21.02V20.545Z" transform="translate(15.545 15.193)" fill="#09382f"/>
  <path id="パス_3151" data-name="パス 3151" d="M31.18,20.545v1.007H29.053v1.636h1.967v1.049H29.053v1.929H31.26v1.049H27.688V20.545Z" transform="translate(20.476 15.193)" fill="#09382f"/>
  <path id="パス_3152" data-name="パス 3152" d="M31.854,20.545l1.686,4.614V20.545h1.244v6.628H33.058l-1.726-4.866v4.866H30.088V20.545Z" transform="translate(22.25 15.193)" fill="#09382f"/>
  <path id="パス_3153" data-name="パス 3153" d="M34.923,20.545l1.686,4.614V20.545h1.244v6.628H36.127L34.4,22.307v4.866H33.157V20.545Z" transform="translate(24.52 15.193)" fill="#09382f"/>
  <path id="パス_3154" data-name="パス 3154" d="M39.677,20.545v1.007H37.55v1.636h1.967v1.049H37.55v1.929h2.208v1.049H36.226V20.545Z" transform="translate(26.789 15.193)" fill="#09382f"/>
  <path id="パス_3155" data-name="パス 3155" d="M40.81,20.545c1.164,0,1.726.545,1.726,1.762,0,.965-.361,1.468-1.164,1.636.763.126,1.084.377,1.124,1.3l.08,1.133a6.755,6.755,0,0,0,.08.839H41.371a1.332,1.332,0,0,1-.161-.713V25.495c0-.8-.281-1.007-1.044-1.007h-.241v2.768H38.6V20.545Zm-.883,2.894h.321c.6,0,.963-.126.963-.965,0-.8-.321-.923-.963-.923h-.281v1.888Z" transform="translate(28.547 15.193)" fill="#09382f"/>
</svg>
