<?xml version="1.0" encoding="utf-8"?>
<!-- Generator: Adobe Illustrator 27.1.1, SVG Export Plug-In . SVG Version: 6.00 Build 0)  -->
<svg version="1.1" id="ShopifyPlus_Primary" xmlns="http://www.w3.org/2000/svg" xmlns:xlink="http://www.w3.org/1999/xlink"
	 x="0px" y="0px" viewBox="0 0 305.7 62.2" style="enable-background:new 0 0 305.7 62.2;" xml:space="preserve">
<style type="text/css">
	.st0{fill-rule:evenodd;clip-rule:evenodd;fill:#09382F;}
</style>
<path id="パス_3036" class="st0" d="M233.4,48.4c-5.7,0-8-3.9-6.5-11.2c1.4-7.4,5.1-11.2,10.7-11.2c6.2,0,8.5,3.7,7,11.2
	C243.1,44.8,239.6,48.4,233.4,48.4z M238.2,23.5c-3.5-0.1-7,1.3-9.4,3.9l0.4-2.3c0.1-0.6-0.2-1.2-0.8-1.3c-0.1,0-0.2,0-0.3,0
	c-0.8,0-1.4,0.6-1.6,1.3l-6.7,34.6c-0.1,0.6,0.2,1.2,0.8,1.3c0.1,0,0.2,0,0.3,0c0.8,0,1.4-0.6,1.6-1.3l2.5-12.8
	c0.9,1.6,3.1,3.9,7.8,3.9c3.4,0.1,6.8-1.1,9.3-3.4c2.5-2.3,4.3-5.8,5.1-10.3s0.5-7.9-1.1-10.2C244.7,24.7,242,23.5,238.2,23.5
	L238.2,23.5z"/>
<g id="グループ_15" transform="translate(283.286 23.52)">
	<path id="パス_3037" class="st0" d="M13,12.1c-3.4-1.2-6.6-2.4-6-5.5C7.3,5,8.6,2.4,13.8,2.4c2.9,0,4.7,0.8,6.3,2.7
		c0.2,0.2,0.5,0.4,0.8,0.4c0.7,0,1.3-0.5,1.5-1.2c0.1-0.3,0-0.6-0.2-0.8l0,0C20.6,1.2,17.9,0,14.3,0C9,0,5.2,2.5,4.4,6.6
		c-1,4.9,3.4,6.5,7.3,8c3.3,1.2,6.5,2.4,5.9,5.4c-0.8,4.2-5.3,4.9-7.9,4.9c-3.6,0-5.8-1-7.4-3.2l0,0c-0.2-0.2-0.5-0.4-0.8-0.4
		c-0.7,0-1.3,0.5-1.5,1.2c0,0.2,0,0.5,0.2,0.8c1.1,2,4.3,4,9,4c6,0,10.1-2.7,11-7.3C21.2,15.1,16.8,13.6,13,12.1z"/>
</g>
<g id="グループ_16" transform="translate(0 0)">
	<path id="パス_3038" class="st0" d="M288.2,16.7h-2.8l0.5-2.8c0.1-0.6-0.2-1.2-0.8-1.3c-0.1,0-0.2,0-0.3,0
		c-0.8,0-1.4,0.6-1.6,1.3l-0.5,2.8h-2.8c-0.8,0-1.4,0.6-1.6,1.3c-0.1,0.6,0.2,1.2,0.8,1.3c0.1,0,0.2,0,0.3,0h2.8l-0.5,2.8
		c-0.1,0.6,0.2,1.2,0.8,1.3c0.1,0,0.2,0,0.3,0c0.8,0,1.4-0.6,1.6-1.3l0.5-2.8h2.8c0.8,0,1.4-0.6,1.6-1.3c0.1-0.6-0.2-1.2-0.8-1.3
		C288.4,16.7,288.3,16.7,288.2,16.7z"/>
	<path id="パス_3039" class="st0" d="M64.8,43.5c1.9,1,4,1.6,6.2,1.6c2.1,0,3.3-1.1,3.3-2.5s-0.8-2.3-3.1-3.6
		c-2.8-1.6-5-3.9-5-6.9c0-5.3,4.5-9,11.2-9c2.2-0.1,4.4,0.3,6.3,1.2l-1.8,5.3c-1.5-0.7-3.1-1-4.7-1c-2.1,0-3.5,1-3.5,2.5
		c0,1.2,1,2.1,2.9,3.1c3,1.7,5.4,4,5.4,7.1c0,6-4.9,9.3-11.7,9.3c-2.6,0-5.2-0.6-7.4-1.8L64.8,43.5z"/>
	<path id="パス_3040" class="st0" d="M83.5,50.5l7.3-37.9h7.5l-2.9,14.7l0.1-0.1c1.9-2.5,4.8-4,8-4c3.9,0,6.2,2.5,6.2,6.7
		c0,1.7-0.2,3.4-0.5,5l-3,15.6h-7.5l2.8-15.1c0.2-1.1,0.3-2.3,0.3-3.4c0-1.6-0.7-2.8-2.4-2.8c-2.4,0-5,3.2-6,8.1l-2.5,13.2
		L83.5,50.5L83.5,50.5z"/>
	<path id="パス_3041" class="st0" d="M119.5,40.1c0,2.7,1.1,4.9,3.7,4.9c4,0,6.2-7,6.2-11.6c0-2.2-0.9-4.5-3.6-4.5
		C121.7,28.9,119.5,35.8,119.5,40.1z M137.1,33.6c0,9.3-6,17.2-14.9,17.2c-6.8,0-10.4-4.7-10.4-10.4c0-9,6-17.2,15.1-17.2
		C133.9,23.1,137.1,28.2,137.1,33.6L137.1,33.6z"/>
	<path id="パス_3042" class="st0" d="M146.1,44c0.9,0.7,2,1.1,3.1,1.1c4.2,0,7.1-6.9,7.1-11.7c0-2-0.7-4.1-3-4.1
		c-2.6,0-5.1,3.1-6,7.7L146.1,44z M135.3,61.1l5.2-27.3c0.6-3.1,1.2-7.1,1.5-9.9h6.7l-0.4,4.2h0.1c2-2.8,5-4.7,8-4.7
		c5.5,0,7.8,4.4,7.8,9.4c0,9.1-5.8,18.1-14.7,18.1c-1.5,0.1-3.1-0.2-4.4-1h-0.2l-2.1,11.2L135.3,61.1z"/>
	<path id="パス_3043" class="st0" d="M174.2,21c-2.1,0-3.6-1.8-3.6-4c0-2.4,1.9-4.4,4.3-4.5c2.1,0,3.8,1.6,3.8,3.7
		c0,0.1,0,0.2,0,0.2c0.1,2.4-1.9,4.5-4.3,4.5L174.2,21L174.2,21z M164.4,50.5l5.1-26.7h7.6L172,50.5H164.4z"/>
	<path id="パス_3044" class="st0" d="M178.5,50.5l4-21.1H179l1.1-5.6h3.5l0.2-1.3c0.6-3.1,1.8-6.3,4.4-8.5
		c2.1-1.7,4.7-2.6,7.4-2.5c1.4-0.1,2.8,0.2,4.1,0.6l-1.5,5.8c-0.8-0.3-1.6-0.4-2.4-0.4c-2.5,0-4,2.4-4.5,4.9l-0.3,1.3h5.2l-1,5.6
		H190l-4,21.1L178.5,50.5z"/>
	<path id="パス_3045" class="st0" d="M205.6,23.9l1.2,11.9c0.3,2.7,0.5,4.9,0.7,6.3h0.1c0.6-1.4,1.1-3.5,2.2-6.4l4.6-11.9h7.9
		l-9.2,19.5c-3.3,6.7-6.5,11.6-9.9,14.8c-2.1,1.9-4.6,3.3-7.4,4l-2.1-6.3c1.5-0.5,3-1.2,4.3-2.1c1.7-1.1,3.1-2.7,4.1-4.5
		c0.2-0.3,0.3-0.8,0.2-1.2l-4.5-24.2L205.6,23.9z"/>
	<path id="パス_3046" class="st0" d="M282.1,26.4c-0.8,0-1.4,0.6-1.6,1.3L278,40.8c-1.4,6.7-5.5,7.6-9.4,7.6c-7,0-7.2-3.9-6.4-7.8
		l3-15.4c0.1-0.6-0.2-1.2-0.8-1.3c-0.1,0-0.2,0-0.3,0c-0.8,0-1.4,0.6-1.6,1.3l-3,15.4c-0.6,3.1-0.4,5.4,0.7,7.1c1.3,2.1,4,3.1,8,3.1
		s7-1.1,9.2-3.1c1.8-2,3-4.4,3.4-7.1l2.5-12.9c0.1-0.6-0.2-1.2-0.8-1.3C282.2,26.4,282.1,26.4,282.1,26.4z"/>
	<path id="パス_3047" class="st0" d="M258,12.7c-0.8,0-1.4,0.6-1.6,1.3l-6.8,35.2c-0.1,0.6,0.2,1.2,0.8,1.3c0.1,0,0.2,0,0.3,0
		c0.8,0,1.4-0.6,1.6-1.3L259,14c0.1-0.6-0.2-1.2-0.8-1.3C258.2,12.7,258.1,12.7,258,12.7z"/>
	<path id="パス_3048" class="st0" d="M30.4,9.2c0-1.8-0.3-3.6-0.9-5.4c2.3,0.4,3.4,3,3.8,4.5L30.4,9.2z M18.5,29
		c0.2,3.2,8.6,3.9,9.1,11.3c0.4,5.8-3.1,9.8-8.2,10.1c-3.4,0.3-6.8-0.8-9.4-3.2l1.3-5.4c0,0,3.3,2.5,6,2.3c1.3,0,2.3-1.1,2.3-2.4
		v-0.1c-0.3-4.1-7.1-3.9-7.5-10.7c-0.4-5.7,3.4-11.5,11.8-12c1.6-0.2,3.3,0,4.9,0.6l-1.9,7.1c-1.5-0.6-3.1-0.9-4.7-0.8
		C18.5,26.1,18.5,28.4,18.5,29L18.5,29z M24.3,2c0.6,0,1.3,0.1,1.8,0.5c-0.9,0.5-1.7,1.1-2.3,1.8c-2,2.3-3.4,5.1-3.9,8.1L14.7,14
		C15.7,9.2,19.7,2.1,24.3,2L24.3,2z M28.4,9.8l-6.3,1.9c0.6-2.3,1.7-4.4,3.2-6.1c0.6-0.7,1.3-1.2,2.1-1.5
		C28.2,5.8,28.5,7.8,28.4,9.8L28.4,9.8z M37.1,7.1l-1.8,0.6c-0.2-0.7-0.5-1.5-0.9-2.1c-1.3-2.5-3.2-3.8-5.5-3.8l0,0
		c-0.2,0-0.3,0-0.5,0c-0.1-0.1-0.1-0.2-0.2-0.2c-1-1.1-2.4-1.6-3.8-1.5c-3,0.1-6,2.2-8.4,6c-1.7,2.6-2.8,5.5-3.4,8.6
		c-3.4,1-5.8,1.8-5.9,1.8c-1.7,0.5-1.8,0.6-2,2.2C4.5,19.8,0,54.5,0,54.5l37.5,6.4V7C37.4,7,37.2,7.1,37.1,7.1L37.1,7.1z"/>
	<path id="パス_3049" class="st0" d="M38.8,60.7l15.6-3.8c0,0-6.7-44.9-6.7-45.2c0-0.3-0.3-0.5-0.5-0.5s-4.6-0.1-4.6-0.1
		s-2.7-2.6-3.7-3.5L38.8,60.7z"/>
</g>
</svg>
