<svg xmlns="http://www.w3.org/2000/svg" width="117.087" height="107.813" viewBox="0 0 117.087 107.813">
  <path id="パス_3051" data-name="パス 3051" d="M505.31,427.62c-22.036-21.572-43.7-42.2-56.082-70.191-5.1-11.535-3.587-20.222,2.861-25.756,7.494-6.427,18-6.936,28.2.412,8.827,6.353,16.541,14.263,25.148,21.837,3.513-3.8,8.154-9.762,13.743-14.64,7.17-6.256,14.567-12.609,22.832-17.166,11.186-6.169,21.541.6,21.237,13.4a45.105,45.105,0,0,1-3.758,16.824c-12.679,28.526-33.089,51.5-54.187,75.281" transform="translate(-446.174 -319.807)" fill="#008060"/>
</svg>
