<?xml version="1.0" encoding="utf-8"?>
<!-- Generator: Adobe Illustrator 27.1.1, SVG Export Plug-In . SVG Version: 6.00 Build 0)  -->
<svg version="1.1" id="ShopifyExpert_Primary_Wordmark"
	 xmlns="http://www.w3.org/2000/svg" xmlns:xlink="http://www.w3.org/1999/xlink" x="0px" y="0px" viewBox="0 0 287 47.8"
	 style="enable-background:new 0 0 287 47.8;" xml:space="preserve">
<style type="text/css">
	.st0{clip-path:url(#SVGID_00000183243103507439524530000000233488421636605881_);}
	.st1{fill:#09382F;}
</style>
<g>
	<defs>
		<rect id="SVGID_1_" width="287" height="47.8"/>
	</defs>
	<clipPath id="SVGID_00000046298703224676662630000008935084288453961865_">
		<use xlink:href="#SVGID_1_"  style="overflow:visible;"/>
	</clipPath>
	
		<g id="グループ_105-2" transform="translate(0 0)" style="clip-path:url(#SVGID_00000046298703224676662630000008935084288453961865_);">
		<path id="パス_3388" class="st1" d="M29.4,46.5l11.8-2.9c0,0-5.1-34.3-5.1-34.6c0-0.2-0.2-0.4-0.4-0.4c-0.2,0-3.5-0.1-3.5-0.1
			s-2-2-2.8-2.7L29.4,46.5z"/>
		<path id="パス_3389" class="st1" d="M23,7c0-1.4-0.2-2.8-0.7-4.1c1.7,0.3,2.6,2.3,2.9,3.4C24.6,6.5,23.8,6.7,23,7 M14,22.2
			c0.2,2.4,6.5,2.9,6.9,8.6c0.3,4.5-2.4,7.5-6.2,7.7c-2.6,0.2-5.2-0.6-7.1-2.4l1-4.1c0,0,2.5,1.9,4.6,1.8c1,0,1.8-0.8,1.8-1.8
			c0,0,0-0.1,0-0.1c-0.2-3.2-5.4-3-5.7-8.1c-0.3-4.4,2.6-8.8,8.9-9.2c1.2-0.1,2.5,0,3.7,0.5l-1.4,5.4c-1.1-0.5-2.3-0.7-3.5-0.6
			C14,20,14,21.7,14,22.2 M18.4,1.5c0.5,0,1,0.1,1.4,0.4c-0.7,0.4-1.3,0.8-1.8,1.4c-1.5,1.8-2.6,3.9-3,6.2l-3.9,1.2
			C11.9,7.1,14.9,1.6,18.4,1.5 M21.5,7.5L16.7,9c0.4-1.7,1.3-3.3,2.4-4.7c0.5-0.5,1-0.9,1.6-1.2C21.3,4.5,21.6,6,21.5,7.5 M28.1,5.4
			l-1.4,0.4c-0.2-0.6-0.4-1.1-0.7-1.6c-0.7-1.7-2.3-2.8-4.2-2.9h0c-0.1,0-0.2,0-0.4,0c0-0.1-0.1-0.1-0.2-0.2
			c-0.7-0.8-1.8-1.2-2.9-1.2c-2.3,0.1-4.5,1.7-6.3,4.6c-1.3,2-2.1,4.2-2.5,6.6l-4.5,1.4C3.8,13,3.7,13,3.5,14.2
			C3.4,15.2,0,41.7,0,41.7l28.4,4.9V5.4C28.3,5.4,28.2,5.4,28.1,5.4"/>
		<path id="パス_3390" class="st1" d="M174,36.3c1.1,0.8,2.5,1.2,3.9,1.1c5.3,0,8.9-7.5,8.9-12.6c0-2.4-0.9-5-3.9-5
			c-2.8,0-6.5,3.6-7.6,9.6L174,36.3z M170.2,46.8l4-21.2c0.5-2.7,0.9-5,1.1-6.9h1.7l-0.6,4h0.1c1.8-2.7,4.3-4.4,6.9-4.4
			c3.8,0,5.2,3.2,5.2,6.5c0,6.7-4.6,14.3-11,14.3c-1.4,0.1-2.8-0.2-4-0.9h-0.1l-1.6,8.6L170.2,46.8z"/>
		<path id="パス_3391" class="st1" d="M205,20.2c-0.8-0.2-1.6-0.3-2.4-0.3c-5.7,0-10.2,6.4-10.3,12.7c0,2.6,0.7,4.9,3.4,4.9
			c3.2,0,6.9-4.9,7.9-10L205,20.2z M202.4,38.6c0-1.8,0.2-3.6,0.5-5.4h-0.1c-2.3,4.4-4.8,5.8-7.4,5.8c-3,0-4.9-2.5-4.9-6.1
			c0-6.8,4.9-14.7,12.6-14.7c1.4,0,2.7,0.2,4,0.6L205,29.6c-0.6,3-0.9,6-0.9,9H202.4z"/>
		<path id="パス_3392" class="st1" d="M208.8,38.6l2.5-13.4c0.4-2.2,0.7-4.3,1-6.5h1.7c-0.2,1.3-0.3,2.6-0.6,4.3h0.1
			c1.2-2.7,3.2-4.7,5.7-4.7c0.3,0,0.5,0,0.8,0.1l-0.3,1.9c-0.2-0.1-0.5-0.1-0.7-0.1c-2.6,0-5.5,3.9-6.4,8.4l-1.9,10.1L208.8,38.6z"
			/>
		<path id="パス_3393" class="st1" d="M227.5,14.3l-0.9,4.4h4.7l-0.3,1.5h-4.7l-2.2,11.9c-0.2,1.1-0.4,2.3-0.4,3.4
			c0,1.2,0.5,1.9,1.8,1.9c0.5,0,1,0,1.5-0.2l0.1,1.5c-0.6,0.2-1.3,0.3-2,0.3c-1.7,0.2-3.1-1.1-3.3-2.7c0-0.2,0-0.3,0-0.5
			c0-1.2,0.2-2.5,0.5-3.7l2.2-11.9h-2.9l0.3-1.5h2.9l0.7-3.6L227.5,14.3z"/>
		<path id="パス_3394" class="st1" d="M230.8,38.6l2.7-14.1c0.4-1.9,0.7-3.9,0.9-5.9h1.7l-0.5,4.1h0.1c1.7-2.9,4.2-4.5,6.9-4.5
			c2,0,4.4,1.2,4.4,5c0,1-0.2,2.1-0.4,3.1l-2.3,12.3h-1.8l2.3-12.3c0.2-1,0.3-1.9,0.3-2.9c0-2.1-0.8-3.6-3.3-3.6
			c-2.7,0-6.4,3.3-7.3,8.1l-2,10.6L230.8,38.6z"/>
		<path id="パス_3395" class="st1" d="M259.3,19.9c-3.1,0-5.9,3.3-7.1,7.6c5.2,0,10.2-0.8,10.2-4.8
			C262.4,20.8,261.2,19.9,259.3,19.9 M261.6,37.5c-1.6,1-3.5,1.5-5.4,1.5c-4.7,0-6.3-3.7-6.3-7.5c0-5.7,4-13.3,9.7-13.3
			c3.3,0,4.7,2.2,4.7,4.4c0,5.1-5.8,6.5-12.3,6.4c-0.2,1.6-0.2,3.3,0.2,4.9c0.4,2,2.3,3.5,4.4,3.4c1.6,0,3.2-0.5,4.6-1.3L261.6,37.5
			z"/>
		<path id="パス_3396" class="st1" d="M265.3,38.6l2.5-13.4c0.5-2.5,0.8-4.8,1-6.5h1.7c-0.2,1.3-0.3,2.6-0.6,4.3h0.1
			c1.2-2.7,3.2-4.7,5.7-4.7c0.3,0,0.5,0,0.8,0.1l-0.3,1.9c-0.2-0.1-0.5-0.1-0.7-0.1c-2.6,0-5.5,3.9-6.4,8.4l-1.9,10.1L265.3,38.6z"
			/>
		<path id="パス_3397" class="st1" d="M275.5,36.3c1.1,0.7,2.3,1.1,3.5,1.1c2.3,0.1,4.2-1.6,4.4-3.9c0-0.1,0-0.1,0-0.2
			c0-2-0.8-3.2-2.7-4.4c-1.8-1-2.9-2.9-3-4.9c0-3.2,2.6-5.7,5.8-5.7c0.1,0,0.1,0,0.2,0c1.2,0,2.3,0.3,3.3,0.9l-0.7,1.5
			c-0.9-0.5-1.9-0.8-2.9-0.8c-2.1-0.1-3.8,1.4-4,3.5c0,0.1,0,0.2,0,0.3c0,1.9,1,2.9,2.7,4c1.8,1.1,3,3,3.1,5.1
			c0.1,3.3-2.4,6.1-5.8,6.3c-0.2,0-0.4,0-0.6,0c-1.4,0-2.8-0.4-4-1.2L275.5,36.3z"/>
		<path id="パス_3398" class="st1" d="M58,26.5c-1.4-0.8-2.2-1.4-2.2-2.3c0-1.2,1-1.9,2.6-1.9c1.2,0,2.4,0.3,3.5,0.8l1.3-4
			c0,0-1.2-0.9-4.8-0.9c-5,0-8.4,2.8-8.4,6.8c0,2.3,1.6,4,3.8,5.2c1.7,1,2.3,1.7,2.3,2.7c0,1.1-0.9,1.9-2.5,1.9
			c-1.6-0.1-3.2-0.5-4.7-1.2l-1.4,4c1.7,1,3.6,1.5,5.6,1.4c5.1,0,8.8-2.5,8.8-7C62.1,29.5,60.2,27.8,58,26.5"/>
		<path id="パス_3399" class="st1" d="M78.4,18c-2.4,0-4.6,1.1-6,3l-0.1,0l2.2-11.4h-5.7l-5.5,29.1h5.7l1.9-9.9
			c0.7-3.8,2.7-6.1,4.5-6.1c1.3,0,1.8,0.9,1.8,2.1c0,0.8-0.1,1.7-0.2,2.5l-2.1,11.4h5.7l2.2-11.7c0.2-1.2,0.4-2.5,0.4-3.7
			C83,20,81.3,18,78.4,18"/>
		<path id="パス_3400" class="st1" d="M93.1,34.7c-1.9,0-2.8-1.6-2.8-3.7c0-3.3,1.7-8.6,4.8-8.6c2,0,2.7,1.7,2.7,3.4
			C97.8,29.3,96.1,34.7,93.1,34.7L93.1,34.7z M95.9,18c-6.8,0-11.4,6.2-11.4,13.1c0,4.4,2.7,8,7.8,8c6.7,0,11.2-6,11.2-13.1
			C103.6,21.9,101.2,18,95.9,18"/>
		<path id="パス_3401" class="st1" d="M112.7,34.8c-0.9,0-1.7-0.3-2.3-0.8l0.9-5.3c0.7-3.5,2.5-5.9,4.5-5.9c1.7,0,2.3,1.6,2.3,3.1
			C118,29.5,115.9,34.8,112.7,34.8 M118.1,18c-3.8,0-6,3.4-6,3.4H112l0.3-3h-5c-0.2,2.1-0.7,5.2-1.2,7.5l-4,20.8h5.7l1.6-8.4h0.1
			c1,0.5,2.2,0.8,3.3,0.7c6.7,0,11-6.8,11-13.8C124,21.5,122.3,18,118.1,18"/>
		<path id="パス_3402" class="st1" d="M132.1,9.9c-0.4,0-0.9,0.1-1.3,0.2c-0.4,0.2-0.8,0.4-1.1,0.7c-0.6,0.6-0.9,1.5-0.9,2.3
			c-0.1,1.4,0.9,2.7,2.4,2.8c0.1,0,0.2,0,0.3,0h0.1c1.8,0.1,3.3-1.3,3.3-3.1c0-0.1,0-0.1,0-0.2c0.1-1.5-1.1-2.8-2.6-2.8
			C132.3,9.9,132.2,9.9,132.1,9.9"/>
		<path id="パス_3403" class="st1" d="M124.1,38.6h5.7l3.9-20.2H128L124.1,38.6z"/>
		<path id="パス_3404" class="st1" d="M148.2,18.5h-4l0.2-0.9c0.3-1.9,1.5-3.7,3.4-3.7c0.6,0,1.2,0.1,1.8,0.3l1.1-4.4
			c-1-0.4-2-0.6-3.1-0.5c-2-0.1-4,0.6-5.6,1.9c-1.8,1.7-3,4-3.3,6.4l-0.2,0.9H136l-0.8,4.3h2.6l-3,15.9h5.7l3-15.9h3.9L148.2,18.5z"
			/>
		<path id="パス_3405" class="st1" d="M161.8,18.5c0,0-3.6,9-5.1,13.8h-0.1c-0.1-1.6-1.4-13.8-1.4-13.8h-6l3.4,18.5
			c0.1,0.3,0,0.7-0.1,0.9c-0.7,1.4-1.8,2.5-3.1,3.4c-1,0.7-2.1,1.2-3.2,1.6l1.6,4.8c2.1-0.6,4-1.6,5.6-3.1c2.6-2.4,5-6.2,7.5-11.3
			l7-14.9L161.8,18.5z"/>
	</g>
</g>
</svg>
