<svg xmlns="http://www.w3.org/2000/svg" width="31.29" height="20.859" viewBox="0 0 31.29 20.859">
  <path id="mail" d="M2,6.235l13.037,7a3.758,3.758,0,0,0,3.15,0l13.037-7C32.072,5.778,32.875,4,31.316,4H1.906C.346,4,1.149,5.778,2,6.235Zm29.619,3.83c-.965.5-12.841,6.691-13.432,7a2.962,2.962,0,0,1-1.575.346,2.962,2.962,0,0,1-1.575-.346c-.591-.309-12.4-6.5-13.364-7C.993,9.709,1,10.124,1,10.444V23.121A2.116,2.116,0,0,0,2.738,24.86H30.551a2.116,2.116,0,0,0,1.738-1.738V10.446C32.29,10.126,32.3,9.71,31.617,10.065Z" transform="translate(-1 -4)" fill="#fff"/>
</svg>
