<svg xmlns="http://www.w3.org/2000/svg" width="116" height="36.171" viewBox="0 0 116 36.171">
  <g id="グループ_5" data-name="グループ 5" transform="translate(-79 -201.758)">
    <g id="グループ_1" data-name="グループ 1" transform="translate(79 201.758)">
      <path id="パス_3" data-name="パス 3" d="M15.992,113.436l-2.9,7.917-2.878-7.917h-2.1l-2.938,7.876-2.819-7.876H0l3.918,10.675h2.4l2.8-7.357,2.758,7.357h2.4l3.938-10.675Z" transform="translate(0 -108.678)" fill="#00325f"/>
      <path id="パス_4" data-name="パス 4" d="M43.956,114.347a4.366,4.366,0,0,1,1.249,3.408v6.256H42.846v-1.3a2.907,2.907,0,0,1-1.309,1.07,5.127,5.127,0,0,1-2.049.37,5.015,5.015,0,0,1-2.1-.41A3.236,3.236,0,0,1,36,122.6a2.887,2.887,0,0,1-.49-1.649,2.826,2.826,0,0,1,1.07-2.309,5.307,5.307,0,0,1,3.368-.87h2.759v-.16a2.187,2.187,0,0,0-.67-1.719,2.9,2.9,0,0,0-1.989-.6,5.745,5.745,0,0,0-1.769.28,4.345,4.345,0,0,0-1.469.78l-.98-1.82a6.068,6.068,0,0,1,2.019-.979,8.987,8.987,0,0,1,2.5-.34,5.207,5.207,0,0,1,3.608,1.13M41.677,121.9a2.339,2.339,0,0,0,1.03-1.229v-1.24H40.127q-2.159,0-2.159,1.419a1.274,1.274,0,0,0,.54,1.079,2.475,2.475,0,0,0,1.5.4,3.225,3.225,0,0,0,1.669-.43" transform="translate(-16.042 -108.579)" fill="#00325f"/>
      <path id="パス_5" data-name="パス 5" d="M65.367,113.217V115.6a3.223,3.223,0,0,0-.579-.06,3.019,3.019,0,0,0-2.279.85,3.388,3.388,0,0,0-.82,2.449v5.177h-2.5V113.337h2.379V114.9a4.164,4.164,0,0,1,3.8-1.679" transform="translate(-26.74 -108.579)" fill="#00325f"/>
      <path id="パス_6" data-name="パス 6" d="M83.184,113.9a4.9,4.9,0,0,1,1.929,1.919,6.21,6.21,0,0,1,0,5.727,4.877,4.877,0,0,1-1.929,1.929,5.667,5.667,0,0,1-2.788.679,4.31,4.31,0,0,1-3.418-1.439v5.177h-2.5V113.337h2.378v1.4a3.868,3.868,0,0,1,1.53-1.139,5.161,5.161,0,0,1,2.009-.38,5.667,5.667,0,0,1,2.788.68m-.8,7.2a3.733,3.733,0,0,0,0-4.838,3.022,3.022,0,0,0-2.269-.919,3.214,3.214,0,0,0-1.619.41,2.964,2.964,0,0,0-1.14,1.17,3.894,3.894,0,0,0,0,3.518A2.959,2.959,0,0,0,78.5,121.6a3.214,3.214,0,0,0,1.619.41,3.02,3.02,0,0,0,2.269-.919" transform="translate(-33.647 -108.579)" fill="#00325f"/>
      <path id="パス_7" data-name="パス 7" d="M105,123.588l.72-1.859a2.37,2.37,0,0,0,1.459.419,1.337,1.337,0,0,0,1.07-.43,1.9,1.9,0,0,0,.37-1.269V109.516h2.5V120.39a3.875,3.875,0,0,1-.98,2.8,3.62,3.62,0,0,1-2.738,1.02,3.935,3.935,0,0,1-2.4-.62m3.718-16.261a1.474,1.474,0,0,1,0-2.139,1.605,1.605,0,0,1,1.139-.43,1.652,1.652,0,0,1,1.14.41,1.322,1.322,0,0,1,.459,1.029,1.508,1.508,0,0,1-.45,1.11,1.557,1.557,0,0,1-1.15.45,1.607,1.607,0,0,1-1.139-.43" transform="translate(-47.434 -104.758)" fill="#00325f"/>
      <path id="パス_8" data-name="パス 8" d="M129.456,114.347a4.365,4.365,0,0,1,1.249,3.408v6.256h-2.359v-1.3a2.913,2.913,0,0,1-1.309,1.07,5.125,5.125,0,0,1-2.049.37,5.015,5.015,0,0,1-2.1-.41A3.231,3.231,0,0,1,121.5,122.6a2.884,2.884,0,0,1-.49-1.649,2.825,2.825,0,0,1,1.069-2.309,5.311,5.311,0,0,1,3.369-.87h2.758v-.16a2.187,2.187,0,0,0-.67-1.719,2.9,2.9,0,0,0-1.989-.6,5.745,5.745,0,0,0-1.769.28,4.345,4.345,0,0,0-1.469.78l-.98-1.82a6.068,6.068,0,0,1,2.019-.979,8.986,8.986,0,0,1,2.5-.34,5.207,5.207,0,0,1,3.608,1.13m-2.279,7.556a2.337,2.337,0,0,0,1.03-1.229v-1.24h-2.578q-2.16,0-2.16,1.419a1.274,1.274,0,0,0,.54,1.079,2.475,2.475,0,0,0,1.5.4,3.225,3.225,0,0,0,1.669-.43" transform="translate(-54.668 -108.579)" fill="#00325f"/>
      <path id="パス_9" data-name="パス 9" d="M153.415,113.9a4.908,4.908,0,0,1,1.929,1.919,6.215,6.215,0,0,1,0,5.727,4.888,4.888,0,0,1-1.929,1.929,5.669,5.669,0,0,1-2.789.679,4.308,4.308,0,0,1-3.418-1.439v5.177h-2.5V113.337h2.379v1.4a3.862,3.862,0,0,1,1.529-1.139,5.159,5.159,0,0,1,2.009-.38,5.669,5.669,0,0,1,2.789.68m-.8,7.2a3.733,3.733,0,0,0,0-4.838,3.022,3.022,0,0,0-2.269-.919,3.216,3.216,0,0,0-1.62.41,2.966,2.966,0,0,0-1.139,1.17,3.894,3.894,0,0,0,0,3.518,2.961,2.961,0,0,0,1.139,1.169,3.216,3.216,0,0,0,1.62.41,3.02,3.02,0,0,0,2.269-.919" transform="translate(-65.375 -108.579)" fill="#00325f"/>
      <path id="パス_10" data-name="パス 10" d="M177.172,114.347a4.365,4.365,0,0,1,1.249,3.408v6.256h-2.359v-1.3a2.913,2.913,0,0,1-1.309,1.07,5.125,5.125,0,0,1-2.049.37,5.015,5.015,0,0,1-2.1-.41,3.231,3.231,0,0,1-1.389-1.139,2.884,2.884,0,0,1-.49-1.649,2.825,2.825,0,0,1,1.069-2.309,5.311,5.311,0,0,1,3.369-.87h2.758v-.16a2.187,2.187,0,0,0-.67-1.719,2.9,2.9,0,0,0-1.989-.6,5.745,5.745,0,0,0-1.769.28,4.345,4.345,0,0,0-1.469.78l-.98-1.82a6.068,6.068,0,0,1,2.019-.979,8.986,8.986,0,0,1,2.5-.34,5.207,5.207,0,0,1,3.608,1.13m-2.279,7.556a2.337,2.337,0,0,0,1.03-1.229v-1.24h-2.578q-2.16,0-2.16,1.419a1.274,1.274,0,0,0,.54,1.079,2.475,2.475,0,0,0,1.5.4,3.225,3.225,0,0,0,1.669-.43" transform="translate(-76.224 -108.579)" fill="#00325f"/>
      <path id="パス_11" data-name="パス 11" d="M201.7,114.4a4.656,4.656,0,0,1,1.22,3.5v6.117h-2.5v-5.8a3,3,0,0,0-.66-2.109,2.44,2.44,0,0,0-1.879-.709,2.884,2.884,0,0,0-2.179.829,3.307,3.307,0,0,0-.8,2.389v5.4h-2.5V113.337h2.379v1.379a3.909,3.909,0,0,1,1.559-1.119,5.607,5.607,0,0,1,2.119-.38A4.46,4.46,0,0,1,201.7,114.4" transform="translate(-86.923 -108.579)" fill="#00325f"/>
    </g>
    <g id="グループ_2" data-name="グループ 2" transform="translate(79 227.197)">
      <path id="パス_12" data-name="パス 12" d="M71.911,154.23,66.539,164.9H63.753l-5.374-10.67h2.085l4.613,9.148.183-.106,4.566-9.042Z" transform="translate(-58.379 -154.169)" fill="#00325f"/>
      <rect id="長方形_1" data-name="長方形 1" width="1.811" height="10.67" transform="translate(16.014 0.061)" fill="#00325f"/>
      <path id="パス_13" data-name="パス 13" d="M101.385,161.765a3.023,3.023,0,0,1-.913,2.5,4.212,4.212,0,0,1-2.6.639H92.526q-3.516,0-3.5-3.029h1.843q0,1.4,1.978,1.4h4.613a3.064,3.064,0,0,0,1.431-.259,1.308,1.308,0,0,0,.625-1.248,1.385,1.385,0,0,0-1.08-1.385,6.179,6.179,0,0,0-1.934-.229q-.518,0-1.537.038t-1.537.038a7.163,7.163,0,0,1-3.045-.5,2.588,2.588,0,0,1-1.415-2.528,2.734,2.734,0,0,1,.973-2.36,4.359,4.359,0,0,1,2.557-.608h5.084q3.759,0,3.761,3.014H99.421q0-1.4-2.009-1.4h-4.8q-1.658,0-1.658,1.385,0,1.446,3.029,1.445c.314,0,.784-.018,1.407-.052s1.094-.052,1.409-.052a6.883,6.883,0,0,1,3.136.563,2.723,2.723,0,0,1,1.446,2.633" transform="translate(-68.764 -154.169)" fill="#00325f"/>
      <path id="パス_14" data-name="パス 14" d="M120.121,160.142h-7.26l.016-1.553h7.244ZM124,161.724a2.641,2.641,0,0,1-1.324,2.666,10.382,10.382,0,0,1-3.942.487h-2.36a10.066,10.066,0,0,1-3.259-.383,2.509,2.509,0,0,1-1.537-1.52,10.148,10.148,0,0,1-.38-3.257,12.415,12.415,0,0,1,.336-3.442,2.522,2.522,0,0,1,1.477-1.674,9.456,9.456,0,0,1,3.393-.442h2.361a7.661,7.661,0,0,1,4.047.806,2.572,2.572,0,0,1,1.157,2.328h-1.719a1.27,1.27,0,0,0-.973-1.324,11.555,11.555,0,0,0-2.587-.182h-2.178a6.148,6.148,0,0,0-2.816.409q-.792.52-.807,2.406v1.538q-.014,2.133.76,2.7a5.613,5.613,0,0,0,2.815.441H118.7a11.288,11.288,0,0,0,2.607-.184,1.265,1.265,0,0,0,.958-1.37Z" transform="translate(-76.315 -154.145)" fill="#00325f"/>
      <path id="パス_15" data-name="パス 15" d="M144.536,160.073v-1.019a5.5,5.5,0,0,0-.3-2.169,1.515,1.515,0,0,0-1.112-.831,11.151,11.151,0,0,0-2.162-.134h-1.764a5.282,5.282,0,0,0-2.787.456q-.7.565-.7,2.693v1.022c0,1.377.236,2.251.713,2.617a5.527,5.527,0,0,0,2.727.412h1.84a11.813,11.813,0,0,0,2.117-.123,1.5,1.5,0,0,0,1.118-.8,5.18,5.18,0,0,0,.311-2.125m1.828.061a7.336,7.336,0,0,1-.5,3.129,2.572,2.572,0,0,1-1.708,1.33,12.543,12.543,0,0,1-3.132.275h-1.965a10.063,10.063,0,0,1-3.259-.382,2.451,2.451,0,0,1-1.537-1.52,10.267,10.267,0,0,1-.38-3.273,12.834,12.834,0,0,1,.32-3.411,2.562,2.562,0,0,1,1.491-1.688,9.172,9.172,0,0,1,3.395-.458h1.948a9.136,9.136,0,0,1,3.614.518,2.616,2.616,0,0,1,1.44,1.857,16.026,16.026,0,0,1,.275,3.623" transform="translate(-84.016 -154.137)" fill="#00325f"/>
    </g>
  </g>
</svg>
