<svg id="Longchamp_logo" xmlns="http://www.w3.org/2000/svg" width="195.825" height="33.224" viewBox="0 0 195.825 33.224">
  <path id="パス_3473" data-name="パス 3473" d="M10.8,7.76H7.012V25.244h9.969V22.791H10.8Z" transform="translate(-7.012 -6.534)" fill="#00325f"/>
  <path id="パス_3474" data-name="パス 3474" d="M23.573,7.436c-4.045,0-7.333,4.149-7.333,9.264s3.289,9.264,7.333,9.264,7.333-4.149,7.333-9.264-3.289-9.264-7.333-9.264Zm0,16.023c-2.009,0-3.653-3.028-3.653-6.732,0-3.732,1.644-6.732,3.653-6.732s3.653,3.028,3.653,6.732S25.582,23.459,23.573,23.459Z" transform="translate(0.828 -6.809)" fill="#00325f"/>
  <path id="パス_3475" data-name="パス 3475" d="M67.72,21.53l-3.028-1.722c-.6,2.166-1.827,3.627-3.237,3.627-2.009,0-3.653-3.028-3.653-6.732,0-3.732,1.644-6.732,3.653-6.732,1.3,0,2.427,1.252,3.08,3.131l2.558-2.3a6.865,6.865,0,0,0-5.637-3.34c-4.045,0-7.333,4.149-7.333,9.264s3.289,9.264,7.333,9.264a7.228,7.228,0,0,0,6.263-4.463Z" transform="translate(33.011 -6.785)" fill="#00325f"/>
  <path id="パス_3476" data-name="パス 3476" d="M49.382,18.123h2.166v3.888a3,3,0,0,1-2.819,1.435c-2.009,0-3.653-3.028-3.653-6.732,0-3.732,1.644-6.732,3.653-6.732,1.252,0,2.375,1.174,3.028,2.974l2.558-2.244A6.858,6.858,0,0,0,48.73,7.449c-4.045,0-7.333,4.149-7.333,9.264s3.289,9.264,7.333,9.264A9.529,9.529,0,0,0,55.1,23v-6.5H49.357v1.618Z" transform="translate(22.2 -6.798)" fill="#00325f"/>
  <path id="パス_3477" data-name="パス 3477" d="M38.869,17.717,29.475,7.1V25.861h2.9V16.1l9.473,10.308V8.3H38.871Z" transform="translate(12.072 -7.097)" fill="#00325f"/>
  <path id="パス_3478" data-name="パス 3478" d="M76.17,15.015H70.037V7.761h-3.5V25.193h3.5V17.416H76.17v7.777h3.5V7.761h-3.5Z" transform="translate(43.559 -6.533)" fill="#00325f"/>
  <path id="パス_3479" data-name="パス 3479" d="M78.492,25.8h2.974l1.461-3.418H88.59L89.868,25.8h3.94L86.265,7.168,78.488,25.8Zm5.715-5.741,1.983-5.245,1.879,5.245Z" transform="translate(53.711 -7.037)" fill="#00325f"/>
  <path id="パス_3480" data-name="パス 3480" d="M91.725,7.1v18.71h2.819V16.569l4.8,5.872,4.383-5.793v9.159h3.6V7.123l-7.75,10.1Z" transform="translate(64.956 -7.097)" fill="#00325f"/>
  <path id="パス_3481" data-name="パス 3481" d="M112.654,7.76h-6.523V25.349h3.6V20.287h2.948a6.1,6.1,0,0,0,5.95-6.263,6.141,6.141,0,0,0-5.976-6.263Zm-.078,9.943h-2.845V10.292h2.845a3.827,3.827,0,0,1,2.558,3.679A3.907,3.907,0,0,1,112.577,17.7Z" transform="translate(77.195 -6.534)" fill="#00325f"/>
  <path id="パス_3482" data-name="パス 3482" d="M68.628,22.053h1.123v5.428H68.628Z" transform="translate(45.334 5.609)" fill="#00325f"/>
  <path id="パス_3483" data-name="パス 3483" d="M65.134,24.115a1.989,1.989,0,0,0-1.567-2.062H59.654v5.428H60.8V25.969h2.088l.965,1.513h1.278l-1.123-1.8a2,2,0,0,0,1.123-1.567ZM63.2,25H60.8V23.044h2.4a1.047,1.047,0,0,1,.679.965A1.082,1.082,0,0,1,63.2,25Z" transform="translate(37.71 5.609)" fill="#00325f"/>
  <path id="パス_3484" data-name="パス 3484" d="M46.412,22.053H42.5v5.428h1.149V25.969h2.088a2.021,2.021,0,0,0,2.244-1.827,2,2,0,0,0-1.567-2.088ZM46.045,25h-2.4V23.044h2.4a1.047,1.047,0,0,1,.679.965A1.01,1.01,0,0,1,46.045,25Z" transform="translate(23.135 5.609)" fill="#00325f"/>
  <path id="パス_3485" data-name="パス 3485" d="M52.778,22.053l-2.323,5.428h1.1l.573-1.332h2.713l.653,1.332h1.252l-2.558-5.428H52.776Zm-.235,3.131.862-2.062,1.017,2.062Z" transform="translate(29.895 5.609)" fill="#00325f"/>
  <path id="パス_3486" data-name="パス 3486" d="M77.643,24.257c-1.853.078-1.748-.47-1.748-.6s-.1-.834,1.358-.862a3.885,3.885,0,0,1,2.323.653l.418-.834a5.17,5.17,0,0,0-2.558-.573c-.157,0-2.713-.078-2.558,1.7.131,1.774,2.819,1.513,3.627,1.513a.68.68,0,0,1,.7.862c-.052.078-.1.6-1.722.6a3.121,3.121,0,0,1-2.323-.808l-.47.862s.131.862,2.767.862,2.793-1.358,2.767-1.879c0-.5-.731-1.567-2.584-1.487Z" transform="translate(50.488 5.597)" fill="#00325f"/>
</svg>
