<svg id="グループ_212" data-name="グループ 212" xmlns="http://www.w3.org/2000/svg" xmlns:xlink="http://www.w3.org/1999/xlink" width="131.596" height="35.728" viewBox="0 0 131.596 35.728">
  <defs>
    <clipPath id="clip-path">
      <rect id="長方形_146" data-name="長方形 146" width="131.596" height="35.728" fill="#00325f"/>
    </clipPath>
  </defs>
  <g id="グループ_211" data-name="グループ 211">
    <g id="グループ_210" data-name="グループ 210" clip-path="url(#clip-path)">
      <path id="パス_3487" data-name="パス 3487" d="M419.675,40.4a36.946,36.946,0,0,1,4.117-2.635,8.586,8.586,0,0,1,9.537,1.135c2.19,1.751,2.81,4.327,2.879,7.025a29.71,29.71,0,0,1-1.831,10.687,22.446,22.446,0,0,0-.9,3.259c-.4,2.139.674,3.092,2.763,2.526a2.131,2.131,0,0,1,.713-.177c.286.032.733.139.793.319a1.056,1.056,0,0,1-.194.926,2.617,2.617,0,0,1-1.193.611c-3.772.8-6.541-1.54-6.712-5.57a22.58,22.58,0,0,1,.986-6.671c.728-2.8,1.423-5.621.859-8.56-.007-.034,0-.071-.012-.105-.461-1.949-1.1-3.914-3.273-4.429a5.881,5.881,0,0,0-5.819,2.041,10.78,10.78,0,0,0-2.713,7.286c-.1,4.486-.066,8.975-.085,13.463-.006,1.515-.539,2.1-2.076,2.091a5.426,5.426,0,0,1-1.831-.383,1.461,1.461,0,0,1-.969-1.567q.117-11.551.138-23.1a1.218,1.218,0,0,1,.907-1.356,7.444,7.444,0,0,1,2.272-.315c1.164.07,1.544.607,1.561,1.783.008.554.052,1.108.082,1.72" transform="translate(-326.623 -28.994)" fill="#00325f"/>
      <path id="パス_3488" data-name="パス 3488" d="M128.493,55.611c.719,2.418,1.416,4.745,2.1,7.074.321,1.09.071,1.678-1.047,1.809a9.154,9.154,0,0,1-3.1-.214c-.4-.095-.794-.77-.953-1.258-.7-2.145-1.343-4.311-1.948-6.485a1.149,1.149,0,0,0-1.322-1c-2.4.016-4.8-.032-7.2-.126-.807-.032-1.128.268-1.453.989a49.834,49.834,0,0,1-3.072,6.124,5.93,5.93,0,0,1-5.976,2.626,3.351,3.351,0,0,1-1.391-.458c-.3-.183-.459-.594-.681-.9a8.4,8.4,0,0,1,1.093-.449,1.375,1.375,0,0,1,.616.123,3.958,3.958,0,0,0,4.887-2.1c.945-1.963,1.7-4.019,2.6-6.2-.932-.384-1.744-.682-2.522-1.049a18.712,18.712,0,0,1-2.514-1.333,2.59,2.59,0,0,1-.937-2.925,1.794,1.794,0,0,1,1.995-1.239,2.921,2.921,0,0,1,1.5.808c.953.926,1.813,1.947,2.872,3.107.6-1.81,1.073-3.377,1.631-4.914.992-2.73,2.058-5.43,4.374-7.378a9.694,9.694,0,0,1,6.41-2.371,1.661,1.661,0,0,1,1.269.618c.308.568-.242.891-.733,1.179-1.046.614-.907,1.674-.649,2.559,1.094,3.76,2.274,7.494,3.468,11.224a1.123,1.123,0,0,0,.82.558c.769.08,1.553.006,2.33.036.65.025,1.416.105,1.361.961-.052.807-.825.586-1.355.6-.772.025-1.546.006-2.477.006M114.273,53.4l.338.391h8.009c-1.316-4.576-3.32-9.119-.572-14.072-1.473.579-2.639,1.047-3.31,2.236a23.46,23.46,0,0,0-1.808,3.343c-.973,2.669-1.781,5.4-2.656,8.1" transform="translate(-80.69 -29.823)" fill="#00325f"/>
      <path id="パス_3489" data-name="パス 3489" d="M534.064,49.111a28.371,28.371,0,0,1-3.983-2.146,5.006,5.006,0,0,1-.53-7.34c2.778-3.071,9.252-4.169,12.9-2.188a4.625,4.625,0,0,1,2.158,4.813,4.218,4.218,0,0,1-3.027,3.445c-1.855.312-3.076-.544-2.9-2.191.059-.561.616-1.1,1.02-1.58a2.235,2.235,0,0,1,.837-.436c.843-.367,1.484-.9,1.331-1.918a1.778,1.778,0,0,0-1.761-1.428,5.779,5.779,0,0,0-5.664,2.14,5.175,5.175,0,0,0-.3,5.8,5.957,5.957,0,0,0,1.606,1.781c1,.812,1.119,1.233.169,2.111a7.865,7.865,0,0,0-2.6,4.938,6.391,6.391,0,0,0,8.27,6.91c.919-.3,1.684-.8,1.755-1.887.067-1.034-.7-1.461-1.457-1.881a13.922,13.922,0,0,1-1.652-.934,2.3,2.3,0,0,1-.874-2.456,2.236,2.236,0,0,1,1.689-1.722c2.209-.679,4.525.786,5.257,3.379a5.411,5.411,0,0,1-2.961,6.7c-3.04,1.3-6.059,1.032-9.122.259a11.263,11.263,0,0,1-5.581-3.06,6.093,6.093,0,0,1,2.24-10.043c1.048-.387,2.12-.707,3.191-1.061" transform="translate(-414.942 -28.701)" fill="#00325f"/>
      <path id="パス_3490" data-name="パス 3490" d="M262.75,47.837a15.5,15.5,0,0,1-8.315-2.562c-3.895-2.743-4.745-6.931-3.442-10.987a96,96,0,0,1,3.883-9.151c.811-1.839,1.789-3.612,2.489-5.49a12.767,12.767,0,0,0,.243-2.886,7.968,7.968,0,0,1,.415-1.387c.441.26,1.054.413,1.293.8,1.128,1.816.944,3.772.389,5.73-1.26,4.448-2.671,8.86-3.745,13.352-1.366,5.712,2.653,10.381,8.518,10.153A4.851,4.851,0,0,0,267.814,44a1.653,1.653,0,0,0-.436-2.8c-.72-.37-1.5-.619-2.218-1a3.444,3.444,0,0,1-1.935-2.745c-.3-2.665,1.913-4.175,4.8-3.3a6.567,6.567,0,0,1,4.151,5.88c.119,3.667-1.668,6.091-5.372,7.1-1.317.358-2.7.471-4.052.7" transform="translate(-197.231 -12.109)" fill="#00325f"/>
      <path id="パス_3491" data-name="パス 3491" d="M12.419,47.7a14.882,14.882,0,0,1-7.373-1.759C.422,43.214-.976,38.974.656,34.047c1.159-3.5,2.915-6.8,4.414-10.185.642-1.45,1.418-2.851,1.921-4.346A13.95,13.95,0,0,0,7.2,16.734a7.526,7.526,0,0,1,.417-1.367c.42.241,1,.379,1.232.741,1.173,1.845.987,3.849.415,5.829-.95,3.288-2,6.547-2.92,9.845a31.059,31.059,0,0,0-1.1,5.271c-.375,3.871,2.6,7.424,6.728,8.217a6.14,6.14,0,0,0,4.964-.861,1.95,1.95,0,0,0,.962-1.966c-.11-.822-.7-1.133-1.361-1.461a13.738,13.738,0,0,1-2.794-1.628,3.16,3.16,0,0,1-.705-3.7,2.919,2.919,0,0,1,2.932-1.676,6.223,6.223,0,0,1,5.794,6.635c-.24,4.3-2.739,6.273-7.6,6.991-.591.087-1.2.069-1.746.1" transform="translate(0 -12.103)" fill="#00325f"/>
      <path id="パス_3492" data-name="パス 3492" d="M360,15.013c.594-2.285,1.251-4.555,1.759-6.858a6.629,6.629,0,0,0-.783-4.712c-.148-.267-.51-.415-.774-.617a3.25,3.25,0,0,0-.459.735c-.413,1.382-1.162,2.044-2.357,2.022a3.089,3.089,0,0,1-2.7-2.051,2.548,2.548,0,0,1,1.282-2.97,4.376,4.376,0,0,1,5.548,1.089,7.625,7.625,0,0,1,1.711,6.356c-.6,3.245-1.632,6.41-2.487,9.607a23.347,23.347,0,0,0-.954,6.783c.085,2.789.024,5.583.018,8.374,0,1.215-.41,1.642-1.626,1.732-.246.018-.495.009-.742.009-2.031,0-2.44-.556-2.329-2.56.129-2.326.1-4.663.089-6.995-.016-4.1-.075-8.2-.1-12.3-.01-1.479-.078-2.881-1.953-3.259-.187-.038-.42-.488-.4-.726.018-.2.347-.478.585-.54a3.938,3.938,0,0,1,4.385,2.046,28.254,28.254,0,0,1,1.608,3.552,11.142,11.142,0,0,1,.379,1.283l.3,0" transform="translate(-277.815 0)" fill="#00325f"/>
    </g>
  </g>
</svg>
