<svg id="GUERLAIN" xmlns="http://www.w3.org/2000/svg" width="156.66" height="19.747" viewBox="0 0 156.66 19.747">
  <path id="パス_3493" data-name="パス 3493" d="M14.871,11.993H19.22l-.066.2C17.99,15.4,15.2,17.155,11.312,17.155c-5.1,0-8.523-2.921-8.523-7.293A6.683,6.683,0,0,1,5.513,4.371a9.785,9.785,0,0,1,5.8-1.8A9.194,9.194,0,0,1,18.5,5.689L21,4.371A11.584,11.584,0,0,0,11.554,0,12.458,12.458,0,0,0,3.58,2.526,9.019,9.019,0,0,0,0,9.863a9.105,9.105,0,0,0,3.515,7.381,12.62,12.62,0,0,0,7.776,2.5c6.744,0,11.268-4.086,11.268-10.148V9.445H14.871Z" transform="translate(0 0)" fill="#00325f"/>
  <path id="パス_3494" data-name="パス 3494" d="M126.853,25.21c-5.821,0-9.753-2.5-9.753-6.26V7h2.724V18.225c0,2.834,2.482,4.393,7.007,4.393,4.481,0,6.963-1.56,6.963-4.393V7h2.746V18.949c.022,3.756-3.888,6.26-9.687,6.26" transform="translate(-91.378 -5.462)" fill="#00325f"/>
  <path id="パス_3495" data-name="パス 3495" d="M226.158,16.6H236.24V14.227H226.158V9.394H239.03V7H223.5V24.595h15.53V22.2H226.158Z" transform="translate(-174.406 -5.462)" fill="#00325f"/>
  <path id="パス_3496" data-name="パス 3496" d="M328.8,24.595,324.5,17.675l.2-.044c2.636-.483,4.086-2.306,4.086-5.14,0-3.383-2.021-5.491-5.294-5.491H310.9V24.573h2.372V17.763h8.391l4.371,6.809H328.8Zm-15.53-9.226V9.416h9.555c2.306,0,3.493,1.032,3.493,3.075,0,1.845-1.186,2.878-3.251,2.878Z" transform="translate(-242.608 -5.462)" fill="#00325f"/>
  <path id="パス_3497" data-name="パス 3497" d="M423.85,22.2h-13.2V7H408.1V24.595h15.75Z" transform="translate(-318.457 -5.462)" fill="#00325f"/>
  <path id="パス_3498" data-name="パス 3498" d="M503.23,7H500l-8.5,17.573h2.636l1.889-4h11.181l1.889,4h2.614Zm-6,11.2,4.393-9.116,4.393,9.116Z" transform="translate(-383.538 -5.462)" fill="#00325f"/>
  <rect id="長方形_147" data-name="長方形 147" width="2.438" height="17.573" transform="translate(131.048 1.538)" fill="#00325f"/>
  <path id="パス_3499" data-name="パス 3499" d="M642.94,7V21.915L629.695,7H626.4V24.595h2.526V9.68l13.267,14.915h3.273V7Z" transform="translate(-488.806 -5.462)" fill="#00325f"/>
</svg>
