<svg id="logo" xmlns="http://www.w3.org/2000/svg" width="170.208" height="42.207" viewBox="0 0 170.208 42.207">
  <g id="グループ_205" data-name="グループ 205" transform="translate(0 0)">
    <path id="パス_3449" data-name="パス 3449" d="M16.539,19.23H14.378V7.462h-.03L9.665,13.316H9.3L4.621,7.462h-.03v11.8H2.4V4.1H4.441l5.043,6.214L14.5,4.1h2.011V19.23Z" transform="translate(-2.4 -3.89)" fill="#00325f"/>
    <path id="パス_3450" data-name="パス 3450" d="M96.929,19.02H94.708L92.7,14.547H86.243L84.321,19.02H82.1L88.614,3.8h1.531Zm-9.846-6.394H91.8L89.365,7.132Z" transform="translate(-58.175 -3.68)" fill="#00325f"/>
    <path id="パス_3451" data-name="パス 3451" d="M168.412,4.1c3.062,0,4.983,1.621,4.983,4.233a3.76,3.76,0,0,1-2.522,3.692c1.381.9,2.221,2.311,3.362,4.2a35.229,35.229,0,0,0,2.071,3H173.7l-2.011-3.122c-2.011-3.122-2.912-3.452-4.023-3.452h-.9V19.23H164.6V4.1Zm-1.651,6.6h1.411c2.341,0,3-1.2,2.972-2.462-.03-1.411-.871-2.281-2.972-2.281h-1.411Z" transform="translate(-115.909 -3.89)" fill="#00325f"/>
    <path id="パス_3452" data-name="パス 3452" d="M248.409,17.719a13.038,13.038,0,0,1-5.764,1.231c-4.653,0-8.045-3.242-8.045-7.685A7.843,7.843,0,0,1,242.735,3.4a12.492,12.492,0,0,1,5.4,1.291V6.882a11.17,11.17,0,0,0-5.433-1.5,5.729,5.729,0,0,0-5.824,5.794c0,3.362,2.522,5.764,6.124,5.764a10.546,10.546,0,0,0,3.272-.6V13.246h-2.912V11.3h5.073v6.424Z" transform="translate(-164.896 -3.4)" fill="#00325f"/>
    <path id="パス_3453" data-name="パス 3453" d="M327.8,19.02h-2.221l-2.011-4.473h-6.424l-1.921,4.473H313L319.514,3.8h1.531Zm-9.846-6.394h4.713L320.2,7.132Z" transform="translate(-219.761 -3.68)" fill="#00325f"/>
    <path id="パス_3454" data-name="パス 3454" d="M399.182,4.1c3.062,0,4.983,1.621,4.983,4.233a3.76,3.76,0,0,1-2.522,3.692c1.381.9,2.221,2.311,3.362,4.2a35.228,35.228,0,0,0,2.071,3h-2.612l-1.981-3.092c-2.011-3.122-2.912-3.452-4.023-3.452h-.9V19.26H395.4V4.1Zm-1.621,6.6h1.411c2.341,0,3-1.2,2.972-2.462-.03-1.411-.871-2.281-2.972-2.281h-1.411Z" transform="translate(-277.425 -3.89)" fill="#00325f"/>
    <path id="パス_3455" data-name="パス 3455" d="M475.715,6.051h-6.424v4.563h6.184v1.951h-6.184v4.713h6.6V19.23h-8.8V4.1h8.585V6.051Z" transform="translate(-327.601 -3.89)" fill="#00325f"/>
    <path id="パス_3456" data-name="パス 3456" d="M539.868,6.051h-5.253V19.23h-2.161V6.051H527.2V4.1h12.638V6.051Z" transform="translate(-369.66 -3.89)" fill="#00325f"/>
    <path id="パス_3457" data-name="パス 3457" d="M15.418,107.96H13.257v-6.6h-8.5v6.6H2.6V92.8H4.761v6.6h8.465V92.8h2.161v15.16Z" transform="translate(-2.54 -65.963)" fill="#00325f"/>
    <path id="パス_3458" data-name="パス 3458" d="M89.735,92.2c4.983,0,8.135,3.542,8.135,7.775,0,4.083-3.062,7.775-8.2,7.775a7.782,7.782,0,1,1,.06-15.55Zm0,13.539a5.765,5.765,0,1,0-5.884-5.764A5.69,5.69,0,0,0,89.735,105.739Z" transform="translate(-57.825 -65.543)" fill="#00325f"/>
    <path id="パス_3459" data-name="パス 3459" d="M180.861,108.08h-.42l-4.983-12.4-5.013,12.4h-.42L163.9,92.8h2.161l4.173,10.447,4.2-10.447h2.071l4.2,10.447L184.853,92.8h2.161Z" transform="translate(-115.419 -65.963)" fill="#00325f"/>
    <path id="パス_3460" data-name="パス 3460" d="M282.315,94.781h-6.424v4.563h6.184V101.3h-6.184v4.713h6.6v1.951h-8.8V92.8h8.585v1.981Z" transform="translate(-192.258 -65.963)" fill="#00325f"/>
    <path id="パス_3461" data-name="パス 3461" d="M340.191,106.008h6.814v1.951H338V92.8h2.161v13.208Z" transform="translate(-237.256 -65.963)" fill="#00325f"/>
    <path id="パス_3462" data-name="パス 3462" d="M403.761,106.008h6.844v1.951H401.6V92.8h2.161Z" transform="translate(-281.764 -65.963)" fill="#00325f"/>
  </g>
</svg>
