<svg id="グループ_204" data-name="グループ 204" xmlns="http://www.w3.org/2000/svg" xmlns:xlink="http://www.w3.org/1999/xlink" width="71.745" height="75.985" viewBox="0 0 71.745 75.985">
  <defs>
    <clipPath id="clip-path">
      <rect id="長方形_143" data-name="長方形 143" width="71.745" height="75.985" fill="none"/>
    </clipPath>
  </defs>
  <g id="グループ_204-2" data-name="グループ 204" clip-path="url(#clip-path)">
    <path id="パス_3439" data-name="パス 3439" d="M4.665,75.985H67.081a4.664,4.664,0,0,0,4.665-4.664V4.665A4.664,4.664,0,0,0,67.081,0H4.665A4.664,4.664,0,0,0,0,4.665V71.32a4.664,4.664,0,0,0,4.665,4.664" fill="#00325f"/>
    <path id="パス_3440" data-name="パス 3440" d="M32.071,132.347h2.8c1.847,0,3.056.962,3.056,2.72v.045c0,1.88-1.365,2.775-3.078,2.8h-.772v2.272h-2Zm2.709,3.918a1.021,1.021,0,0,0,1.131-1.075v-.033a1,1,0,0,0-1.142-1.086h-.694v2.194Z" transform="translate(-19.312 -79.696)" fill="#fff"/>
    <path id="パス_3441" data-name="パス 3441" d="M48.675,132.234h2.037l2.765,7.881H51.361L50.9,138.7H48.44l-.448,1.41H45.921Zm1.724,4.858-.728-2.3-.728,2.3Z" transform="translate(-27.652 -79.628)" fill="#fff"/>
    <path id="パス_3442" data-name="パス 3442" d="M66.461,132.347h3.078a3.186,3.186,0,0,1,2.351.795,2.483,2.483,0,0,1,.683,1.836v.056a2.409,2.409,0,0,1-1.4,2.306l1.612,2.843H70.513l-1.332-2.429h-.716v2.429h-2Zm3,3.806a.972.972,0,0,0,1.086-1.019v-.022c0-.672-.425-1.007-1.1-1.007h-.985v2.048Z" transform="translate(-40.021 -79.696)" fill="#fff"/>
    <path id="パス_3443" data-name="パス 3443" d="M85.127,134.16H83.19v-1.814h5.888v1.814H87.142v6.022H85.127Z" transform="translate(-50.095 -79.696)" fill="#fff"/>
    <path id="パス_3444" data-name="パス 3444" d="M99.76,132.347h1.892l2.609,3.94v-3.94h1.981v7.836H104.45l-2.709-4.108v4.108H99.76Z" transform="translate(-60.073 -79.696)" fill="#fff"/>
    <path id="パス_3445" data-name="パス 3445" d="M119.232,132.347h5.4v1.769h-3.4V135.4h3.067v1.668h-3.067v1.343h3.448v1.768h-5.44Z" transform="translate(-71.799 -79.696)" fill="#fff"/>
    <path id="パス_3446" data-name="パス 3446" d="M135.641,132.347h3.078a3.185,3.185,0,0,1,2.351.795,2.483,2.483,0,0,1,.683,1.836v.056a2.409,2.409,0,0,1-1.4,2.306l1.612,2.843h-2.272l-1.332-2.429h-.716v2.429h-2Zm3,3.806a.972.972,0,0,0,1.086-1.019v-.022c0-.672-.425-1.007-1.1-1.007h-.985v2.048Z" transform="translate(-81.68 -79.696)" fill="#fff"/>
    <path id="パス_3447" data-name="パス 3447" d="M50.066,33.4a8.779,8.779,0,0,1,6.352-2.727,8.867,8.867,0,0,1,7.727,4.581,10.683,10.683,0,0,1,4.368-.929A10.893,10.893,0,1,1,66.385,55.9a7.894,7.894,0,0,1-10.343,3.247A9.006,9.006,0,0,1,39.3,58.739a8.358,8.358,0,0,1-10.079-8.268,8.459,8.459,0,0,1,4.18-7.317A9.727,9.727,0,0,1,50.066,33.4" transform="translate(-17.597 -17.81)" fill="#0092d5" fill-rule="evenodd"/>
    <path id="パス_3448" data-name="パス 3448" d="M47.441,66.285l.2-.563a.082.082,0,0,1,.135-.047c.056.033.1.063.17.106a2.428,2.428,0,0,0,1.323.381c.447,0,.724-.237.724-.556v-.017c0-.347-.428-.479-.921-.63l-.11-.035c-.677-.193-1.4-.472-1.4-1.33v-.018a1.436,1.436,0,0,1,1.6-1.382h.1a2.917,2.917,0,0,1,1.472.4.1.1,0,0,1,.049.116l-.208.563c-.037.1-.137.032-.137.032a2.967,2.967,0,0,0-1.3-.335c-.4,0-.655.211-.655.5v.018c0,.335.439.478.949.644l.088.027c.676.214,1.4.51,1.4,1.323v.017c0,.879-.639,1.425-1.666,1.425a3.05,3.05,0,0,1-1.5-.349,3.212,3.212,0,0,1-.286-.173c-.01-.014-.053-.031-.022-.113Zm15.041,0,.2-.563a.086.086,0,0,1,.134-.047c.056.035.1.063.17.106a2.433,2.433,0,0,0,1.324.381c.446,0,.723-.237.723-.556v-.017c0-.347-.427-.479-.92-.63l-.11-.035c-.679-.193-1.4-.472-1.4-1.33v-.018A1.436,1.436,0,0,1,64.2,62.2h.1a2.923,2.923,0,0,1,1.474.4.1.1,0,0,1,.049.116c-.019.05-.19.51-.208.563-.038.1-.137.032-.137.032a2.959,2.959,0,0,0-1.306-.335c-.4,0-.655.211-.655.5v.018c0,.335.438.478.948.644l.088.027c.676.214,1.4.51,1.4,1.323v.017c0,.879-.638,1.425-1.665,1.425a3.046,3.046,0,0,1-1.5-.349A3.217,3.217,0,0,1,62.5,66.4c-.01-.014-.053-.031-.021-.113M73.607,63.64a3.426,3.426,0,0,1,0,1.842,2.066,2.066,0,0,1-.389.746,1.849,1.849,0,0,1-.66.5,2.429,2.429,0,0,1-1.838,0,1.852,1.852,0,0,1-.66-.5,2.085,2.085,0,0,1-.389-.745,3.439,3.439,0,0,1,0-1.843,2.087,2.087,0,0,1,.389-.745,1.893,1.893,0,0,1,.66-.5,2.381,2.381,0,0,1,1.838,0,1.881,1.881,0,0,1,.66.5,2.056,2.056,0,0,1,.389.745m-.857.921a2.088,2.088,0,0,0-.275-1.161.925.925,0,0,0-.836-.4.915.915,0,0,0-.831.4,2.63,2.63,0,0,0,0,2.327.909.909,0,0,0,.831.408.923.923,0,0,0,.836-.408,2.121,2.121,0,0,0,.275-1.166M80.651,66l.21.582a.079.079,0,0,1-.034.1,3.538,3.538,0,0,1-1.215.216,2.17,2.17,0,0,1-1.694-.637,2.473,2.473,0,0,1-.57-1.707,2.937,2.937,0,0,1,.141-.923,2.112,2.112,0,0,1,.417-.745,1.978,1.978,0,0,1,.691-.5,2.338,2.338,0,0,1,.955-.183,4.437,4.437,0,0,1,.644.042,3.434,3.434,0,0,1,.572.145.077.077,0,0,1,.054.1c-.081.229-.136.378-.212.586-.033.089-.1.059-.1.059a2.866,2.866,0,0,0-.906-.129,1.117,1.117,0,0,0-.951.418,1.822,1.822,0,0,0-.33,1.13,1.639,1.639,0,0,0,.368,1.172,1.307,1.307,0,0,0,.981.367,3.083,3.083,0,0,0,.47-.033,1.934,1.934,0,0,0,.4-.115.083.083,0,0,1,.11.053m4.388-2.524a3.077,3.077,0,0,1,.086,1.25.085.085,0,0,1-.084.076l-2.9,0a1.187,1.187,0,0,0,1.331,1.306,2.8,2.8,0,0,0,1.192-.214.085.085,0,0,1,.11.05l.189.532c.038.09.008.121-.025.139a3.028,3.028,0,0,1-1.462.29,2.891,2.891,0,0,1-1.053-.17,1.861,1.861,0,0,1-1.151-1.221,3.138,3.138,0,0,1-.131-.927,3.243,3.243,0,0,1,.127-.926,2.116,2.116,0,0,1,.393-.755,1.909,1.909,0,0,1,.669-.509,2.27,2.27,0,0,1,.959-.187,2.106,2.106,0,0,1,.831.169,1.7,1.7,0,0,1,.552.421A1.812,1.812,0,0,1,85.038,63.478Zm-2.887.607h2.07a1.445,1.445,0,0,0-.193-.685.9.9,0,0,0-.814-.421.928.928,0,0,0-.831.421,1.7,1.7,0,0,0-.234.685Zm-20.364-.607a3.114,3.114,0,0,1,.087,1.25.086.086,0,0,1-.084.076l-2.9,0a1.188,1.188,0,0,0,1.331,1.306,2.8,2.8,0,0,0,1.193-.214.084.084,0,0,1,.109.05l.189.532c.039.09.008.121-.024.139a3.039,3.039,0,0,1-1.463.29,2.888,2.888,0,0,1-1.053-.17,1.859,1.859,0,0,1-1.151-1.221,3.113,3.113,0,0,1-.132-.927,3.272,3.272,0,0,1,.127-.926,2.122,2.122,0,0,1,.393-.755,1.909,1.909,0,0,1,.668-.509,2.273,2.273,0,0,1,.958-.187,2.115,2.115,0,0,1,.831.169,1.682,1.682,0,0,1,.552.421,1.806,1.806,0,0,1,.371.679m-2.887.607h2.072a1.459,1.459,0,0,0-.193-.685.9.9,0,0,0-.814-.421.926.926,0,0,0-.83.421,1.7,1.7,0,0,0-.236.685Zm-5.12-.139s.229.02.479.056V63.88c0-.387-.081-.57-.239-.692A1.172,1.172,0,0,0,53.3,63a2.956,2.956,0,0,0-1.265.295.385.385,0,0,1-.047.024.073.073,0,0,1-.1-.047l-.206-.552a.091.091,0,0,1,.026-.115,2.815,2.815,0,0,1,.895-.327,4.769,4.769,0,0,1,.778-.072,1.976,1.976,0,0,1,1.334.4,1.627,1.627,0,0,1,.461,1.281l0,2.656a.09.09,0,0,1-.067.094s-.107.029-.2.052-.446.093-.732.142a5.323,5.323,0,0,1-.882.074,3.468,3.468,0,0,1-.768-.078,1.6,1.6,0,0,1-.591-.257,1.2,1.2,0,0,1-.378-.454,1.5,1.5,0,0,1-.134-.663,1.354,1.354,0,0,1,.578-1.148,1.876,1.876,0,0,1,.605-.281,2.789,2.789,0,0,1,.716-.091C53.51,63.933,53.662,63.937,53.78,63.946Zm-1.155,2.04a1.3,1.3,0,0,0,.851.169,5.96,5.96,0,0,0,.783-.1v-1.32a6.021,6.021,0,0,0-.788-.067,1.307,1.307,0,0,0-.841.21.637.637,0,0,0-.259.561.686.686,0,0,0,.088.379.559.559,0,0,0,.166.172M77.2,62.45c-.027.08-.168.477-.219.609-.019.051-.049.085-.106.079a1.662,1.662,0,0,0-.319-.038,1.386,1.386,0,0,0-.389.055.864.864,0,0,0-.358.215,1.064,1.064,0,0,0-.255.427,2.561,2.561,0,0,0-.1.761v2.163a.088.088,0,0,1-.087.088H74.6a.089.089,0,0,1-.09-.088v-4.33A.085.085,0,0,1,74.6,62.3h.744a.084.084,0,0,1,.084.088v.354a1.318,1.318,0,0,1,.491-.362,1.438,1.438,0,0,1,.748-.121,2.518,2.518,0,0,1,.487.083.079.079,0,0,1,.044.1v0m-7.16-2.007a.078.078,0,0,1,.054.1l-.223.61c-.018.046-.031.074-.125.045a1.318,1.318,0,0,0-.387-.06.986.986,0,0,0-.312.046.592.592,0,0,0-.243.15.85.85,0,0,0-.2.31,4,4,0,0,0-.154.655h.928c.078,0,.1.036.1.093l-.108.6a.1.1,0,0,1-.1.084H68.3l-.654,3.7a5.716,5.716,0,0,1-.255.975,1.924,1.924,0,0,1-.378.65,1.329,1.329,0,0,1-.536.374,2.087,2.087,0,0,1-.712.112,1.757,1.757,0,0,1-.426-.041,2.278,2.278,0,0,1-.265-.078.087.087,0,0,1-.044-.116c.02-.057.192-.528.215-.59a.081.081,0,0,1,.105-.046.7.7,0,0,0,.156.05,1.359,1.359,0,0,0,.234.026,1.072,1.072,0,0,0,.342-.049.526.526,0,0,0,.265-.2,1.488,1.488,0,0,0,.2-.413,4.561,4.561,0,0,0,.173-.716l.651-3.633h-.641c-.077,0-.1-.036-.094-.094l.107-.6a.1.1,0,0,1,.1-.084h.658l.035-.2a2.4,2.4,0,0,1,.584-1.317,1.661,1.661,0,0,1,1.229-.441,2.252,2.252,0,0,1,.395.03,2.479,2.479,0,0,1,.287.068m-12.97,6.278a.083.083,0,0,1-.083.088h-.77a.083.083,0,0,1-.083-.088v-6.2a.083.083,0,0,1,.082-.087h.77a.083.083,0,0,1,.083.088Z" transform="translate(-28.561 -36.338)" fill="#fff" fill-rule="evenodd"/>
  </g>
</svg>
