<svg xmlns="http://www.w3.org/2000/svg" xmlns:xlink="http://www.w3.org/1999/xlink" width="160.56" height="112.384" viewBox="0 0 160.56 112.384">
  <defs>
    <clipPath id="clip-path">
      <rect id="長方形_148" data-name="長方形 148" width="160.56" height="112.384" fill="none"/>
    </clipPath>
  </defs>
  <g id="グループ_216" data-name="グループ 216" transform="translate(0 0)">
    <g id="グループ_214" data-name="グループ 214" transform="translate(0 0)" clip-path="url(#clip-path)">
      <path id="パス_3500" data-name="パス 3500" d="M66.816,12.257A28.141,28.141,0,0,1,87.177,3.516,28.425,28.425,0,0,1,111.946,18.2a34.246,34.246,0,0,1,14-2.976,34.92,34.92,0,0,1,0,69.837,34.506,34.506,0,0,1-6.82-.678,25.305,25.305,0,0,1-33.155,10.41,28.869,28.869,0,0,1-53.666-1.3A26.794,26.794,0,0,1,0,66.984,27.116,27.116,0,0,1,13.4,43.529,31.182,31.182,0,0,1,66.816,12.257" transform="translate(0 0)" fill="#0092d5" fill-rule="evenodd"/>
      <path id="パス_3501" data-name="パス 3501" d="M18.245,49.811l.649-1.8a.262.262,0,0,1,.432-.149c.181.107.311.2.545.34a7.784,7.784,0,0,0,4.24,1.222c1.433,0,2.322-.759,2.322-1.782v-.054c0-1.113-1.371-1.534-2.952-2.019l-.352-.112c-2.172-.619-4.5-1.512-4.5-4.262v-.056c0-2.609,2.105-4.43,5.119-4.43l.33,0a9.352,9.352,0,0,1,4.72,1.266.306.306,0,0,1,.158.372l-.667,1.8c-.117.307-.439.1-.439.1a9.51,9.51,0,0,0-4.183-1.073c-1.278,0-2.1.677-2.1,1.6v.057c0,1.074,1.408,1.532,3.042,2.063l.281.088c2.165.685,4.476,1.634,4.476,4.24v.055c0,2.818-2.047,4.569-5.34,4.569a9.778,9.778,0,0,1-4.8-1.118,10.3,10.3,0,0,1-.917-.553c-.031-.046-.17-.1-.07-.363Zm48.214,0,.652-1.8a.277.277,0,0,1,.43-.149c.179.111.312.2.545.34a7.8,7.8,0,0,0,4.245,1.222c1.428,0,2.318-.759,2.318-1.782v-.054c0-1.113-1.368-1.534-2.95-2.019l-.352-.112c-2.176-.619-4.5-1.512-4.5-4.262v-.056c0-2.609,2.107-4.43,5.12-4.43l.328,0a9.37,9.37,0,0,1,4.724,1.266.313.313,0,0,1,.158.372c-.061.159-.61,1.635-.667,1.8-.121.307-.439.1-.439.1a9.486,9.486,0,0,0-4.185-1.073c-1.278,0-2.1.677-2.1,1.6v.057c0,1.074,1.405,1.532,3.04,2.063l.282.088c2.165.685,4.474,1.634,4.474,4.24v.055c0,2.818-2.046,4.569-5.338,4.569a9.764,9.764,0,0,1-4.8-1.118,10.322,10.322,0,0,1-.918-.553c-.032-.046-.171-.1-.069-.363m35.664-8.479a10.982,10.982,0,0,1,0,5.9,6.623,6.623,0,0,1-1.247,2.39,5.927,5.927,0,0,1-2.114,1.592,7.787,7.787,0,0,1-5.893,0,5.938,5.938,0,0,1-2.114-1.592,6.685,6.685,0,0,1-1.249-2.387,11.025,11.025,0,0,1,0-5.907,6.689,6.689,0,0,1,1.247-2.389,6.068,6.068,0,0,1,2.116-1.606,7.632,7.632,0,0,1,5.893,0,6.03,6.03,0,0,1,2.114,1.606,6.59,6.59,0,0,1,1.247,2.389m-2.747,2.954a6.692,6.692,0,0,0-.881-3.723,2.967,2.967,0,0,0-2.679-1.293,2.933,2.933,0,0,0-2.665,1.293,6.8,6.8,0,0,0-.868,3.723,6.848,6.848,0,0,0,.871,3.737,2.915,2.915,0,0,0,2.663,1.308A2.958,2.958,0,0,0,98.5,48.022a6.8,6.8,0,0,0,.881-3.737M124.7,48.9l.673,1.864a.254.254,0,0,1-.11.329,11.34,11.34,0,0,1-3.893.691,6.958,6.958,0,0,1-5.43-2.042,7.927,7.927,0,0,1-1.829-5.472,9.414,9.414,0,0,1,.451-2.959,6.771,6.771,0,0,1,1.335-2.387,6.34,6.34,0,0,1,2.215-1.606,7.5,7.5,0,0,1,3.062-.588,14.228,14.228,0,0,1,2.063.135,11.01,11.01,0,0,1,1.835.465.246.246,0,0,1,.172.324c-.26.733-.437,1.21-.678,1.877-.1.284-.319.19-.319.19a9.186,9.186,0,0,0-2.905-.414,3.58,3.58,0,0,0-3.049,1.34,5.839,5.839,0,0,0-1.057,3.622,5.255,5.255,0,0,0,1.181,3.758,4.191,4.191,0,0,0,3.145,1.177,9.885,9.885,0,0,0,1.507-.107,6.28,6.28,0,0,0,1.278-.369.266.266,0,0,1,.352.17m14.065-8.09a9.863,9.863,0,0,1,.275,4.008.271.271,0,0,1-.268.242l-9.306-.008a3.805,3.805,0,0,0,4.267,4.188,8.98,8.98,0,0,0,3.821-.686.272.272,0,0,1,.352.161l.606,1.706c.122.286.024.385-.079.444a9.706,9.706,0,0,1-4.687.928,9.269,9.269,0,0,1-3.377-.545,5.965,5.965,0,0,1-3.691-3.915,10.059,10.059,0,0,1-.421-2.971,10.4,10.4,0,0,1,.408-2.969,6.765,6.765,0,0,1,1.259-2.418,6.107,6.107,0,0,1,2.144-1.634,7.278,7.278,0,0,1,3.073-.6,6.753,6.753,0,0,1,2.663.541,5.433,5.433,0,0,1,1.77,1.348A5.809,5.809,0,0,1,138.768,40.813Zm-9.253,1.945h6.637a4.633,4.633,0,0,0-.617-2.195,2.891,2.891,0,0,0-2.608-1.351,2.975,2.975,0,0,0-2.664,1.351,5.459,5.459,0,0,0-.75,2.195Zm-65.28-1.945a9.984,9.984,0,0,1,.279,4.008.274.274,0,0,1-.27.242l-9.307-.008A3.808,3.808,0,0,0,59.2,49.244a8.99,8.99,0,0,0,3.823-.686.269.269,0,0,1,.349.161l.607,1.706c.124.286.026.385-.077.444a9.742,9.742,0,0,1-4.689.928,9.26,9.26,0,0,1-3.377-.545,5.96,5.96,0,0,1-3.689-3.915,9.978,9.978,0,0,1-.422-2.971,10.486,10.486,0,0,1,.407-2.969A6.786,6.786,0,0,1,53.4,38.979a6.117,6.117,0,0,1,2.142-1.634,7.288,7.288,0,0,1,3.072-.6,6.779,6.779,0,0,1,2.665.541,5.391,5.391,0,0,1,1.769,1.348,5.791,5.791,0,0,1,1.189,2.178m-9.256,1.945H61.62A4.677,4.677,0,0,0,61,40.563a2.887,2.887,0,0,0-2.608-1.351,2.968,2.968,0,0,0-2.662,1.351,5.46,5.46,0,0,0-.755,2.195Zm-16.412-.445s.735.065,1.535.181V42.1c0-1.242-.259-1.826-.766-2.218a3.757,3.757,0,0,0-2.3-.6,9.475,9.475,0,0,0-4.057.945,1.235,1.235,0,0,1-.152.078.234.234,0,0,1-.3-.152l-.659-1.77a.291.291,0,0,1,.083-.37,9.026,9.026,0,0,1,2.868-1.048,15.291,15.291,0,0,1,2.494-.231,6.334,6.334,0,0,1,4.275,1.288,5.215,5.215,0,0,1,1.478,4.106l.005,8.514a.287.287,0,0,1-.214.3s-.342.094-.649.167-1.431.3-2.347.454a17.066,17.066,0,0,1-2.827.236,11.114,11.114,0,0,1-2.463-.251,5.115,5.115,0,0,1-1.9-.823,3.83,3.83,0,0,1-1.212-1.455,4.808,4.808,0,0,1-.431-2.125,4.341,4.341,0,0,1,1.852-3.68,6.014,6.014,0,0,1,1.94-.9,8.941,8.941,0,0,1,2.294-.293C37.7,42.271,38.188,42.283,38.567,42.313Zm-3.7,6.54a4.181,4.181,0,0,0,2.729.543,19.1,19.1,0,0,0,2.511-.334V44.83a19.3,19.3,0,0,0-2.526-.214,4.189,4.189,0,0,0-2.7.672,2.042,2.042,0,0,0-.831,1.8A2.2,2.2,0,0,0,34.33,48.3a1.791,1.791,0,0,0,.533.551M113.63,37.518c-.088.255-.539,1.529-.7,1.952-.06.162-.158.272-.339.253a5.325,5.325,0,0,0-1.021-.122,4.444,4.444,0,0,0-1.247.176,2.769,2.769,0,0,0-1.148.69,3.411,3.411,0,0,0-.817,1.37,8.21,8.21,0,0,0-.309,2.441v6.932a.281.281,0,0,1-.279.283h-2.445a.286.286,0,0,1-.288-.282V37.33a.272.272,0,0,1,.27-.282h2.383a.27.27,0,0,1,.27.282v1.134a4.226,4.226,0,0,1,1.574-1.159,4.611,4.611,0,0,1,2.4-.386,8.07,8.07,0,0,1,1.561.265.252.252,0,0,1,.14.329v.005M90.678,31.085a.249.249,0,0,1,.172.323l-.715,1.955c-.059.148-.1.236-.4.144a4.224,4.224,0,0,0-1.241-.194,3.161,3.161,0,0,0-1,.147,1.9,1.9,0,0,0-.779.481,2.723,2.723,0,0,0-.653.993,12.839,12.839,0,0,0-.492,2.1h2.975c.251,0,.33.116.3.3L88.5,39.269a.313.313,0,0,1-.311.27H85.126L83.031,51.4a18.322,18.322,0,0,1-.817,3.126A6.167,6.167,0,0,1,81,56.613a4.259,4.259,0,0,1-1.719,1.2A6.691,6.691,0,0,1,77,58.168a5.634,5.634,0,0,1-1.365-.131,7.3,7.3,0,0,1-.851-.25.278.278,0,0,1-.142-.372c.064-.184.615-1.692.689-1.891a.259.259,0,0,1,.338-.147,2.24,2.24,0,0,0,.5.159,4.353,4.353,0,0,0,.749.083,3.438,3.438,0,0,0,1.1-.158,1.688,1.688,0,0,0,.849-.654,4.77,4.77,0,0,0,.652-1.325,14.623,14.623,0,0,0,.555-2.294L82.154,39.54H80.1c-.246,0-.33-.116-.3-.3l.344-1.935a.317.317,0,0,1,.316-.27h2.109l.114-.629a7.683,7.683,0,0,1,1.871-4.221,5.323,5.323,0,0,1,3.941-1.414,7.222,7.222,0,0,1,1.265.1,7.955,7.955,0,0,1,.921.219M49.1,51.209a.267.267,0,0,1-.267.283H46.369a.267.267,0,0,1-.265-.282V31.345a.267.267,0,0,1,.264-.279h2.469a.267.267,0,0,1,.267.281Z" transform="translate(5.012 8.47)" fill="#fff" fill-rule="evenodd"/>
    </g>
  </g>
</svg>
