<svg xmlns="http://www.w3.org/2000/svg" xmlns:xlink="http://www.w3.org/1999/xlink" width="211.549" height="210.623" viewBox="0 0 211.549 210.623">
  <defs>
    <clipPath id="clip-path">
      <rect id="長方形_23" data-name="長方形 23" width="155.79" height="153.261" fill="#0046fe"/>
    </clipPath>
  </defs>
  <g id="グループ_7" data-name="グループ 7" transform="translate(76.63) rotate(30)">
    <g id="グループ_6" data-name="グループ 6" clip-path="url(#clip-path)">
      <path id="パス_24" data-name="パス 24" d="M89.527,12.692a11.907,11.907,0,0,1-3.982.333,6.582,6.582,0,0,1-4.61-2.129A6.593,6.593,0,0,1,79.6,5.98c.375-3.8,3.246-6.338,7.522-5.938a7.925,7.925,0,0,1,3.124.883l-.523,1.307a6.639,6.639,0,0,0-2.768-.813,4.791,4.791,0,0,0-5.607,4.648c-.3,3.235,1.468,5.329,4.438,5.607a5.408,5.408,0,0,0,2.227-.135l.356-3.8-2.592-.242L85.9,6.169l4.2.393Z" fill="#0046fe"/>
      <path id="パス_25" data-name="パス 25" d="M94.482,1.474a17.184,17.184,0,0,1,3.135.551,5.235,5.235,0,0,1,3.317,1.953,3.19,3.19,0,0,1,.354,2.608,3.36,3.36,0,0,1-3.165,2.546l-.014.055a3.193,3.193,0,0,1,1.161,2.977,20.5,20.5,0,0,0,.06,3.651l-1.653-.436a16.619,16.619,0,0,1-.048-3.175c.082-1.805-.41-2.623-1.847-3.06l-1.506-.4-1.412,5.365-1.6-.421ZM94.6,7.535l1.635.431c1.709.449,3.039-.2,3.412-1.617.421-1.6-.553-2.6-2.238-3.064a6.815,6.815,0,0,0-1.619-.27Z" fill="#0046fe"/>
      <path id="パス_26" data-name="パス 26" d="M113.1,14.756c-1.826,4.01-5.232,5.027-8.206,3.673-3.077-1.4-4.152-4.772-2.546-8.3,1.686-3.7,5.087-5.073,8.2-3.656,3.181,1.449,4.128,4.824,2.553,8.282m-9.128-3.928c-1.134,2.489-.8,5.333,1.567,6.413,2.386,1.086,4.735-.5,5.939-3.141,1.056-2.316.948-5.288-1.559-6.429-2.49-1.134-4.781.6-5.947,3.157" fill="#0046fe"/>
      <path id="パス_27" data-name="パス 27" d="M113.032,22.424l5-12.225,1.4,1.039-2.629,6.112c-.643,1.509-1.316,2.995-1.867,4.123l.031.023c.924-.9,2.148-1.884,3.482-2.953l5.214-4.177,1.39,1.028-2.609,6.149c-.613,1.437-1.242,2.862-1.891,4.059l.031.023c1.049-.972,2.186-1.9,3.455-2.949l5.2-4.189,1.359,1.005-10.527,8.139L118.683,26.6l2.665-6.321a38.851,38.851,0,0,1,1.812-3.858l-.03-.021a39.928,39.928,0,0,1-3.278,2.771l-5.43,4.279Z" fill="#0046fe"/>
      <path id="パス_28" data-name="パス 28" d="M137.132,26.7l-5.948,4.7c-2.251,1.779-2.416,3.532-1.356,4.873,1.178,1.491,2.916,1.668,5.137-.087l5.949-4.7L141.95,32.8l-5.859,4.629c-3.085,2.439-5.637,1.815-7.356-.362-1.626-2.057-1.673-4.538,1.442-7l5.918-4.677Z" fill="#0046fe"/>
      <path id="パス_29" data-name="パス 29" d="M144.066,36.4a19.164,19.164,0,0,1,1.758,2.653,5.26,5.26,0,0,1,.815,3.654,3.444,3.444,0,0,1-1.8,2.282,3.772,3.772,0,0,1-2.871.466,5.306,5.306,0,0,1-3.13-2.737,5.7,5.7,0,0,1-.547-1.218l-4.482,2.493-.8-1.444Zm-4.592,4.445a5.555,5.555,0,0,0,.548,1.26c.97,1.743,2.407,2.335,3.951,1.476,1.478-.821,1.61-2.264.724-3.858a6.936,6.936,0,0,0-.873-1.3Z" fill="#0046fe"/>
      <path id="パス_30" data-name="パス 30" d="M139.764,57.205l5.193-1.6,5.856-6.034.553,1.8-2.847,2.764c-.781.757-1.414,1.349-2.15,1.993l.011.036c.9.1,1.833.271,2.9.458l3.919.723.553,1.8L145.467,57.2l-5.212,1.6Z" fill="#0046fe"/>
      <path id="パス_31" data-name="パス 31" d="M149.514,72.861c-4.365.612-7.051-1.716-7.505-4.952-.47-3.349,1.8-6.065,5.634-6.6,4.026-.565,7.012,1.567,7.487,4.954.485,3.462-1.853,6.073-5.616,6.6m-1.588-9.811c-2.709.38-4.93,2.188-4.568,4.766.364,2.6,2.959,3.729,5.838,3.324,2.521-.353,4.97-2.04,4.587-4.768-.38-2.709-3.072-3.713-5.857-3.322" fill="#0046fe"/>
      <path id="パス_32" data-name="パス 32" d="M155.718,77.343l-7.574-.329c-2.866-.124-4.136,1.1-4.211,2.8-.082,1.9,1.118,3.168,3.947,3.291l7.573.328-.072,1.671-7.46-.324c-3.929-.171-5.453-2.31-5.333-5.081.114-2.62,1.7-4.529,5.667-4.357l7.535.328Z" fill="#0046fe"/>
      <path id="パス_33" data-name="パス 33" d="M154.615,89.213a17.245,17.245,0,0,1-.386,3.16,5.242,5.242,0,0,1-1.779,3.414,3.193,3.193,0,0,1-2.587.49,3.363,3.363,0,0,1-2.707-3.029l-.055-.012a3.194,3.194,0,0,1-2.914,1.315,20.362,20.362,0,0,0-3.642.25l.349-1.674a16.593,16.593,0,0,1,3.169-.213c1.807-.012,2.6-.546,2.96-2l.317-1.526-5.431-1.132.337-1.618Zm-6.047.428-.345,1.655c-.361,1.73.36,3.025,1.792,3.324,1.618.337,2.569-.687,2.944-2.4a6.8,6.8,0,0,0,.185-1.63Z" fill="#0046fe"/>
      <path id="パス_34" data-name="パス 34" d="M150.448,104.725a15.926,15.926,0,0,1-.977,2.872,5.286,5.286,0,0,1-2.271,2.838,2.683,2.683,0,0,1-2.5.06,3.04,3.04,0,0,1-1.7-3.117l-.035-.015a3.3,3.3,0,0,1-4,1.118,3.452,3.452,0,0,1-1.909-2.026c-.386-1.147-.151-2.622.694-4.533a19.075,19.075,0,0,1,1.175-2.285ZM139.37,101.64a8.867,8.867,0,0,0-.63,1.238c-.691,1.564-.754,3.26.95,4.012,1.6.707,2.865-.375,3.594-2.026l.553-1.251Zm5.614,2.479-.606,1.373c-.706,1.6-.287,2.906.843,3.405,1.373.606,2.372-.2,3.048-1.728a7.053,7.053,0,0,0,.486-1.384Z" fill="#0046fe"/>
      <path id="パス_35" data-name="パス 35" d="M144.795,116.669l-6.35-4.146c-2.4-1.569-4.118-1.168-5.053.265-1.039,1.591-.654,3.3,1.717,4.844l6.351,4.146-.915,1.4-6.254-4.083c-3.295-2.152-3.515-4.769-2-7.093,1.434-2.2,3.772-3.03,7.1-.859l6.319,4.126Z" fill="#0046fe"/>
      <path id="パス_36" data-name="パス 36" d="M130.235,118.776a5.86,5.86,0,0,0-2.6,1.651c-1.128,1.26-1.123,2.593-.16,3.454.892.8,1.859.746,3.508-.1,1.947-1.063,3.617-1.3,4.962-.1,1.487,1.331,1.488,3.552-.173,5.407a5.834,5.834,0,0,1-2.357,1.692l-.7-1.24a5.1,5.1,0,0,0,2.076-1.407c1.167-1.3.832-2.5.181-3.079-.893-.8-1.851-.612-3.54.249-2.069,1.056-3.583,1.18-4.985-.075-1.473-1.319-1.771-3.551.246-5.8a6.609,6.609,0,0,1,2.789-1.89Z" fill="#0046fe"/>
      <rect id="長方形_20" data-name="長方形 20" width="1.652" height="12.802" transform="matrix(0.735, -0.678, 0.678, 0.735, 121.455, 125)" fill="#0046fe"/>
      <path id="パス_37" data-name="パス 37" d="M119.871,126.6l7.477,10.4-1.466,1.054-7.115-2.864a36.364,36.364,0,0,1-4.3-2.036l-.019.037c1.121,1.3,2.062,2.543,3.227,4.162l3.128,4.351-1.265.91-7.477-10.4,1.358-.976,7.1,2.9a40.491,40.491,0,0,1,4.439,2.073l.036-.049c-1.02-1.255-1.95-2.483-3.192-4.21l-3.195-4.443Z" fill="#0046fe"/>
      <path id="パス_38" data-name="パス 38" d="M106.889,141.581l4.45-2.231-2.069-4.127-4.96,2.486-.621-1.239,6.437-3.227,5.739,11.446-6.183,3.1-.621-1.24,4.7-2.359-1.814-3.617L107.5,142.8Z" fill="#0046fe"/>
      <path id="パス_39" data-name="パス 39" d="M103.114,138.856a5.859,5.859,0,0,0-3.077.166c-1.6.545-2.248,1.71-1.831,2.933.387,1.134,1.255,1.561,3.107,1.632,2.218.027,3.791.635,4.374,2.344.644,1.889-.443,3.826-2.8,4.63a5.817,5.817,0,0,1-2.882.32l0-1.424a5.118,5.118,0,0,0,2.5-.21c1.655-.564,1.947-1.768,1.665-2.6-.386-1.133-1.314-1.44-3.208-1.517-2.321-.092-3.7-.726-4.309-2.507-.638-1.871.195-3.962,3.056-4.938a6.626,6.626,0,0,1,3.358-.281Z" fill="#0046fe"/>
      <path id="パス_40" data-name="パス 40" d="M94.877,141.543a5.864,5.864,0,0,0-3.071-.239c-1.659.331-2.452,1.4-2.2,2.667.235,1.174,1.04,1.711,2.865,2.024,2.195.317,3.674,1.126,4.028,2.9.392,1.956-.939,3.733-3.381,4.221a5.819,5.819,0,0,1-2.9-.06l.183-1.412a5.116,5.116,0,0,0,2.5.119c1.713-.342,2.16-1.5,1.989-2.354-.234-1.174-1.113-1.6-2.98-1.924-2.287-.4-3.573-1.2-3.941-3.048-.387-1.937.712-3.9,3.673-4.493a6.619,6.619,0,0,1,3.365.161Z" fill="#0046fe"/>
      <rect id="長方形_21" data-name="長方形 21" width="1.02" height="15.973" transform="translate(63.383 145.171) rotate(-84.206)" fill="#0046fe"/>
      <path id="パス_41" data-name="パス 41" d="M37.365,145.254a12.3,12.3,0,0,1-.507-3.3l1.049-.049a14.623,14.623,0,0,0,.393,3.3Zm2.09-.047a10.938,10.938,0,0,1-.4-3.326l1.041-.035a9.932,9.932,0,0,0,.317,3.305Zm12.483-6.258c.467-.944.168-1.6-1.827-2.591a32.942,32.942,0,0,0-6.066-2.415l.4-1.112a32.847,32.847,0,0,1,6.112,2.476c2.711,1.342,3.286,2.517,2.615,3.872l-4.636,9.366-1.081-.535,2.352-4.751a23.736,23.736,0,0,0-8.066-.751l-.165-1.314a29.279,29.279,0,0,1,8.713,1.09Z" fill="#0046fe"/>
      <path id="パス_42" data-name="パス 42" d="M23.166,133.725a11.864,11.864,0,0,1,.678-3.285l.986.357a14.778,14.778,0,0,0-.791,3.234Zm1.931.79a10.189,10.189,0,0,1,.824-3.274l.984.333a10,10,0,0,0-.9,3.208Zm15.816-3.663c-4.6-2.791-9.28-3.415-14.194-1.048l-.257-1.232c5.256-2.458,9.964-1.789,14.973,1.122Zm-8.87,8.1a18.732,18.732,0,0,1-1.8-4.048l1.168-.421a19.575,19.575,0,0,0,1.679,4.12Zm3.645-2.119a18.76,18.76,0,0,1-1.814-4.144l1.132-.429a22.141,22.141,0,0,0,1.724,4.225Z" fill="#0046fe"/>
      <path id="パス_43" data-name="パス 43" d="M26.9,114.694l.7.939L22.963,119.1a27.66,27.66,0,0,1,5.156,2.808l-.434,1.067c-3.68-2.6-7.859-4.182-11.075-4.282l5.232,7-.844.631-2.748-3.675-2.164,1.618-.723-.966,2.164-1.618-2.412-3.226.321-.961a20.489,20.489,0,0,1,5.611.919A28.168,28.168,0,0,1,20,111.962l1.214-.08a27.5,27.5,0,0,0,.816,6.456Z" fill="#0046fe"/>
      <path id="パス_44" data-name="パス 44" d="M17.031,97.3a28.087,28.087,0,0,0-2.832,6.625,21.229,21.229,0,0,1,7.425,4.245l-.582,1.05a18.371,18.371,0,0,0-13.23-4.893l3.279,7.548-1.029.446-3.591-8.264L6.977,103a19.659,19.659,0,0,1,6.172.636A35.53,35.53,0,0,1,15.8,96.608Z" fill="#0046fe"/>
      <path id="パス_45" data-name="パス 45" d="M8.262,93.545A5.744,5.744,0,0,1,6.85,91.112,2.14,2.14,0,0,1,8.294,88.59c-.826-1.35-1.691-2.813-2.452-4.278a3.33,3.33,0,0,1,1.13-.612A42.759,42.759,0,0,0,9.3,88.227c1.087-.292,2.016-.5,3.282-.759a3.278,3.278,0,0,1,.161.575,2.784,2.784,0,0,1,.051.544c-1.2.228-2.035.4-2.864.594,1.439,2.029,2.544,2.841,3.48,2.664,1.069-.2,1.436-1.1.975-3.541a18.571,18.571,0,0,0-1.438-4.4A3.889,3.889,0,0,1,14,83.547l.133-.025a28.045,28.045,0,0,1,1.319,4.6c.581,3.075-.077,4.445-1.648,4.742-1.4.266-2.939-.535-4.853-3.339-1.115.418-1.28.83-1.128,1.632.2,1.086,1.212,2.384,4.017,4.588a2.307,2.307,0,0,1-.726.829,16.524,16.524,0,0,0-5.687-3.078c.268,1.143.516,2.273.754,3.44a3.392,3.392,0,0,1-.575.16,2.723,2.723,0,0,1-.528.048c-.071-.471-.163-.955-.252-1.423Q4.589,94.439,4.3,93.17a23.033,23.033,0,0,0-2.712-.526,3.214,3.214,0,0,1,.063-1.223c.811.175,1.683.391,2.388.552-.367-1.488-.8-3.033-1.25-4.5a3.281,3.281,0,0,1,.559-.158,5.032,5.032,0,0,1,.508-.061c.455,1.679.9,3.361,1.284,5.052a20.94,20.94,0,0,1,3.084,1.3Z" fill="#0046fe"/>
      <path id="パス_46" data-name="パス 46" d="M5.808,66.923c.2.113.564.285,1.095.551a15.64,15.64,0,0,1,3.943,2.437,5.88,5.88,0,0,0,2.3-1.584,1.5,1.5,0,0,0,.427-.693c.015-.272-.837-.588-2.356-.872a3.938,3.938,0,0,0,.778-.862,7.554,7.554,0,0,1,1.99.7,1.2,1.2,0,0,1,.744,1.077,3.124,3.124,0,0,1-1.111,1.714,8.354,8.354,0,0,1-1.957,1.277,14.478,14.478,0,0,1,3.089,4.776,3,3,0,0,0-.891.771,12.276,12.276,0,0,0-3.19-5.122,21.743,21.743,0,0,1-7,1.066L3.357,78c1.46.093,2.071.124,2.716.175L6.238,75a7.682,7.682,0,0,0,0-1.243,3.566,3.566,0,0,0,.406.055l.169.026c.051,0,.576.064,1.287.136a11.942,11.942,0,0,1,3.558.679c.5.281.63.645.582,1.579a11.445,11.445,0,0,1-.244,1.742,3.655,3.655,0,0,0-1.1.147,8.608,8.608,0,0,0,.375-1.956c.028-.544-.118-.687-.842-.844a24.667,24.667,0,0,0-3.249-.391l-.174,3.329c3.847.371,5.826.95,7.413,2.191a3.294,3.294,0,0,0-.793.844,7.049,7.049,0,0,0-2.453-1.3A31.135,31.135,0,0,0,4.2,79.083a11.12,11.12,0,0,0-1.942,0,19.982,19.982,0,0,0,.191-2.016l.256-4.925A19.132,19.132,0,0,0,0,72.172l.067-1.291a6.833,6.833,0,0,0,1.388.175c.271.014.526.027,1.309.034l.189-3.635a9.876,9.876,0,0,0-.009-1.788l1.138.059A12.374,12.374,0,0,0,3.9,67.59l-.183,3.515a20.015,20.015,0,0,0,6.052-.791A13.17,13.17,0,0,0,5.29,68.037Zm-3.138.739a11.492,11.492,0,0,0-1.892,2.32l-.54-.744A14.02,14.02,0,0,1,2.01,66.93Z" fill="#0046fe"/>
      <path id="パス_47" data-name="パス 47" d="M11.318,56.589A7.55,7.55,0,0,0,14.385,55.3,11.139,11.139,0,0,0,12.9,52.114l.859-.766.068.128.1.245a2.5,2.5,0,0,1,.107.229,14.063,14.063,0,0,1,1.093,2.792,14.955,14.955,0,0,0,3.521-4.194,4.088,4.088,0,0,0,.9.883c-2.34,3.6-5.25,5.705-8.55,6.2L10.4,59.544l4.416,1.365a35.845,35.845,0,0,0-.008-3.827l.979.285a55.253,55.253,0,0,1-.114,6.582c-.021.3-.033.452-.032.737l-1.226,0a6.514,6.514,0,0,0,.2-1.112l.122-1.545-4.659-1.441L9.7,61.833a10.63,10.63,0,0,0-.389,1.6l-1.072-.331a9.806,9.806,0,0,0,.589-1.561l.382-1.234L4.287,58.791a12.475,12.475,0,0,0-1.6-.422,11.731,11.731,0,0,0,.593-1.632l2.1-6.786a9.771,9.771,0,0,0,.42-1.7l1.072.331a15.182,15.182,0,0,0-.6,1.647L4.007,57.566l1.234.381L7.36,51.1a11.136,11.136,0,0,0,.395-1.568l1.023.317a13.823,13.823,0,0,0-.558,1.517L6.1,58.214l1.234.381,2.118-6.851a10.5,10.5,0,0,0,.4-1.568l1.023.316a13.52,13.52,0,0,0-.558,1.518L8.2,58.861l1.331.412,2.706-8.751a9.879,9.879,0,0,0,.38-1.573l1.071.331a9.27,9.27,0,0,0-.559,1.464Z" fill="#0046fe"/>
      <path id="パス_48" data-name="パス 48" d="M19.637,38.963a22.757,22.757,0,0,1-4.614.4,55.594,55.594,0,0,1-2.7,5.553,3.512,3.512,0,0,1-.86-.348,1.29,1.29,0,0,1-.211-.144,46.936,46.936,0,0,0,2.624-5.162,21.691,21.691,0,0,1-3.55-.57,2.817,2.817,0,0,1,.35-1l.052-.088a17.894,17.894,0,0,0,3.549.57,39.4,39.4,0,0,0,1.484-4.431,2.185,2.185,0,0,1,.985.3l.147.086c-.394,1.307-.886,2.713-1.426,4.132a20.517,20.517,0,0,0,6-.771,1.755,1.755,0,0,1,.438,1.066,11.726,11.726,0,0,0-3.7,3.8c-1.344,2.286-.757,3.5.063,3.982,1.128.664,2.561.2,4.268-2.7.466-.791.688-1.37,1.058-2.1a2.8,2.8,0,0,1,.846.34,1.29,1.29,0,0,1,.211.144,17.97,17.97,0,0,1-1.093,2.158c-2.034,3.457-4.062,4.255-5.893,3.177-1.172-.689-1.933-2.814-.356-5.494a10.938,10.938,0,0,1,2.343-2.842Z" fill="#0046fe"/>
      <path id="パス_49" data-name="パス 49" d="M28.054,29.119a9.607,9.607,0,0,0,1.238-1.1c.552-.578.554-1.047-.21-1.871-.468-.495-1.008-1.036-1.562-1.589-1.3,1.532-2.355,2.782-3.632,4.289.652.647,1.266,1.234,1.88,1.822.811.775,1.608,1.467,2.207,1.946,1.065.854,1.819.657,3.111-.694a22.983,22.983,0,0,0,3.188-4.219,3.551,3.551,0,0,1,1.025.675,23.368,23.368,0,0,1-3.4,4.32c-1.845,1.928-3.01,2.014-4.611.811-.685-.538-1.47-1.217-2.33-2.04l-1.793-1.715c-.726.882-1.416,1.726-2.118,2.608a2.777,2.777,0,0,1-.525-.386,2.309,2.309,0,0,1-.309-.365c.726-.858,1.464-1.752,2.178-2.6l-2.616-2.5a3,3,0,0,1,.408-.55,2.24,2.24,0,0,1,.485-.384c.9.93,1.575,1.6,2.485,2.542,1.23-1.434,2.4-2.831,3.62-4.276-.872-.834-1.83-1.727-2.775-2.583a2.31,2.31,0,0,1,.362-.477,2.568,2.568,0,0,1,.5-.4c.874.882,1.783,1.776,2.643,2.6.786-.871,1.559-1.8,2.333-2.684a2.323,2.323,0,0,1,.477.361c.122.118.246.26.357.39-.8.883-1.608,1.778-2.381,2.685.554.553,1.107,1.106,1.637,1.707,1.207,1.3,1.2,2.257.217,3.289a14.84,14.84,0,0,1-1.106,1.035Z" fill="#0046fe"/>
      <path id="パス_50" data-name="パス 50" d="M37.134,18.545a7.976,7.976,0,0,1,2.467-2.61c1.935-1.294,4.222-1.146,5.459.7,1.407,2.105.869,5-1.929,6.87-1.978,1.323-3.671,1.207-4.464.02a2.024,2.024,0,0,1,.727-2.8c1.3-.869,2.983-.645,4.545.56a3.354,3.354,0,0,0,.094-3.927c-.9-1.342-2.415-1.6-4.153-.433a7.485,7.485,0,0,0-2.8,3.364c-.424,1.08-.781,2.137-1.058,3.1a2.354,2.354,0,0,1-1.084-.339,74,74,0,0,0,2.118-9.981L37,13.053c-1.29,1.067-2.543,2.068-4.148,3.244a4.17,4.17,0,0,1-.5-.589,2.558,2.558,0,0,1-.184-.306c1.752-1.232,3.5-2.564,5.453-4.136a2.191,2.191,0,0,1,.868.564l-1.415,6.691Zm2.78,3.027a.962.962,0,0,0-.371,1.373c.463.691,1.533.671,2.875-.226a6.87,6.87,0,0,0,.707-.533c-1.279-1.026-2.392-1.162-3.211-.614" fill="#0046fe"/>
      <rect id="長方形_22" data-name="長方形 22" width="15.983" height="1.02" transform="translate(54.711 11.316) rotate(-13.137)" fill="#0046fe"/>
    </g>
  </g>
</svg>
