<svg xmlns="http://www.w3.org/2000/svg" xmlns:xlink="http://www.w3.org/1999/xlink" width="291" height="535.428" viewBox="0 0 291 535.428">
  <defs>
    <clipPath id="clip-path">
      <rect id="長方形_250" data-name="長方形 250" width="25.615" height="35.499" fill="#ff5c35"/>
    </clipPath>
    <clipPath id="clip-path-2">
      <rect id="長方形_250-2" data-name="長方形 250" width="25.615" height="35.499" fill="#0046fe"/>
    </clipPath>
    <clipPath id="clip-path-3">
      <rect id="長方形_250-3" data-name="長方形 250" width="25.615" height="35.499" fill="#001a5f"/>
    </clipPath>
    <clipPath id="clip-path-4">
      <rect id="長方形_284" data-name="長方形 284" width="251" height="333.986" fill="#e0e5ed"/>
    </clipPath>
    <clipPath id="clip-path-5">
      <rect id="長方形_250-4" data-name="長方形 250" width="25.553" height="35.413" fill="#ff5c35"/>
    </clipPath>
  </defs>
  <g id="グループ_521" data-name="グループ 521" transform="translate(-35.706 -4455.154)">
    <g id="グループ_507" data-name="グループ 507" transform="translate(35.706 4801.584)">
      <g id="グループ_358" data-name="グループ 358" transform="translate(0 0)" clip-path="url(#clip-path)">
        <path id="パス_3576" data-name="パス 3576" d="M11,30.49l-.012-.01-.013.01Z" transform="translate(1.804 5.008)" fill="#ff5c35"/>
        <path id="中マド_1" data-name="中マド 1" d="M12.8,35.489h0A40.866,40.866,0,0,1,3.77,24.661a31.127,31.127,0,0,1-3.3-8.474,12.894,12.894,0,0,1-.438-2.818C0,13.01,0,12.81,0,12.808a12.808,12.808,0,1,1,25,3.906,31.472,31.472,0,0,1-3.414,8.354A41.113,41.113,0,0,1,12.8,35.488Zm.012-29.667a6.4,6.4,0,1,0,6.4,6.4A6.411,6.411,0,0,0,12.808,5.822Z" transform="translate(0 -0.001)" fill="#ff5c35" stroke="rgba(0,0,0,0)" stroke-miterlimit="10" stroke-width="1"/>
      </g>
    </g>
    <text id="Japan_office" data-name="Japan office" transform="translate(76.706 4826.584)" fill="#001a5f" font-size="16" font-family="Helvetica"><tspan x="0" y="0">Japan office</tspan></text>
    <g id="グループ_518" data-name="グループ 518" transform="translate(36.706 4865.083)">
      <g id="グループ_358-2" data-name="グループ 358" transform="translate(0 0)" clip-path="url(#clip-path-2)">
        <path id="パス_3576-2" data-name="パス 3576" d="M11,30.49l-.012-.01-.013.01Z" transform="translate(1.804 5.008)" fill="#0046fe"/>
        <path id="中マド_1-2" data-name="中マド 1" d="M12.8,35.489h0A40.866,40.866,0,0,1,3.77,24.661a31.127,31.127,0,0,1-3.3-8.474,12.894,12.894,0,0,1-.438-2.818C0,13.01,0,12.81,0,12.808a12.808,12.808,0,1,1,25,3.906,31.472,31.472,0,0,1-3.414,8.354A41.113,41.113,0,0,1,12.8,35.488Zm.012-29.667a6.4,6.4,0,1,0,6.4,6.4A6.411,6.411,0,0,0,12.808,5.822Z" transform="translate(0 -0.001)" fill="#0046fe" stroke="rgba(0,0,0,0)" stroke-miterlimit="10" stroke-width="1"/>
      </g>
    </g>
    <g id="グループ_519" data-name="グループ 519" transform="translate(36.706 4955.083)">
      <g id="グループ_358-3" data-name="グループ 358" transform="translate(0 0)" clip-path="url(#clip-path-3)">
        <path id="パス_3576-3" data-name="パス 3576" d="M11,30.49l-.012-.01-.013.01Z" transform="translate(1.804 5.008)" fill="#001a5f"/>
        <path id="中マド_1-3" data-name="中マド 1" d="M12.8,35.489h0A40.866,40.866,0,0,1,3.77,24.661a31.127,31.127,0,0,1-3.3-8.474,12.894,12.894,0,0,1-.438-2.818C0,13.01,0,12.81,0,12.808a12.808,12.808,0,1,1,25,3.906,31.472,31.472,0,0,1-3.414,8.354A41.113,41.113,0,0,1,12.8,35.488Zm.012-29.667a6.4,6.4,0,1,0,6.4,6.4A6.411,6.411,0,0,0,12.808,5.822Z" transform="translate(0 -0.001)" fill="#001a5f" stroke="rgba(0,0,0,0)" stroke-miterlimit="10" stroke-width="1"/>
      </g>
    </g>
    <text id="Centers_of_Excellence_for_global_delivery_of_CEGID" data-name="Centers of Excellence for 
global delivery of CEGID" transform="translate(77.706 4890.083)" fill="#001a5f" font-size="16" font-family="Helvetica"><tspan x="0" y="0">Centers of Excellence for </tspan><tspan x="0" y="32">global delivery of CEGID</tspan></text>
    <text id="Offices_with_capabilities_on_CEGID_" data-name="Offices with capabilities on CEGID " transform="translate(77.706 4979.083)" fill="#001a5f" font-size="16" font-family="Helvetica"><tspan x="0" y="0">Offices with capabilities on CEGID </tspan></text>
    <g id="グループ_497" data-name="グループ 497" transform="translate(59.404 4455.154)">
      <g id="グループ_494" data-name="グループ 494" transform="translate(0 0)">
        <g id="グループ_493" data-name="グループ 493" clip-path="url(#clip-path-4)">
          <path id="パス_3636" data-name="パス 3636" d="M443.535,40.331c-1.805.742-3.132.082-4.348-1.786a12.147,12.147,0,0,0-1.247-2.056,4.514,4.514,0,0,1-.742-1.214,5.394,5.394,0,0,0-.911-1.314,2.906,2.906,0,0,1-.708-1.652c-.043-.457-.453-1.587-.573-2.46-.183-1.333-.206-3.859.573-4.686.312-.332.589-1.008,1.247-1.753a4.646,4.646,0,0,0,.911-2.9c.132-3.1.424-2.747-2.191-.37a6.361,6.361,0,0,0-2.292,3.64c-.137.731-.717,1.191-1.449,2.057-.51.6-1.542.738-2.394,1.685-.573.636-3.016.616-5.158.3-1.163-.17-4.744-.513-6.944-.708a10.7,10.7,0,0,1-5.427-1.955c-1.1-.8-2.379-1.887-3.674-1.955-1.116-.059-2.658-1.224-3.64-2.056a6.9,6.9,0,0,0-1.113-.911,6.078,6.078,0,0,1-1.18-.977,4.531,4.531,0,0,0-1.517-1.011c-1.064-.421-1.856-1.558-2.8-2.562a25.59,25.59,0,0,0-3.708-3.438A14.866,14.866,0,0,1,391.69,9.69c-.7-.833-1.517-1.4-2.191-2.158L383.7.993c-1.143-1.292-3.813-1.538-3.911.573l-.034,2.359c-.006.449-.215.51-.91,1.045l-1.315,1.011a4.107,4.107,0,0,0-.269,4.315c.293.49.928.785.977,1.282a4.9,4.9,0,0,0,1.652,2.224,4.31,4.31,0,0,1,1.517,2.158,8.037,8.037,0,0,0,.505,1.45,2.6,2.6,0,0,1-.168,2.225,3.038,3.038,0,0,0-.607,1.989l-.1,5.259c-.009.477.1.909-.539,1.314-.551.352-.939,1-.067,1.348.5.2.554.635.573,1.449l.1,4.417a2.423,2.423,0,0,1-1.146,2.157,16.686,16.686,0,0,0-1.315,1.113c-.388.327-1.671,2.754-.068,2.831.61.03.488.625.472,1.416l-.1,4.956a3.839,3.839,0,0,1-3.775,3.235c-1.139.044-2.7-.074-4.113.068-2.182.22-1.666-.865-2.461-1.247-1.385-.666-3.984-.533-4.989.371a2.183,2.183,0,0,0-.674,2.7,3.934,3.934,0,0,0,1.619,2.157c1.252.934.735,2.953-.27,4.214a21.07,21.07,0,0,1-2.562,2.629,5.414,5.414,0,0,1-1.483,1.011,3.817,3.817,0,0,0-1.113.708,7.115,7.115,0,0,1-1.382.741c-.407.209-.693.663-1.382,1.551-.435.56-.41,1.158-.708,1.517a2.839,2.839,0,0,0-.438,1.956V73.1c.074.977.018,1.53,1.146,2.022a4.332,4.332,0,0,1,1.349.944,9.95,9.95,0,0,0,1.989,1.415c.465.284.653.837,1.011,1.146,1.083.937,1.427,1.379,1.517,2.09l.27,2.124a1.735,1.735,0,0,1-.809,1.686l-1.012.775c-1.126.863-.959,3.422-.438,4.247A4.209,4.209,0,0,0,362.43,91.7c.558.181,1.072.135,1.45.4a1.246,1.246,0,0,0,1.989-.269,3.6,3.6,0,0,0,.843-1.248,6.231,6.231,0,0,0,.236-2.561,3.092,3.092,0,0,1,.438-2.562,17.046,17.046,0,0,1,2.191-2.764c.355-.4.86-.772,1.618.236a2.423,2.423,0,0,0,1.652,1.079,9.445,9.445,0,0,1,1.686.3,1.872,1.872,0,0,0,2.326-.708c.43-.559.987-1,1.584-1.719.707-.847.913-1.507-.809-1.854a24.709,24.709,0,0,1-4.011-1.45c-.418-.173-.947-.261-.91-.877l.068-1.145c.059-1-.428-1.33-1.382-1.214a14.982,14.982,0,0,1-3.843-.068,4.867,4.867,0,0,1-3.776-2.663l-.068-1.686c-.048-1.188-.316-2.437,1.011-3.505.369-.3.536-.4.91-.708a2.475,2.475,0,0,1,1.517-.607,19.672,19.672,0,0,1,1.989-.269,3.173,3.173,0,0,1,3,1.483,10.08,10.08,0,0,1,1.315,2.629c.548,1.395.378,1.706,1.753.1l3.641-4.247c.507-.592.5-.967,2.259-1.382.758-.18,1.6-.3,2.056-.439a16.248,16.248,0,0,1,4.989-.3,3.745,3.745,0,0,1,2.528.776A12.253,12.253,0,0,0,393,65.985a11.4,11.4,0,0,1,2.528,2.056,3.357,3.357,0,0,0,1.348.944,4.346,4.346,0,0,1,1.18.876,3.83,3.83,0,0,0,1.686,1.045,5.383,5.383,0,0,1,1.349.742,21.915,21.915,0,0,0,4.82,1.146,12.5,12.5,0,0,1,4.181,1.348c2.235,1.31,2.125,1.344,2.224-1.518l.135-3.876c.087-2.516.129-4.489,1.18-6.27a8.843,8.843,0,0,0,1.348-2.056A3.268,3.268,0,0,1,416.4,58.5c.525-.333.794-1.09,1.281-1.686a27.9,27.9,0,0,1,4.315-4.449,12.206,12.206,0,0,0,1.449-1.517c1.781-1.566,3.479-.717,5.293-.035a7.11,7.11,0,0,0,2.9.27c1.417-.064,1.784.183.4-1.483-1.007-1.216.033-3.776,1.922-1.45,1.134,1.4,2.088.561,3.2-.775a8.224,8.224,0,0,1,3.809-2.427c2-.66,2.79-2.021,3.708-3.64.692-1.222,5.411-3.673-1.146-.978" transform="translate(-195.971 0)" fill="#e0e5ed"/>
          <path id="パス_3637" data-name="パス 3637" d="M231.646,232.524c-1.93-1.783-2.71-3.814-3.776-5.495a21.973,21.973,0,0,0-2.368-3.181c.041-.064.064-.106.07-.117l-.377-.206c-.139-.139-.281-.276-.426-.407a13.747,13.747,0,0,1-1.82-2.09,11.436,11.436,0,0,0-2.225-2.495,6.669,6.669,0,0,1-1.045-1.719,4.688,4.688,0,0,1-.337-2.63,25.4,25.4,0,0,0,.1-3.236,4,4,0,0,0-.876-2.326,8.206,8.206,0,0,1-.236-2.157,22.843,22.843,0,0,1-.135-2.562c-.005-1.775-.842-1.555-2.056-.674a2.652,2.652,0,0,1-3.708-.809,1.9,1.9,0,0,0-3.3,1.483h0a3.975,3.975,0,0,1-.674,2.225c-.5.9-1.659,2.953-.472,3.439a4.431,4.431,0,0,0,5.326-1.551c1.195-1.41,2.566-1.5,2.528.674-.025,1.451.35,4.587-.1,5.292-1.01,1.58-1.355,1.4-2.158.607-1.609-1.59-2.964-.5-3.371.708-.695,2.065-2.011,1.448-2.562.843a4.378,4.378,0,0,1-1.416-2.326c-.1-1.04.168-2.846,0-3.337-.461-1.346-1.155-2.986-2.966-1.989a2.575,2.575,0,0,1-1.753.371c-.842-.276-1.317,1.8-1.348,2.731-.017.487.189,4.95.034,5.528a6.6,6.6,0,0,1-3.135,4.315,16.471,16.471,0,0,1-1.551.607c-.906.453-2.21,1.232-.674,2.629a6.677,6.677,0,0,1,1.079,1.551,6.041,6.041,0,0,0,1.382,1.551c.032.024.057.052.087.077l-.009.006.248.373.078-.051a3.293,3.293,0,0,1,.573,1.955c.028.745-.1,2.044-.135,2.933a6.153,6.153,0,0,1-2.023,4.011,4.7,4.7,0,0,0-2.09,3.1c-.1,1.559,2.919,2.91,4.214.067a2.912,2.912,0,0,0,.337-1.348c.049-2.675,1.177-1.305.91.067a16.871,16.871,0,0,0-.067,2.225,2.935,2.935,0,0,0,.876,2.225c.565.463.539,1.562.539,2.292,0,1.773.109,5.35,0,6.809a5.354,5.354,0,0,1-.742,2.495,2.754,2.754,0,0,0-.438,1.02h-.045l0,.18a10.713,10.713,0,0,0,.009,2.743,13.158,13.158,0,0,1-2.023,5.495,6.027,6.027,0,0,0-1.483,3.674,3.032,3.032,0,0,1-.246,1.176h0l-.171.145c.025.029.056.053.081.082a5.418,5.418,0,0,1-.71,1.327c-.355.449-.2,3.057-.236,4.314-.078,3.081-2.463,6.853-4.989,8.091-1.07.524-4.554,3.765-4.854,6.169a7.562,7.562,0,0,1-1.281,2.933,13.153,13.153,0,0,0-1.146,3.034,7.888,7.888,0,0,1-1.18,2.528,12.692,12.692,0,0,1-2.124,2.326,13.917,13.917,0,0,0-1.887,1.483,6.971,6.971,0,0,1-1.821,1.349,5.479,5.479,0,0,0-1.686,1.18c-.507.562-1.516.86-2.157,1.449-.814.749-1.565.868-3.2,1.416a2.473,2.473,0,0,1-.4.09l-.206-.236-.339.293h0a3.8,3.8,0,0,0-1.887.393c-.364.278-.943,1.013-1.382,1.146a1.532,1.532,0,0,0-.775,1.315,2.446,2.446,0,0,1-3,2.259c-2.143-.292-3.642-3.819-3.034-4.45.87-.9.477-1.588-.809-1.888-1.413-.329-.515-1.838.472-2.359a8.951,8.951,0,0,0,3.3-2.629,7.391,7.391,0,0,1,1.045-1.483c.345-.247.917-2.256.371-3.034-.836-1.191-3.325-.354-3.91.742-.332.622-.806,1.57-3.3,1.82a5.33,5.33,0,0,0-2.562,1.686,11.638,11.638,0,0,1-1.214,1.416c-1.439,1.423-.482,3.222.27,4.652.613,1.166,1.392,7.239-.1,9.439-.372.548-.776,1.473-1.146,2.023-1.068,1.589-2.588,3.533-3.8,5.165l-.112-.085-.27.358.117.088-.151.2a21.065,21.065,0,0,0-2.157,3.034,10.994,10.994,0,0,1-2.124,2.866c-1.238,1.314-.471,2.6.842,4.079.617.7,2.562,3.442-.91,5.326-.52.282-1.751.073-2.225,1.551a3.17,3.17,0,0,1-1.247,1.416c-.473.307-1.131.373-1.753.674a1.9,1.9,0,0,1-1.557.193c0-.017,0-.035.009-.052l-.217-.054h0a2.745,2.745,0,0,1-.831-1.132c-.426-.979-1.945-.247-2.326,1.045-.435,1.478-1.709,1.093-2.158-1.416a17.873,17.873,0,0,1,.2-2.427,1.314,1.314,0,0,0-1.281-1.618c-.743-.113-1.292.451-2.022,1.483a5.762,5.762,0,0,1-1.146,1.416c-.719.478-.954.858-1.678,1.019-.014-.026-.031-.052-.045-.078l-.244.128a7.326,7.326,0,0,1-1.336.009c-1.334-.086-2.238-.77-4.281-.708a3.238,3.238,0,0,0-2.673.958l-.025-.028-.167.148h0a8.828,8.828,0,0,1-2.9,1.382c-1.613.181-2.286,1.078-3.236,1.416a12.721,12.721,0,0,1-2.663.708,27.347,27.347,0,0,1-4.247,0c-2.995-.267-3.27,1.373-5.191,1.618-.03,0-.064,0-.094.007,0-.05.007-.1.013-.149l-.445-.053c-.009.076-.013.15-.02.226-.716.009-1.585-.071-2.184,0-.868.107-1.815-.726-1.214-1.315.542-.529.586-1.342-1.146-1.314-.906.014-1.8.144-2.191.843a7.8,7.8,0,0,1-2.494,1.854c-1.415.819-2.753,2.168-2.9,2.865a5.769,5.769,0,0,1-1.652,2.326c-1.735,1.7-4.292,3.677-5.966,5.731a20.2,20.2,0,0,1-3,3.371,21.262,21.262,0,0,0-2.764,3.169c-1.589,2.071-2.411,2.527-3.607,2.359-1.365-.191-2.869,1.592-3.472,2.832a4.027,4.027,0,0,1-2.494,2.629,5.953,5.953,0,0,0-2.629.843,3.675,3.675,0,0,1-1.956.169,1.693,1.693,0,0,0-2.09,1.685,15.539,15.539,0,0,1-.3,3.472c-.311.808.14,1.334.775,1.247.227-.031.841.455.944.607a.9.9,0,0,0,1.214.337c1.1-.65,1.163.455,1.416.876a7.3,7.3,0,0,1,.4.741,1.6,1.6,0,0,0,2.494.607,7.3,7.3,0,0,1,1.551-1.214,4.127,4.127,0,0,0,1.281-1.011c.646-.754,3.515-1.189,6.27-.236.3.1,1.062.567,1.483.775a4.423,4.423,0,0,1,1.416,1.214,3.908,3.908,0,0,0,1.349,1.146,1.87,1.87,0,0,1,.944.539c1.169,1.4.865-.98.977-1.618s-.009-2.726.876-3.506c.291-.256,1.209-2.567.776-3.708a2.1,2.1,0,0,1-.1-.339l.192-.4-.223-.11c.179-1.947,3.749-2.723,5.048-.228a2.281,2.281,0,0,0,4.045.1c.5-.855,2.575-1.676,3.776-1.786a4.644,4.644,0,0,0,3.573-1.921c.371-.549,2.428-1.877,3.506-1.045.905.7,2,.459,1.955-.674a1.224,1.224,0,0,1,.682-.976l.121.072a.236.236,0,0,0-.015-.133,1.963,1.963,0,0,1,1.3-.244c1.044.227,1.635.048,1.955-.472.48-.779,1.659-.161,2.09.4.519.68,3.126.241,3.438-1.079.085-.359.5-1.306,2.629-2.258a14.73,14.73,0,0,0,3.47-2.829l.174-.145,0,0c.863-.612,3.236-.58,5.157-.257a15.74,15.74,0,0,0,4.079.64,8.48,8.48,0,0,1,3.3.472c2.263.785,3.98-.1,5.09-.27.817-.122,1.24.075,1.465.419l0,.036.03,0a4.463,4.463,0,0,1,.261,1.8,2.955,2.955,0,0,1-1.113,2.427,7.139,7.139,0,0,0-1.045,1.348,6.418,6.418,0,0,1-1.854,1.483c-1.207.632-1.483,1.186-.876,3.877a8.151,8.151,0,0,1,0,3.169,2.512,2.512,0,0,0,1.416,2.9,2.394,2.394,0,0,1,1.82,1.821c.121.572.667.985,1.113,1.449a12.132,12.132,0,0,0,.876,1.112c1.267.89,1.623.972,1.921,1.011a5.26,5.26,0,0,1,2.427,1.214,2.223,2.223,0,0,0,1.483.674c.435-.007.881.374,1.113.4,1.113.147,1.525-.681,2.022-1.112a4.279,4.279,0,0,1,1.921-1.349c1.243-.3,1.035-1.7.986-3.361.061.014.119.028.182.041l.09-.44c-.1-.02-.188-.042-.281-.063-.014-3.372-.084-2.65,2.326-4.639,1.8-1.487,2.528-1.842,2.36-3.978-.175-2.225,1.194-2.254,2.427-3.034s3.271-1.041,4.484-1.551c.721-.3,1.615.029,1.989-.135,5.094-2.238-.368-5.365-1.82-6.1a9.654,9.654,0,0,1-2.124-1.214,15.06,15.06,0,0,0-2.326-1.551c-.991-.6-.572-1.526-.135-2.359.332-.632,1.026-1.891,1.416-2.6a6.278,6.278,0,0,1,2.251-1.582l.221-.07v0c1.584-.522,1.873-.773,1.709,1.519a4.709,4.709,0,0,0,.472,2.494c1.514,2.473,1.394,1.264,3.978.4a7.305,7.305,0,0,1,1.483-.337c3.15-.284,1.548,1.561.809,2.022-4.845,3.026-1.492,2.031.674,1.214,1.347-.508,5.314-1.344,5.7-1.416,2.88-.538,7.77.048,10.686-.337,1.144-.151,1.983.515,2.292-2.056a3.381,3.381,0,0,1,1.247-2.663,5.052,5.052,0,0,0,1.112-3.438,2.641,2.641,0,0,1,1.551-2.225c.571-.192,1.389-.87,2.528-1.382s2.789-.669,2.663,1.922c-.038.784.011,2.852-.067,4.18-.119,2.024,1.953,4.909,2.831,2.629.215-.559-.351-1.06,1.146-1.956.516-.309.892-1.086,1.416-1.382a2.351,2.351,0,0,0,1.146-2.393,21.317,21.317,0,0,1,0-2.7,2.619,2.619,0,0,0-.977-1.921,1.661,1.661,0,0,1-.412-.984v0l0-.222-.022,0a5.584,5.584,0,0,1,.227-1.722,4,4,0,0,1,2.022-2.326c.936-.514,2.406-.387,3.472-.438a1.7,1.7,0,0,1,2.023,1.618c.469,2.5,4.839.243,1.888-3.371a5.168,5.168,0,0,1-1.011-2.562c-.115-1.469-.073-2.786,1.416-3.472.107-.049.227-.1.348-.153,0,.006,0,.012,0,.019l.448,0c0-.07,0-.135,0-.2.36-.149.727-.3,1.027-.436,2.235-1.02,5.5-.153,3.2,2.427-.366.411-1.308,1.372-1.719,1.787-.7.7-1.446.156-1.449,3.169,0,1.234-.037,2.914.034,4.146a6.375,6.375,0,0,0,.472,1.786,3.3,3.3,0,0,1,.2,1.719c-.152,1.267.607,1.728,1.416,1.618a2.673,2.673,0,0,0,2.225-2.022,2.909,2.909,0,0,1,1.584-2.258,21.652,21.652,0,0,1,2.528-1.787c1.125-.471,1.982-1.1,1.753-3.809-.114-1.348.2-3.091.169-4.18-.044-1.57-.241-3.508,1.989-4.416.813-.331,1.669-.972,2.461-1.348,1.1-.524,1.4-1.058,1.317-1.573l-.014-.269-.063,0a4.32,4.32,0,0,0-1-1.262c-.736-.723-1.822-1.848-2.495-2.629a10.633,10.633,0,0,1-2.394-6.54c.005-1.314.011-3.135-.034-4.449a8.618,8.618,0,0,1,.809-3.641,30.671,30.671,0,0,0,1.551-3.573h0l.126-.185-.065-.04a5.445,5.445,0,0,1,1.421-3.078,6.673,6.673,0,0,0,1.011-3.506c.042-.877.09-2.237.067-3.3a12.207,12.207,0,0,0-.573-2.7c-.235-.867-.254-2.1-.506-2.966a16.9,16.9,0,0,0-2.427-5.259,6.633,6.633,0,0,1-.721-1.164.332.332,0,0,0,.035-.027l0-.309-.14.115a7.2,7.2,0,0,1-.592-1.918c-.194-1.386-.33-2.971-.4-4.45a3.977,3.977,0,0,1,1.146-2.663,22.751,22.751,0,0,1,3.472-2.764,3.238,3.238,0,0,1,3.068.1,2.262,2.262,0,0,0,1.011.371c1.287.3,1.425-1.075.607-2.023a10.071,10.071,0,0,1-1.348-2.73,9.36,9.36,0,0,1-.477-4.214l.074-.017-.048-.218a8.7,8.7,0,0,1,2.608-5.529,9.093,9.093,0,0,0,1.955-3.034,32.237,32.237,0,0,0,.742-4.113,8.361,8.361,0,0,1,.337-1.955c1.076-3.057.332-4.94-.2-6.742-.679-2.29-1.7-4.85-2.831-5.9" transform="translate(-29.455 -111.323)" fill="#e0e5ed"/>
          <path id="パス_3638" data-name="パス 3638" d="M211.642,563.087a.994.994,0,0,0-1.247.438c-.163.443-.909.65-1.079,1.045a4.746,4.746,0,0,1-.843,1.112,3.428,3.428,0,0,0-.978,1.045,3.2,3.2,0,0,0-.573,2.056c.089,1.355.413,1.34.775,1.753.955,1.09,3.279.929,3.1-1.719a2.123,2.123,0,0,1,.708-1.753,3.027,3.027,0,0,0,.708-1.18c.1-.309.171-.869.27-1.18a1.24,1.24,0,0,0-.843-1.618" transform="translate(-114.154 -310.62)" fill="#e0e5ed"/>
          <path id="パス_3639" data-name="パス 3639" d="M148.611,582.961c-.663-.187-1.39-1.78-1.247-3,.066-.564-.059-1.163-1.652-.843a3.929,3.929,0,0,1-1.759-.2l-.207-.242c-.03.025-.062.055-.093.082a.5.5,0,0,1-.2-.25c-.029-.1-.11-.834-1.551-.91-.706-.037-1.036-.5-1.416-.675-.7-.33-1.3-.275-1.618.27-.261.445-1.275-.025-1.686-.337-1.041-.792-2.437-.379-3.506.606a14.039,14.039,0,0,1-2.225,1.72c-2.11,1.2-1.909,1.993-1.955,3.641a1.537,1.537,0,0,1-.082.43c-.057-.054-.113-.107-.175-.16l-.294.338c.1.087.184.172.271.258a3.738,3.738,0,0,1-3.63,1.8,3.365,3.365,0,0,0-2.764.944c-1.085,1.388-2.047,0-2.832-1.012-1.089-1.4-1.984-2.792-3.978-.943a4.881,4.881,0,0,0-1.753,3.4,2.244,2.244,0,0,1-.741,1.854,3.172,3.172,0,0,0-.843,1.922,2.276,2.276,0,0,1-1.416,1.988,11.53,11.53,0,0,0-1.517,1.315c-1.551,1.354-2.566,3.238-5.326,3.675-2.225.351-4.35.833,0,.809,1.957-.011,3.354-.859,4.955,1.214.371.48.636,1.578,1.113,1.954.4.317.36,1.025-.3,1.618a5.4,5.4,0,0,0-.876,2.8,10.519,10.519,0,0,1-1.315,2.731c-2.132,4.208.159,1.3.674.337.908-1.7,2.005-1.38,2.764-.337.6.825,1.377,1.948,1.888,2.832.785,1.357,1.916.925,2.764,0a3.155,3.155,0,0,1,2.7-.742c1.758.325,1.263-1.443.674-2.022-.9-.888.074-2.061,1.146-2.967a11.719,11.719,0,0,0,1.921-2.529,5.276,5.276,0,0,0,1.112-3.236c.06-2.212,1.615-2.824,3.135-3.438a4.152,4.152,0,0,0,1.888-1.719c.636-1.414,2.022-1.1,2.933-1.147a4.8,4.8,0,0,1,3.371.978,6.747,6.747,0,0,1,1.618,1.382c.688,1.094,1.6,1.353,2.09,1.888,1.158,1.261,1.726.352,2.022-.607a10.458,10.458,0,0,1,.911-2.394c.45-.76.707-1.693.985-2.2l.171.169.318-.316-.234-.232a25.768,25.768,0,0,1,5.671-5.408,2.979,2.979,0,0,0,1.214-2.629c-.137-1.241-.413-2.263-1.112-2.461" transform="translate(-56.213 -318.022)" fill="#e0e5ed"/>
          <path id="パス_3640" data-name="パス 3640" d="M45.1,623.042c-.726-.854-1.417-2.376-2.09-3.371-.5-.744-.878-2.253-2.6-2.191-2.994.107-2.363-1.918-1.315-3.068,2.851-3.125-1.431-6.711-3.775-4.045a3.559,3.559,0,0,1-3,.641,7.913,7.913,0,0,1-4.82-3.742c-.711-1.284-1.929-4.273-2.023-4.179a2.939,2.939,0,0,1-1.011.3c-.412.062-.785.586-1.112.843a1.841,1.841,0,0,1-1.854.371c-1.039-.2-2.333.623-3.607,1.955-1.213,1.268-1.646,2.152-1.652,2.9-.01,1.147-1.31,2.984-2.966,2.057a1.735,1.735,0,0,0-2.663,1.517c-.189,1.812-1.058,1.529-2.663,1.517-.9-.006-2.781-.413-2.528,2.258.209,2.214-.176,1.771-1.921,1.045-1.995-.829-4.812,1.143-2.832,3.439.364.423,1.082.79,1.348,1.281a3.882,3.882,0,0,0,3.3,2.09c.757-.017,2.441,1.652,2.966,2.764.509,1.076,0,2.245-1.551,1.686a1.955,1.955,0,0,1-1.416-1.753c-.305-1.766-2.159-2.635-2.629-2.292-.777.564-.395,3.463.607,4.18.88.63,2.454,2.258,1.719,3.606-.945,1.735.624,1.551,2.09.438.724-.549,1.862-1.6,2.663-2.36,2.337-2.216,3.084-.69,2.629,1.079-.52,2.024.841,2.416,2.427.943.526-.488,1-1.222,1.584-1.787,1.279-1.232.647-3.636-2.393-2.865-.6.153-1.778.951-1.888-1.012-.01-.187,0-.921.035-1.74l.022,0,.087-.439-.091-.02c.037-.846.09-1.692.148-2.053.442-2.712,3.264-1.679,4.113.135.209.447.488.963.8,1.494-.122.144-.213.257-.238.29l.354.275c.038-.049.082-.1.129-.16a19.247,19.247,0,0,0,1.851,2.551c1.824,2.05.18,5.049-.236,5.259-1.565.788-.476,1.019.134,1.146.429.09.511,1.436.371,4.079a5.02,5.02,0,0,1-1.55,2.731,32.324,32.324,0,0,0-2.161,2.539l-.022,0,0,.022c-.837,1.082-1.715,2.322-2.607,3.706-.618.958-.013,5.579,1.888,6.337,1.654.66,1.9,4.4.2,5.664-2.368,1.759-.88,5.1,1.483,4.82a17.761,17.761,0,0,1,3.3.641c.772.169,2.067.3,2.427-.2,1.652-2.3-.059-3.683-.776-4.517-.856-1-2.833-2.858-.438-4.719a17.16,17.16,0,0,1,2.292-1.618c1.922-1,2.133.777.674.675-.827-.059-1.143.171-1.113,1.652.051,2.454.051,1.623,1.652,2.933,1.374,1.125,1.99,2.906.2,4.585-3.309,3.1-.994,4.106,1.652,2.764A18.891,18.891,0,0,1,30,663.83c.854-.434,1.23-.962,1.349-2.427a10.045,10.045,0,0,1,.337-2.6c.362-.974.865-1.235,1.338-1.154l0,.02.308.078a2.136,2.136,0,0,1,.921.955c.521,1.1,2.09,1.416,2.966-.472a11.242,11.242,0,0,0,.708-3.4c.176-2.421-.168-5.705.034-8.124a10.571,10.571,0,0,1,.944-4.786,6.171,6.171,0,0,0,1.146-3.607c.028-.9.1-4.2,2.056-5.966a5.234,5.234,0,0,0,1.854-3,2.741,2.741,0,0,1,.641-1.83c.087.008.148.016.174.022l.061-.214.2-.108a.193.193,0,0,0-.093-.093l.031-.035a3.028,3.028,0,0,0,.135-4.045" transform="translate(0 -332.719)" fill="#e0e5ed"/>
          <path id="パス_3641" data-name="パス 3641" d="M325.992,375.875c.3.088.721.509.573,1.618a8.392,8.392,0,0,0-.135,1.416c.153,2.041,1.157.95,1.686.3a35.876,35.876,0,0,0,2.7-2.865c.726-1.15.59-2.394-.742-2.023-.51.142-1.4-.348-.708-2.157a5.924,5.924,0,0,1,.539-1.483c1.53-1.984-1.636-3.949-2.629-.944a7.839,7.839,0,0,0-.741,2.191c.012,1.322-.469,1.144-.978,1.686a1.324,1.324,0,0,0,.438,2.259" transform="translate(-179.354 -203.132)" fill="#e0e5ed"/>
        </g>
      </g>
      <g id="グループ_495" data-name="グループ 495" transform="translate(164.69 179.83)">
        <g id="グループ_358-4" data-name="グループ 358" transform="translate(0 0)" clip-path="url(#clip-path-5)">
          <path id="パス_3576-4" data-name="パス 3576" d="M11,30.49l-.012-.01-.013.01Z" transform="translate(1.773 4.922)" fill="#ff5c35"/>
          <path id="中マド_1-4" data-name="中マド 1" d="M12.765,35.4h0a40.767,40.767,0,0,1-9-10.8,31.052,31.052,0,0,1-3.3-8.454,12.862,12.862,0,0,1-.437-2.811C0,12.979,0,12.779,0,12.777a12.777,12.777,0,1,1,24.943,3.9,31.4,31.4,0,0,1-3.406,8.333,41.013,41.013,0,0,1-8.771,10.4Zm.012-29.595A6.388,6.388,0,1,0,19.165,12.2,6.4,6.4,0,0,0,12.777,5.808Z" transform="translate(0 -0.001)" fill="#ff5c35" stroke="rgba(0,0,0,0)" stroke-miterlimit="10" stroke-width="1"/>
        </g>
      </g>
    </g>
  </g>
</svg>
